<svg width="400" height="117" viewBox="0 0 400 117" fill="none" xmlns="http://www.w3.org/2000/svg">
<g clip-path="url(#clip0_13920_53309)">
<rect width="444" height="117" rx="16" fill="#2D3748"/>
<path opacity="0.1" d="M358.95 5.64449C359.028 5.59914 359.087 5.56513 359.166 5.51978C359.244 5.47444 359.323 5.42909 359.382 5.39508C359.421 5.37241 359.48 5.3384 359.519 5.31573C359.558 5.29305 359.617 5.25904 359.656 5.23637C359.735 5.19102 359.825 5.16531 359.903 5.11997C360.159 4.97259 360.383 4.81692 360.638 4.66954L410.414 -24.0686C415.127 -26.7894 421.166 -25.1711 423.887 -20.4586C426.608 -15.7461 424.989 -9.70651 420.277 -6.98574L370.501 21.7524C370.246 21.8998 369.999 22.0162 369.732 22.1439C369.508 22.2996 369.264 22.4666 369.028 22.6026C359.584 28.0555 356.355 40.1036 361.808 49.5483C367.261 58.993 379.309 62.2212 388.754 56.7684L405.837 46.9056L400.905 38.3641L383.862 48.2043L383.842 48.2156L383.823 48.2269C379.13 50.9364 373.059 49.3098 370.35 44.6169C367.64 39.924 369.267 33.8535 373.96 31.1441L373.979 31.1327L373.999 31.1214L399.584 16.3499L413.82 8.13089C418.532 5.41012 424.572 7.0284 427.293 11.7409C430.013 16.4534 428.395 22.493 423.683 25.2137L417.988 28.5013L422.92 37.0428L432.782 54.1256L444.289 74.0556C446.998 78.7485 445.372 84.819 440.679 87.5285C435.986 90.2379 429.916 88.6113 427.206 83.9184L415.7 63.9884L398.617 73.8512C379.747 84.7456 355.62 78.2808 344.725 59.4111C333.876 40.6199 340.246 16.6 358.95 5.64449Z" fill="#27DC8A"/>
<path opacity="0.1" d="M12.6743 49.9683C12.5844 50.0052 12.517 50.0329 12.4271 50.0699C12.3372 50.1068 12.2474 50.1437 12.1799 50.1715C12.135 50.1899 12.0676 50.2176 12.0226 50.2361C11.9777 50.2546 11.9103 50.2823 11.8653 50.3007C11.7754 50.3377 11.6948 50.3971 11.6049 50.4341C11.3128 50.5541 11.0339 50.6425 10.7417 50.7625L-46.2247 74.1747C-51.618 76.3912 -54.1991 82.5742 -51.9825 87.9674C-49.766 93.3607 -43.583 95.9418 -38.1898 93.7253L18.7767 70.3131C19.0688 70.1931 19.3292 70.0598 19.6121 69.9172C19.891 69.8289 20.1924 69.7313 20.4621 69.6205C31.2711 65.1782 43.6053 70.3271 48.0476 81.1361C52.4899 91.9452 47.3409 104.279 36.5319 108.722L16.9813 116.757L12.9639 106.981L32.4695 98.9649L32.492 98.9556L32.5145 98.9464C37.8853 96.7391 40.4796 90.5244 38.2723 85.1536C36.065 79.7828 29.8503 77.1885 24.4795 79.3958L24.4571 79.405L24.4346 79.4142L-4.84638 91.4482L-21.1386 98.144C-26.5318 100.36 -29.1129 106.543 -26.8964 111.937C-24.6799 117.33 -18.4969 119.911 -13.1036 117.695L-6.58675 115.016L-2.56928 124.792L5.46566 144.342L14.8397 167.151C17.047 172.522 23.2617 175.116 28.6325 172.909C34.0033 170.702 36.5977 164.487 34.3904 159.116L25.0163 136.307L44.5669 128.272C66.1624 119.397 76.4736 94.6968 67.5982 73.1012C58.7598 51.5955 34.2129 41.2739 12.6743 49.9683Z" fill="#27DC8A"/>
</g>
<defs>
<clipPath id="clip0_13920_53309">
<rect width="400" height="117" rx="16" fill="white"/>
</clipPath>
</defs>
</svg>
