<svg width="73" height="130" viewBox="0 0 73 130" fill="none" xmlns="http://www.w3.org/2000/svg">
<path d="M27.3333 104.667V82.6667M27.3333 104.667C27.3333 106.612 26.6544 108.477 25.4458 109.852C24.2372 111.227 22.5981 112 20.8889 112H14.4444C12.7353 112 11.0961 111.227 9.88753 109.852C8.67897 108.477 8 106.612 8 104.667V82.6667C8 80.7217 8.67897 78.8565 9.88753 77.4812C11.0961 76.106 12.7353 75.3333 14.4444 75.3333H20.8889C22.5981 75.3333 24.2372 76.106 25.4458 77.4812C26.6544 78.8565 27.3333 80.7217 27.3333 82.6667M27.3333 104.667C27.3333 106.612 28.0123 108.477 29.2209 109.852C30.4294 111.227 32.0686 112 33.7778 112H40.2222C41.9314 112 43.5706 111.227 44.7791 109.852C45.9877 108.477 46.6667 106.612 46.6667 104.667M27.3333 82.6667V68C27.3333 66.0551 28.0123 64.1898 29.2209 62.8146C30.4294 61.4393 32.0686 60.6667 33.7778 60.6667H40.2222C41.9314 60.6667 43.5706 61.4393 44.7791 62.8146C45.9877 64.1898 46.6667 66.0551 46.6667 68M46.6667 68V104.667M46.6667 68V53.3333C46.6667 51.3884 47.3456 49.5231 48.5542 48.1479C49.7628 46.7726 51.4019 46 53.1111 46H59.5556C61.2647 46 62.9039 46.7726 64.1125 48.1479C65.321 49.5231 66 51.3884 66 53.3333V104.667C66 106.612 65.321 108.477 64.1125 109.852C62.9039 111.227 61.2647 112 59.5556 112H53.1111C51.4019 112 49.7628 111.227 48.5542 109.852C47.3456 108.477 46.6667 106.612 46.6667 104.667" stroke="#1AC486" stroke-width="5" stroke-linecap="round" stroke-linejoin="round"/>
<path d="M38.4167 15.75H57.75M57.75 15.75V33.75M57.75 15.75L38.4167 33.75L28.75 24.75L14.25 38.25" stroke="#1AC486" stroke-width="5" stroke-linecap="round" stroke-linejoin="round"/>
</svg>
