<svg width="24" height="24" viewBox="0 0 24 24" fill="none" xmlns="http://www.w3.org/2000/svg">
<path d="M22 20.667C22 22.1337 20.8 23.3337 19.3333 23.3337H4.66667C3.2 23.3337 2 22.1337 2 20.667V9.33366C2 7.86699 3.2 6.66699 4.66667 6.66699H19.3333C20.8 6.66699 22 7.86699 22 9.33366V20.667Z" fill="#FDD888"/>
<path d="M24 7.33366C24 8.80033 22.8 10.0003 21.3333 10.0003H2.66667C1.2 10.0003 0 8.80033 0 7.33366C0 5.86699 1.2 4.66699 2.66667 4.66699H21.3333C22.8 4.66699 24 5.86699 24 7.33366Z" fill="#FDD888"/>
<path d="M2 10H22V11.3333H2V10Z" fill="#FCAB40"/>
<path d="M12.6663 2H11.333C10.8026 2 10.2939 2.21071 9.91879 2.58579C9.54372 2.96086 9.33301 3.46957 9.33301 4V23.3333H14.6663V4C14.6663 3.46957 14.4556 2.96086 14.0806 2.58579C13.7055 2.21071 13.1968 2 12.6663 2Z" fill="#DA2F47"/>
<path d="M10.6667 4.66643C11.4001 4.66643 11.5087 4.32243 10.9074 3.90176L6.42607 0.764426C6.28857 0.66431 6.13131 0.594655 5.96477 0.560105C5.79823 0.525555 5.62624 0.526904 5.46026 0.564061C5.29429 0.601218 5.13814 0.673331 5.00223 0.77559C4.86631 0.87785 4.75376 1.00791 4.67207 1.15709L3.32807 3.50909C2.96407 4.14576 3.26674 4.66643 4.00007 4.66643H10.6667ZM13.3334 4.66643C12.6001 4.66643 12.4914 4.32243 13.0927 3.90176L17.5747 0.764426C17.7123 0.664417 17.8695 0.594851 18.0361 0.560361C18.2026 0.52587 18.3745 0.527245 18.5405 0.564395C18.7064 0.601546 18.8625 0.673618 18.9985 0.775815C19.1344 0.878012 19.247 1.00799 19.3287 1.15709L20.6727 3.50843C21.0361 4.14576 20.7334 4.66643 20.0001 4.66643H13.3334Z" fill="#DA2F47"/>
</svg>
