<svg width="39" height="31" viewBox="0 0 39 31" fill="none" xmlns="http://www.w3.org/2000/svg">
<g clip-path="url(#clip0_13478_63840)">
<path d="M7.82014 8.64201C8.57611 7.93509 9.39129 7.30683 10.2057 6.65427C11.4337 5.65863 12.6422 4.6167 14.0243 3.85822C15.5967 2.99421 17.3834 2.77827 19.1145 3.02775C21.4442 3.35883 24.0517 3.94662 26.0656 5.21455C28.0529 6.47093 29.2303 8.69475 30.1058 10.8621C30.803 12.6002 31.425 14.365 32.1413 16.095C32.6254 17.2637 32.9588 18.6549 33.409 19.8468C34.0177 21.4518 33.712 23.6586 32.252 23.755C30.7049 23.8515 30.4692 22.0157 29.8299 21.008C29.2256 20.0559 28.4458 19.1942 27.7443 18.3186C27.0834 17.4996 26.7164 16.7475 25.7768 16.209C25.3026 16.1713 25.3199 18.0524 25.215 18.9242C25.0233 20.4965 24.3057 21.8875 23.9493 23.4137C23.6832 23.914 22.2018 22.4303 21.5709 21.859C20.6081 20.9836 19.4579 20.0876 18.2963 19.5273C16.6222 18.7221 14.7243 18.1845 13.1075 17.2704C11.8132 16.5378 10.8572 15.6578 9.5641 14.9193C8.54139 14.3334 7.8334 13.6858 6.71429 13.2853C6.02747 13.0405 4.52689 12.6033 5.38933 11.5501C5.89502 10.9303 6.33987 10.2677 6.85549 9.6559C7.16327 9.29094 7.48177 8.95838 7.82014 8.64201Z" fill="#E7373B"/>
<path d="M26.8691 5.82028C25.096 7.54231 22.6062 8.43387 20.1814 8.67476C18.2376 8.86424 16.3389 8.30236 14.5027 7.74737C13.5128 7.452 12.5734 7.1369 11.6429 6.66667C11.3435 6.51415 11.0497 6.3628 10.7502 6.21029C11.7975 5.35837 12.8448 4.50645 14.0243 3.85699C14.8696 3.39193 15.7681 3.11899 16.6923 3.0023C17.4923 2.89616 18.3074 2.91387 19.1133 3.0323C20.6303 3.24958 22.2654 3.56978 23.7767 4.12394C24.5868 4.41833 25.3602 4.77759 26.0632 5.22489C26.3467 5.39826 26.6186 5.59942 26.8691 5.82028Z" fill="#E5333C"/>
<path d="M33.4025 19.8508C32.9523 18.6588 32.6176 17.2735 32.1348 16.099C31.5082 14.5807 30.9513 13.0347 30.3562 11.5049C30.1367 11.3025 29.9161 11.1059 29.6764 10.9175C27.7319 9.39828 25.2296 9.03148 22.7978 9.53054C22.1795 9.65618 21.5616 9.83623 20.985 10.0973C20.4207 10.3548 19.8791 10.6714 19.3128 10.9105C18.2623 11.3572 17.1335 11.6489 16.0096 11.7484C12.9789 12.0269 9.6432 11.1979 7.16476 9.2845C7.05926 9.40153 6.95495 9.51277 6.85381 9.63674C6.33819 10.2485 5.89334 10.9111 5.38766 11.5309C4.52401 12.5899 6.02579 13.0214 6.71261 13.2661C7.82735 13.6597 8.53534 14.3073 9.56241 14.9002C10.8499 15.6374 11.8103 16.5244 13.1058 17.2513C14.7282 18.1665 16.6261 18.7041 18.2946 19.5081C19.4506 20.0673 20.6064 20.9644 21.5692 21.8398C22.1945 22.4099 23.676 23.8937 23.9476 23.3945C24.3028 21.8741 25.0203 20.4831 25.2133 18.905C25.3182 18.0332 25.3009 16.1521 25.7751 16.1898C26.7091 16.7272 27.0817 17.4804 27.7426 18.2994C28.4452 19.1692 29.2239 20.0367 29.8282 20.9888C30.4675 21.9965 30.7032 23.8323 32.2503 23.7358C33.7 23.6614 34.0111 21.4558 33.4025 19.8508Z" fill="#BF232C"/>
<path d="M32.2414 23.7523C30.6943 23.8488 30.4586 22.013 29.8193 21.0053C29.215 20.0532 28.4351 19.1915 27.7337 18.3159C27.4384 17.9469 27.1988 17.5894 26.9353 17.2632C26.6225 16.8665 26.2791 16.5056 25.765 16.2121C25.6389 16.2041 25.5513 16.3188 25.4871 16.5168C25.2949 17.0808 25.2849 18.2801 25.2032 18.9273C25.0115 20.4996 24.294 21.8906 23.9388 23.411C23.6726 23.9114 22.1912 22.4276 21.5603 21.8563C20.5975 20.981 19.4473 20.0849 18.2858 19.5246C16.8125 18.8153 15.1632 18.3111 13.6835 17.5763C14.8412 17.9305 16.0597 17.9351 17.2521 17.729C19.5282 17.3366 21.2227 15.9666 22.8581 14.3489C23.5444 13.6698 24.2021 13.0452 25.014 12.4887C25.1155 12.4191 25.217 12.3496 25.324 12.2812L25.3308 12.2765C26.1738 11.7385 26.9548 11.556 27.9742 11.8212C28.9211 12.0715 29.8875 12.9295 30.6793 13.7333C30.9866 14.0444 31.2704 14.3567 31.5474 14.6736C31.734 15.1469 31.9206 15.6202 32.1128 16.0946C32.5968 17.2633 32.9303 18.6545 33.3805 19.8464C34.0114 21.4561 33.7058 23.6629 32.2414 23.7523Z" fill="#B1252A"/>
<path d="M8.26686 11.0587C8.43864 11.1546 8.60323 11.2853 8.75471 11.3951C8.86087 11.4714 9.17412 11.7535 9.3098 11.7152C9.51272 11.6606 9.437 11.3249 9.67333 11.2773C10.0195 11.204 10.3179 11.5857 10.5772 11.7359C10.6869 11.7949 10.77 11.8422 10.8467 11.9487C10.9147 12.0412 11.0557 12.3421 11.1658 12.3709C11.3373 12.4124 11.4507 11.808 11.5439 11.6945C11.7087 11.4871 12.0058 11.6512 12.1887 11.7494C12.3617 11.8395 12.5494 11.9146 12.712 12.0267C12.8945 12.155 13.0419 12.3123 13.1396 12.5136C13.2318 12.7138 13.298 13.0113 13.5382 13.0851C13.6569 12.8199 13.7244 12.5501 14.0692 12.6516C14.2549 12.7082 14.4538 12.7855 14.6084 12.9081C14.773 13.0387 14.7983 13.2251 14.9144 13.394C15.0248 13.5617 15.2268 13.7363 15.3974 13.838C15.7497 14.0437 15.9247 14.0679 16.2256 13.7921C16.3976 13.6345 16.5878 13.5289 16.8289 13.5426C17.1435 13.5654 17.4779 13.7734 17.6687 14.0303C17.7497 14.1436 17.7368 14.3462 17.8143 14.477C17.9048 14.713 18.7415 14.6265 19.1208 14.8982C19.353 15.067 19.6774 15.3514 19.4909 15.663C19.3463 15.941 20.2733 15.7826 20.642 15.9374C21.0162 16.0933 21.2118 16.2424 21.2634 16.3859C21.3138 16.5352 21.3137 16.7042 21.1629 16.7877C20.9327 17.1144 21.6842 17.0465 21.875 17.2188C22.2312 17.5461 22.3192 17.8783 22.1801 18.3264C22.0796 18.6437 23.0019 18.3395 23.3684 18.6447C23.7847 18.9904 23.8151 19.2926 23.5963 19.7605C23.3705 20.0941 25.5673 20.4218 25.2871 20.6536C25.1636 20.8575 25.1405 20.9131 25.2832 21.0935C25.4589 21.311 25.6227 21.4173 25.5624 21.7369C25.4925 22.1028 24.8714 22.1856 24.8903 22.5155C24.9009 22.7169 25.1837 22.7815 24.9074 22.9658C24.7665 23.0574 24.4623 22.9281 24.3556 23.0509C24.1956 23.2351 24.5291 23.5033 24.6424 23.6294C24.8316 23.8376 25.0935 24.1152 25.0078 24.4174C24.8869 24.8331 24.4466 24.7722 24.143 24.9207C24.3529 25.0004 24.5025 25.4841 24.4594 25.6925C24.4063 25.9773 24.2311 26.2067 23.9291 26.2348C23.6507 26.2617 23.4109 26.0733 23.5793 26.4945C23.6527 26.6727 23.808 26.9886 23.7908 27.1842C23.7402 27.7654 23.0396 27.3065 22.7601 27.1702C23.0657 27.5172 22.9551 28.0799 22.4159 27.8235C22.0564 27.6525 22.0185 27.2462 21.698 27.0833C21.7091 27.0856 21.5399 27.286 21.5097 27.2918C21.419 27.3093 21.2862 27.2214 21.2142 27.1764C21.0647 27.0851 20.7908 26.8654 20.7543 26.6767C20.6973 26.3631 21.3255 25.6841 21.058 25.4053C20.9479 25.292 20.7517 25.4265 20.6264 25.4428C20.4338 25.4754 20.186 25.4664 19.9995 25.3856C19.7263 25.2747 19.8008 25.1392 19.6617 24.9414C19.4535 24.6568 19.0252 24.9304 18.7473 24.6737C18.5379 24.4794 18.3832 24.3569 18.0948 24.2912C17.7273 24.2151 17.318 24.2572 16.9764 24.0839C16.5982 23.891 16.6499 23.473 16.3413 23.2522C16.2308 23.169 16.0972 23.1413 16.0105 23.0268C15.914 22.9042 15.9153 22.7294 15.8064 22.6102C15.6776 22.4749 15.4755 22.4693 15.3025 22.4637C15.106 22.4593 14.9349 22.4722 14.7472 22.3971C14.5273 22.3094 14.3539 22.1648 14.1128 22.2357C13.9143 22.2972 13.8231 22.4293 13.6163 22.2779C13.2414 22.0131 12.9572 21.6464 12.597 21.3667C12.1872 21.0464 11.639 21.0296 11.1774 21.2118C10.6462 21.4219 9.78078 21.6473 9.41492 20.9739C9.2886 20.7425 9.39423 20.4565 9.24761 20.239C9.0835 19.9937 8.68695 19.9177 8.43165 19.8045C8.14533 19.6728 7.88206 19.5701 7.56897 19.5958C7.28492 19.6216 7.01991 19.7237 6.7367 19.6893C6.45229 19.6606 6.25555 19.4328 5.99546 19.3427C5.64746 19.2285 5.35328 19.4997 5.00403 19.4757C4.75183 19.4597 4.53156 19.3176 4.31883 19.1951C4.12717 19.083 3.90486 19.0068 3.7347 18.875C3.39995 18.6125 3.21739 18.5687 2.85441 18.8076C2.47233 19.0545 2.11126 19.3964 1.60263 19.1885C0.761938 18.8455 1.12132 17.5857 1.35606 17.0124C1.49835 16.6615 1.7317 16.3475 1.82626 15.9747C1.91843 15.6134 1.59867 14.9979 1.86303 14.7024C1.99123 14.5599 2.49375 14.9657 2.5977 14.8001C2.70165 14.6344 2.48523 14.1368 2.59158 13.9596C2.72302 13.7453 3.25745 14.0249 3.31171 13.8188C3.39549 13.4981 2.96135 13.1547 2.91736 12.9464C2.81512 12.4302 3.25275 12.3637 3.67002 12.3957C3.91545 12.4163 4.16004 12.4971 4.40349 12.4992C4.9083 12.501 4.67887 12.375 4.66919 12.0289C4.66057 11.846 4.79645 11.5542 4.90238 11.407C5.32369 10.8301 6.08271 11.3433 6.55553 11.5559C7.26815 11.8724 7.00378 11.1294 7.52465 10.9414C7.7829 10.8439 8.03305 10.9258 8.26686 11.0587Z" fill="#FFF9E9"/>
<path d="M8.26686 11.0587C8.43864 11.1546 8.60323 11.2853 8.75471 11.3951C8.86087 11.4714 9.17412 11.7535 9.3098 11.7152C9.51272 11.6606 9.437 11.3249 9.67333 11.2773C10.0195 11.204 10.3179 11.5857 10.5772 11.7359C10.6869 11.7949 10.77 11.8422 10.8467 11.9487C10.9147 12.0412 11.0557 12.3421 11.1658 12.3709C11.3373 12.4124 11.4507 11.808 11.5439 11.6945C11.7087 11.4871 12.0058 11.6512 12.1887 11.7494C12.3617 11.8395 12.5494 11.9146 12.712 12.0267C12.8945 12.155 13.0419 12.3123 13.1396 12.5136C13.2318 12.7138 13.298 13.0113 13.5382 13.0851C13.6569 12.8199 13.7244 12.5501 14.0692 12.6516C14.2549 12.7082 14.4538 12.7855 14.6084 12.9081C14.773 13.0387 14.7983 13.2251 14.9144 13.394C15.0248 13.5617 15.2268 13.7363 15.3974 13.838C15.7497 14.0437 15.9247 14.0679 16.2256 13.7921C16.3976 13.6345 16.5878 13.5289 16.8289 13.5426C17.1435 13.5654 17.4779 13.7734 17.6687 14.0303C17.7497 14.1436 17.7368 14.3462 17.8143 14.477C17.9048 14.713 18.7415 14.6265 19.1208 14.8982C19.353 15.067 19.6774 15.3514 19.4909 15.663C19.3463 15.941 20.2733 15.7826 20.642 15.9374C21.0162 16.0933 21.2118 16.2424 21.2634 16.3859C21.3138 16.5352 21.3137 16.7042 21.1629 16.7877C20.9327 17.1144 21.6842 17.0465 21.875 17.2188C22.2312 17.5461 22.3192 17.8783 22.1801 18.3264C22.0796 18.6437 23.0019 18.3395 23.3684 18.6447C23.7847 18.9904 23.8151 19.2926 23.5963 19.7605C23.3705 20.0941 25.5673 20.4218 25.2871 20.6536C25.1636 20.8575 25.1405 20.9131 25.2832 21.0935C25.4589 21.311 25.6227 21.4173 25.5624 21.7369C25.4925 22.1028 24.8714 22.1856 24.8903 22.5155C24.9009 22.7169 25.1837 22.7815 24.9074 22.9658C24.7665 23.0574 24.4623 22.9281 24.3556 23.0509C24.1956 23.2351 24.5291 23.5033 24.6424 23.6294C24.8316 23.8376 25.0935 24.1152 25.0078 24.4174C24.8869 24.8331 24.4466 24.7722 24.143 24.9207C24.3529 25.0004 24.5025 25.4841 24.4594 25.6925C24.4063 25.9773 24.2311 26.2067 23.9291 26.2348C23.6507 26.2617 23.4109 26.0733 23.5793 26.4945C23.6527 26.6727 23.808 26.9886 23.7908 27.1842C23.7402 27.7654 23.0396 27.3065 22.7601 27.1702C23.0657 27.5172 22.9551 28.0799 22.4159 27.8235C22.0564 27.6525 22.0185 27.2462 21.698 27.0833C21.7091 27.0856 21.5399 27.286 21.5097 27.2918C21.419 27.3093 21.2862 27.2214 21.2142 27.1764C21.0647 27.0851 20.7908 26.8654 20.7543 26.6767C20.6973 26.3631 21.3255 25.6841 21.058 25.4053C20.9479 25.292 20.7517 25.4265 20.6264 25.4428C20.4338 25.4754 20.186 25.4664 19.9995 25.3856C19.7263 25.2747 19.8008 25.1392 19.6617 24.9414C19.4535 24.6568 19.0252 24.9304 18.7473 24.6737C18.5379 24.4794 18.3832 24.3569 18.0948 24.2912C17.7273 24.2151 17.318 24.2572 16.9764 24.0839C16.5982 23.891 16.6499 23.473 16.3413 23.2522C16.2308 23.169 16.0972 23.1413 16.0105 23.0268C15.914 22.9042 15.9153 22.7294 15.8064 22.6102C15.6776 22.4749 15.4755 22.4693 15.3025 22.4637C15.106 22.4593 14.9349 22.4722 14.7472 22.3971C14.5273 22.3094 14.3539 22.1648 14.1128 22.2357C13.9143 22.2972 13.8231 22.4293 13.6163 22.2779C13.2414 22.0131 12.9572 21.6464 12.597 21.3667C12.1872 21.0464 11.639 21.0296 11.1774 21.2118C10.6462 21.4219 9.78078 21.6473 9.41492 20.9739C9.2886 20.7425 9.39423 20.4565 9.24761 20.239C9.0835 19.9937 8.68695 19.9177 8.43165 19.8045C8.14533 19.6728 7.88206 19.5701 7.56897 19.5958C7.28492 19.6216 7.01991 19.7237 6.7367 19.6893C6.45229 19.6606 6.25555 19.4328 5.99546 19.3427C5.64746 19.2285 5.35328 19.4997 5.00403 19.4757C4.75183 19.4597 4.53156 19.3176 4.31883 19.1951C4.12717 19.083 3.90486 19.0068 3.7347 18.875C3.39995 18.6125 3.21739 18.5687 2.85441 18.8076C2.47233 19.0545 2.11126 19.3964 1.60263 19.1885C0.761938 18.8455 1.12132 17.5857 1.35606 17.0124C1.49835 16.6615 1.7317 16.3475 1.82626 15.9747C1.91843 15.6134 1.59867 14.9979 1.86303 14.7024C1.99123 14.5599 2.49375 14.9657 2.5977 14.8001C2.70165 14.6344 2.48523 14.1368 2.59158 13.9596C2.72302 13.7453 3.25745 14.0249 3.31171 13.8188C3.39549 13.4981 2.96135 13.1547 2.91736 12.9464C2.81512 12.4302 3.25275 12.3637 3.67002 12.3957C3.91545 12.4163 4.16004 12.4971 4.40349 12.4992C4.9083 12.501 4.67887 12.375 4.66919 12.0289C4.66057 11.846 4.79645 11.5542 4.90238 11.407C5.32369 10.8301 6.08271 11.3433 6.55553 11.5559C7.26815 11.8724 7.00378 11.1294 7.52465 10.9414C7.7829 10.8439 8.03305 10.9258 8.26686 11.0587Z" fill="#F9E9D3"/>
<path d="M24.9864 24.4069C25.0179 24.3108 25.0036 24.2112 24.9759 24.121C24.8494 24.1431 24.7129 24.1571 24.5844 24.1607C24.6933 24.2798 24.8293 24.3804 24.9585 24.4856C24.9688 24.4636 24.9748 24.4347 24.9864 24.4069Z" fill="#FFF9E9"/>
<path d="M23.5566 26.4903C23.2777 26.4628 23.0359 26.3403 22.9948 26.0058C22.9284 25.9618 22.8966 25.919 22.905 25.8785C22.8959 25.8947 22.8811 25.9098 22.872 25.926C22.8218 26.0002 22.7716 26.0743 22.7027 26.1265C22.5356 26.2609 22.3498 26.2889 22.1473 26.2289C21.6323 26.0801 21.8674 25.5612 22.0296 25.2265C22.057 25.1778 22.079 25.128 22.0965 25.0713C22.079 25.0435 22.0727 25.0181 22.0663 24.9926C22.0233 25.032 21.9736 25.076 21.9294 25.1212C21.8072 25.2348 21.683 25.3299 21.5175 25.3439C21.0803 25.3802 20.9513 24.937 21.0546 24.578C21.0885 24.4703 21.1831 24.0975 21.2042 24.1079C21.0041 24.0363 20.9005 24.2563 20.7279 24.3051C20.2949 24.4329 20.0487 23.9111 19.9611 23.5488C19.9262 23.4088 19.6659 23.5723 19.5342 23.5631C19.3445 23.5541 19.1907 23.2868 19.1495 23.1213C19.1094 22.95 19.1889 22.5378 18.9246 22.7488C18.7925 22.8542 18.5438 22.9054 18.3795 22.9137C18.1559 22.9278 17.9261 22.8319 17.9477 22.5587C17.9586 22.4221 18.0295 22.304 18.0738 22.1743C18.1168 22.0503 18.1623 21.8303 18.0218 21.9763C17.8641 22.149 17.6754 22.3877 17.4259 22.4145C17.1419 22.4403 16.821 22.223 16.7548 21.9255C16.7243 21.7924 16.7148 21.6697 16.7313 21.5343C16.7489 21.393 16.7623 21.4682 16.7142 21.4764C16.5666 21.4881 16.4301 21.5021 16.2889 21.5393C15.8874 21.6555 15.4765 21.649 15.3165 21.1872C15.2876 21.1027 15.3452 20.6558 15.2358 20.6513C15.1153 20.6445 14.9752 20.7604 14.8749 20.8242C14.6349 20.9737 14.3937 21.1291 14.1049 21.0935C13.8507 21.059 13.6628 20.7605 13.6674 20.514C13.6714 20.382 13.7244 20.2662 13.7397 20.1365C13.7957 19.7255 13.4434 19.9967 13.3769 20.0373C13.2138 20.1243 13.0395 20.209 12.8505 20.2242C12.5016 20.2546 12.2197 20.1299 12.1209 19.7653C12.0582 19.535 12.124 19.3011 12.2197 19.0915C12.3153 18.8819 11.4541 19.2833 11.4665 19.2798C11.1341 19.4827 10.7764 19.5838 10.4277 19.3607C10.12 19.1642 9.69897 18.8416 9.61852 18.4447C9.54758 18.0859 9.7192 17.8738 9.93578 17.6409C9.69132 17.3911 9.36525 17.2271 9.18091 16.9112C9.02279 16.637 9.1419 16.4262 9.33931 16.2859C9.23513 16.2282 9.11066 16.1843 9.04306 16.1462C8.87128 16.0502 8.6828 15.9509 8.55881 15.7924C8.35572 15.5391 8.4319 15.2832 8.60231 15.0769C8.48269 14.9254 8.44187 14.7298 8.53552 14.5017C8.60367 14.3407 8.69607 14.2028 8.78966 14.0592C8.93224 13.8472 8.93159 13.6539 8.99303 13.413C9.02974 13.2636 9.14483 13.1003 9.29405 13.0527C9.59804 12.9586 9.65026 12.8185 9.74715 12.5186C9.84644 12.2071 10.1306 12.0123 10.4524 12.0849C10.6194 12.1195 10.7956 12.2223 10.9571 12.1712C10.9003 12.081 10.8447 11.985 10.8141 11.9364C10.7374 11.8299 10.6587 11.7895 10.5446 11.7236C10.2785 11.578 9.98685 11.1917 9.6407 11.2649C9.40437 11.3126 9.48009 11.6483 9.27717 11.7029C9.13593 11.7401 8.82944 11.4533 8.72209 11.3828C8.57061 11.273 8.40482 11.1481 8.23424 11.0464C8.00043 10.9135 7.74908 10.8373 7.48646 10.9279C6.96559 11.116 7.23553 11.8601 6.51734 11.5424C6.04452 11.3299 5.2855 10.8166 4.86419 11.3936C4.75826 11.5407 4.62796 11.8337 4.631 12.0155C4.64625 12.3627 4.87012 12.4875 4.36531 12.4857C4.11628 12.4825 3.87727 12.4029 3.63184 12.3823C3.21577 12.3445 2.77693 12.4167 2.87917 12.9329C2.92317 13.1412 3.35731 13.4846 3.27353 13.8054C3.21927 14.0115 2.68483 13.7319 2.5534 13.9462C2.44825 14.1176 2.66467 14.6152 2.55952 14.7866C2.45557 14.9523 1.95305 14.5464 1.82485 14.6889C1.56049 14.9844 1.88025 15.5999 1.78808 15.9612C1.69351 16.3341 1.46573 16.6492 1.31788 16.9989C1.08314 17.5722 0.719386 18.8251 1.53224 19.1624C2.04087 19.3702 2.39637 19.0272 2.78401 18.7814C3.14579 18.5484 3.32955 18.5864 3.6643 18.8488C3.83883 18.9876 4.06114 19.0638 4.24843 19.1689C4.46673 19.2926 4.68143 19.4336 4.93363 19.4495C5.27731 19.4723 5.57149 19.2012 5.92505 19.3166C6.18634 19.4008 6.38188 19.6345 6.66629 19.6631C6.9507 19.6918 7.22128 19.5908 7.49857 19.5697C7.81722 19.5451 8.07492 19.6467 8.36124 19.7784C8.61654 19.8916 9.00753 19.9664 9.1772 20.2128C9.32382 20.4303 9.21819 20.7163 9.34451 20.9478C9.71037 21.6211 10.5758 21.3957 11.107 21.1856C11.5686 21.0034 12.1155 21.026 12.5266 21.3405C12.8868 21.6203 13.1698 21.9928 13.5459 22.2517C13.7538 22.3974 13.845 22.2653 14.0424 22.2095C14.2835 22.1387 14.458 22.2774 14.6768 22.371C14.8645 22.446 15.0355 22.4331 15.232 22.4376C15.4051 22.4432 15.6084 22.443 15.7359 22.5841C15.8449 22.7032 15.8435 22.878 15.9401 23.0006C16.0267 23.1151 16.1604 23.1428 16.2709 23.226C16.5794 23.4468 16.5334 23.8659 16.906 24.0577C17.2475 24.231 17.6569 24.189 18.0244 24.265C18.3084 24.3238 18.4674 24.4533 18.6769 24.6475C18.9548 24.9043 19.3886 24.6318 19.5913 24.9152C19.7359 25.1142 19.6614 25.2497 19.9291 25.3594C20.1168 25.4344 20.3634 25.4493 20.556 25.4166C20.6825 25.3945 20.8775 25.2658 20.9876 25.3792C21.2563 25.6521 20.6324 26.3381 20.6839 26.6506C20.7204 26.8392 20.9943 27.0589 21.1438 27.1502C21.2157 27.1953 21.3485 27.2831 21.4393 27.2657C21.4695 27.2599 21.6387 27.0594 21.6276 27.0571C21.9481 27.22 21.986 27.6263 22.3454 27.7973C22.8847 28.0537 22.9953 27.491 22.6896 27.144C22.9636 27.2792 23.671 27.7335 23.7203 27.1581C23.7853 26.9843 23.6244 26.6673 23.5566 26.4903Z" fill="#FFF9E9"/>
<path d="M22.3346 27.2634C21.7692 26.8808 21.3071 26.6161 20.9946 25.9658L20.9858 25.9519C20.8671 26.2172 20.6934 26.4952 20.7279 26.6653C20.7644 26.854 21.0383 27.0737 21.1878 27.165C21.2598 27.21 21.3926 27.2979 21.4833 27.2804C21.5135 27.2746 21.6827 27.0742 21.6716 27.0719C21.9921 27.2348 22.03 27.6411 22.3894 27.8121C22.7068 27.9622 22.8795 27.8289 22.8992 27.6217C22.694 27.5189 22.4972 27.3755 22.3346 27.2634Z" fill="#F4E2C9"/>
<path d="M20.5582 25.2958C20.3197 25.1016 20.0345 25.0486 19.7545 24.9424C19.5557 24.865 19.3648 24.7772 19.1958 24.6396C19.0126 24.487 18.827 24.2614 18.6003 24.1783C18.2058 24.0363 17.7649 24.1745 17.3772 24.0279C17.0538 23.9067 16.8026 23.6615 16.6811 23.3224C16.4715 22.7357 16.265 22.3307 15.6362 22.1704C15.1999 22.0621 14.7548 22.0243 14.3168 21.9518C13.9346 21.8908 13.5325 21.8137 13.1913 21.6103C12.8191 21.3884 12.5095 21.0889 12.1532 20.8461C11.6089 20.4739 11.0818 20.552 10.4624 20.5144C10.1188 20.4916 9.83004 20.3715 9.59474 20.1054C9.18336 19.6521 8.72601 18.9718 8.03816 19.0408C7.60531 19.0841 7.3336 19.1063 6.93316 18.9088C6.58601 18.7343 6.2591 18.6305 5.8684 18.6945C5.60423 18.7365 5.34443 18.7853 5.07511 18.796C4.54084 18.8243 4.1979 18.3489 3.74375 18.1583C3.17866 17.9146 3.00445 18.3918 2.53095 18.5474C2.2942 18.6252 2.05356 18.5814 1.90257 18.357C1.67051 18.0192 1.75196 17.6255 1.85012 17.2353C1.94228 16.874 1.98686 16.3218 2.2532 16.0448C2.49805 15.7876 2.97641 15.5243 2.89159 15.1204C2.8583 14.9445 2.86358 14.8067 2.87724 14.6284C2.89731 14.3911 3.13371 14.2589 3.34579 14.188C3.8384 14.0243 3.46583 13.2711 3.71673 12.9004C3.89116 12.6467 4.26861 12.7308 4.50967 12.7444C5.22051 12.7889 4.88171 12.097 5.27535 11.8222C5.56749 11.617 5.94374 11.7069 6.25156 11.8189C6.62817 11.9632 6.89072 11.9572 7.24891 11.7415C7.37507 11.665 7.50123 11.5885 7.63374 11.5374C7.86612 11.4526 8.11621 11.6191 8.31943 11.7034C8.60377 11.8166 8.9414 11.9528 9.24504 11.8044C9.47107 11.6942 9.64784 11.5134 9.86393 11.3951C9.90333 11.3731 9.9483 11.3522 9.9865 11.3359C9.88112 11.2839 9.77095 11.2551 9.65557 11.2795C9.41924 11.3272 9.49496 11.6629 9.29204 11.7175C9.1508 11.7547 8.84431 11.4679 8.73695 11.3974C8.58548 11.2875 8.41969 11.1627 8.24911 11.061C8.0153 10.9281 7.76395 10.8519 7.50133 10.9425C6.98046 11.1305 7.2504 11.8746 6.53221 11.557C6.05938 11.3445 5.30037 10.8312 4.87905 11.4082C4.77313 11.5553 4.64282 11.8483 4.64587 12.03C4.66112 12.3773 4.88498 12.5021 4.38017 12.5003C4.13115 12.4971 3.89213 12.4175 3.6467 12.3969C3.23063 12.3591 2.7918 12.4313 2.89404 12.9475C2.93804 13.1558 3.37217 13.4992 3.28839 13.82C3.23413 14.0261 2.6997 13.7465 2.56826 13.9607C2.46311 14.1322 2.67953 14.6298 2.57438 14.8012C2.47043 14.9668 1.96792 14.561 1.83972 14.7035C1.57535 14.999 1.89511 15.6145 1.80294 15.9758C1.70838 16.3487 1.4806 16.6638 1.33274 17.0135C1.098 17.5868 0.73425 18.8397 1.5471 19.1769C2.05573 19.3848 2.41123 19.0418 2.79888 18.796C3.16066 18.5629 3.34442 18.601 3.67917 18.8634C3.8537 19.0022 4.07601 19.0783 4.26329 19.1835C4.48159 19.3071 4.6963 19.4482 4.9485 19.4641C5.29218 19.4869 5.58636 19.2157 5.93992 19.3312C6.20121 19.4154 6.39675 19.6491 6.68116 19.6777C6.96557 19.7064 7.23615 19.6054 7.51344 19.5843C7.83209 19.5596 8.08979 19.6613 8.37611 19.7929C8.63142 19.9061 9.0224 19.981 9.19207 20.2274C9.3387 20.4449 9.23306 20.7309 9.35938 20.9623C9.72525 21.6357 10.5906 21.4103 11.1219 21.2002C11.5835 21.018 12.1304 21.0406 12.5415 21.3551C12.9017 21.6349 13.1847 22.0073 13.5608 22.2663C13.7687 22.4119 13.8599 22.2799 14.0573 22.2241C14.2984 22.1533 14.4729 22.292 14.6916 22.3855C14.8793 22.4606 15.0504 22.4477 15.2469 22.4521C15.42 22.4578 15.6232 22.4576 15.7508 22.5987C15.8597 22.7178 15.8584 22.8926 15.955 23.0152C16.0416 23.1297 16.1753 23.1574 16.2858 23.2406C16.5943 23.4614 16.5482 23.8805 16.9208 24.0723C17.2624 24.2456 17.6718 24.2035 18.0393 24.2796C18.3233 24.3383 18.4823 24.4678 18.6918 24.6621C18.9697 24.9188 19.4035 24.6464 19.6061 24.9298C19.7508 25.1287 19.6763 25.2643 19.9439 25.374C20.1316 25.449 20.3783 25.4638 20.5708 25.4312C20.5943 25.4301 20.6202 25.4173 20.6504 25.4115C20.6409 25.3733 20.6035 25.3293 20.5582 25.2958Z" fill="#F4E2C9"/>
<path d="M25.8361 13.8486C26.3093 15.154 26.6619 15.5831 26.941 17.2649C26.6283 16.8681 26.2848 16.5073 25.7707 16.2137C25.6446 16.2058 25.557 16.3205 25.4928 16.5185C25.385 15.5242 25.3555 14.9928 25.2997 14.1119L25.1797 12.3906L25.8361 13.8486Z" fill="#8E1C25"/>
<path d="M10.887 15.2343L10.8388 15.2424C10.8209 15.2448 10.8042 15.2413 10.7875 15.2378C10.7708 15.2344 10.7541 15.2309 10.7374 15.2275L10.6952 15.2067C10.6698 15.1893 10.6388 15.1708 10.6157 15.1419C10.5915 15.1188 10.5684 15.0899 10.5509 15.0621C10.5335 15.0343 10.516 15.0066 10.4997 14.973C10.489 14.9406 10.4727 14.9071 10.4676 14.8758C10.4568 14.8434 10.4529 14.8064 10.4489 14.7693C10.445 14.7323 10.4466 14.6964 10.455 14.6559C10.4634 14.6153 10.4718 14.5748 10.4968 14.5377C10.5072 14.5157 10.547 14.4636 10.5852 14.4474C10.6258 14.4195 10.674 14.4114 10.7141 14.4136C10.7543 14.4159 10.7933 14.424 10.8311 14.4378C10.8689 14.4517 10.8999 14.4702 10.9253 14.4875C10.9563 14.506 10.9818 14.5234 11.0116 14.5476C11.0669 14.5893 11.1086 14.6402 11.1547 14.698L11.0071 14.7097C11.0187 14.6819 11.0314 14.6483 11.0442 14.6148C11.0569 14.5812 11.0653 14.5406 11.0848 14.5024C11.0988 14.463 11.1127 14.4237 11.139 14.3808C11.1598 14.3368 11.1916 14.2951 11.2334 14.2615C11.2808 14.229 11.3202 14.207 11.3683 14.1988C11.4121 14.1837 11.459 14.1814 11.506 14.179C11.5529 14.1766 11.5975 14.1859 11.6408 14.2009C11.6842 14.2159 11.7319 14.2378 11.7692 14.2818L11.7736 14.2887L11.778 14.2957L11.7867 14.3095L11.8042 14.3373C11.8173 14.3581 11.8292 14.3848 11.8356 14.4102C11.8419 14.4357 11.8495 14.4553 11.8502 14.4797C11.851 14.504 11.8518 14.5283 11.8538 14.5468C11.8525 14.6371 11.8234 14.7216 11.7967 14.7946C11.7353 14.9509 11.6497 15.0842 11.5696 15.2185C11.592 15.1386 11.6187 15.0657 11.6398 14.9916C11.6538 14.9522 11.6665 14.9186 11.6749 14.8781C11.6889 14.8387 11.696 14.804 11.7044 14.7634C11.7116 14.7287 11.72 14.6882 11.7216 14.6523C11.7232 14.6164 11.7249 14.5805 11.7265 14.5446C11.7245 14.5261 11.7213 14.5134 11.7194 14.4948C11.7162 14.4821 11.7086 14.4624 11.7055 14.4497C11.6967 14.4358 11.6979 14.43 11.6892 14.4161L11.6705 14.3942L11.6618 14.3803C11.6618 14.3803 11.6574 14.3733 11.6661 14.3872L11.6606 14.3861C11.6264 14.3549 11.5651 14.3422 11.5003 14.3469C11.4712 14.3469 11.4354 14.3516 11.4096 14.3643C11.3793 14.3702 11.3523 14.3887 11.3375 14.4038C11.3172 14.4177 11.3013 14.4385 11.2897 14.4663C11.2726 14.493 11.2599 14.5266 11.2527 14.5613C11.226 14.6343 11.2048 14.7084 11.1634 14.7964L11.1024 14.9226L11.0214 14.8093C10.9896 14.7665 10.9522 14.7225 10.9069 14.689C10.887 14.6728 10.8627 14.6497 10.8417 14.6393C10.8218 14.6231 10.7951 14.6115 10.7741 14.6011C10.753 14.5907 10.7307 14.5861 10.7084 14.5815C10.6905 14.5839 10.6738 14.5804 10.6603 14.5897L10.648 14.5932L10.6412 14.5978C10.6356 14.5966 10.6265 14.6129 10.6185 14.6233C10.6038 14.6383 10.5934 14.6604 10.5886 14.6835C10.5838 14.7067 10.5779 14.7356 10.5786 14.7599C10.5782 14.79 10.579 14.8143 10.5841 14.8456C10.5901 14.9012 10.6071 14.959 10.6309 15.0122C10.6429 15.0389 10.6548 15.0655 10.6735 15.0875C10.6909 15.1152 10.7096 15.1372 10.7295 15.1534L10.7649 15.1788L10.8015 15.1985L10.8448 15.2135L10.887 15.2343Z" fill="#FFF9E9"/>
<path d="M17.0832 20.453L17.0351 20.4612C17.0172 20.4635 17.0005 20.46 16.9838 20.4566C16.9671 20.4531 16.9504 20.4497 16.9337 20.4462L16.8915 20.4254C16.8661 20.4081 16.8351 20.3896 16.812 20.3607C16.7878 20.3375 16.7647 20.3086 16.7472 20.2808C16.7298 20.2531 16.7123 20.2253 16.696 20.1918C16.6853 20.1594 16.669 20.1258 16.6638 20.0945C16.6531 20.0621 16.6492 20.0251 16.6452 19.9881C16.6413 19.951 16.6429 19.9151 16.6513 19.8746C16.6597 19.8341 16.668 19.7936 16.6931 19.7565C16.7035 19.7345 16.7433 19.6823 16.7815 19.6661C16.8221 19.6383 16.8703 19.6301 16.9104 19.6324C16.9506 19.6347 16.9896 19.6427 17.0274 19.6566C17.0651 19.6704 17.0962 19.6889 17.1216 19.7063C17.1526 19.7248 17.1781 19.7421 17.2079 19.7664C17.2631 19.808 17.3049 19.8589 17.351 19.9167L17.2034 19.9285C17.2149 19.9007 17.2277 19.8671 17.2405 19.8335C17.2532 19.7999 17.2616 19.7594 17.2811 19.7212C17.2951 19.6818 17.309 19.6424 17.3353 19.5996C17.356 19.5555 17.3879 19.5138 17.4297 19.4802C17.477 19.4478 17.5164 19.4257 17.5646 19.4176C17.6084 19.4025 17.6553 19.4001 17.7022 19.3978C17.7492 19.3954 17.7937 19.4046 17.8371 19.4196C17.8804 19.4346 17.9281 19.4566 17.9655 19.5005L17.9699 19.5075L17.9742 19.5144L17.983 19.5283L18.0005 19.5561C18.0136 19.5769 18.0255 19.6035 18.0318 19.629C18.0382 19.6544 18.0457 19.6741 18.0465 19.6984C18.0473 19.7227 18.0481 19.747 18.05 19.7655C18.0488 19.8558 18.0197 19.9404 17.993 20.0133C17.9316 20.1697 17.8459 20.3029 17.7659 20.4373C17.7882 20.3574 17.8149 20.2844 17.8361 20.2103C17.85 20.1709 17.8628 20.1373 17.8712 20.0968C17.8851 20.0574 17.8923 20.0227 17.9007 19.9822C17.9079 19.9474 17.9163 19.9069 17.9179 19.871C17.9195 19.8351 17.9211 19.7992 17.9227 19.7634C17.9208 19.7448 17.9176 19.7321 17.9156 19.7136C17.9124 19.7008 17.9049 19.6812 17.9017 19.6684C17.893 19.6546 17.8942 19.6488 17.8854 19.6349L17.8668 19.6129L17.858 19.599C17.858 19.599 17.8537 19.5921 17.8624 19.606L17.8568 19.6048C17.8226 19.5736 17.7614 19.5609 17.6965 19.5656C17.6675 19.5656 17.6317 19.5703 17.6058 19.5831C17.5756 19.5889 17.5485 19.6074 17.5338 19.6225C17.5135 19.6364 17.4976 19.6573 17.486 19.6851C17.4689 19.7117 17.4561 19.7453 17.4489 19.78C17.4222 19.853 17.4011 19.9271 17.3597 20.0151L17.2987 20.1414L17.2176 20.028C17.1858 19.9852 17.1485 19.9412 17.1032 19.9077C17.0833 19.8915 17.059 19.8684 17.038 19.858C17.0181 19.8418 16.9914 19.8303 16.9704 19.8199C16.9493 19.8095 16.927 19.8049 16.9047 19.8003C16.8868 19.8026 16.8701 19.7991 16.8566 19.8084L16.8443 19.8119L16.8375 19.8165C16.8319 19.8154 16.8228 19.8316 16.8148 19.842C16.8001 19.8571 16.7897 19.8791 16.7849 19.9023C16.7801 19.9254 16.7741 19.9544 16.7749 19.9787C16.7745 20.0088 16.7753 20.0331 16.7804 20.0643C16.7863 20.1199 16.8034 20.1778 16.8272 20.231C16.8391 20.2576 16.8511 20.2842 16.8697 20.3062C16.8872 20.334 16.9059 20.3559 16.9258 20.3721L16.9612 20.3976L16.9977 20.4172L17.0411 20.4322L17.0832 20.453Z" fill="#FFF9E9"/>
<path d="M2.93969 17.244L2.89155 17.2522C2.87365 17.2545 2.85695 17.251 2.84024 17.2476C2.82354 17.2441 2.80683 17.2407 2.79013 17.2372L2.74797 17.2164C2.72253 17.1991 2.69151 17.1806 2.66846 17.1517C2.64421 17.1285 2.62116 17.0996 2.60368 17.0719C2.5862 17.0441 2.56872 17.0163 2.55243 16.9828C2.54172 16.9504 2.52543 16.9168 2.52029 16.8856C2.50957 16.8532 2.50562 16.8161 2.50167 16.7791C2.49772 16.742 2.49934 16.7061 2.50772 16.6656C2.51611 16.6251 2.52449 16.5846 2.54958 16.5475C2.55994 16.5255 2.59976 16.4734 2.63797 16.4571C2.67856 16.4293 2.7267 16.4211 2.76688 16.4234C2.80706 16.4257 2.84604 16.4338 2.88382 16.4476C2.9216 16.4615 2.95261 16.4799 2.97806 16.4973C3.00907 16.5158 3.03452 16.5331 3.06434 16.5574C3.1196 16.599 3.16133 16.6499 3.20743 16.7078L3.05984 16.7195C3.07139 16.6917 3.08415 16.6581 3.0969 16.6245C3.10966 16.5909 3.11804 16.5504 3.13757 16.5122C3.15152 16.4728 3.16547 16.4334 3.19176 16.3906C3.21248 16.3466 3.24434 16.3049 3.28613 16.2712C3.3335 16.2388 3.37289 16.2167 3.42104 16.2086C3.46481 16.1935 3.51175 16.1911 3.55869 16.1888C3.60563 16.1864 3.65018 16.1956 3.69353 16.2106C3.73688 16.2256 3.7846 16.2476 3.82196 16.2915L3.82633 16.2985L3.8307 16.3054L3.83944 16.3193L3.85692 16.3471C3.87003 16.3679 3.88195 16.3945 3.88829 16.42C3.89464 16.4454 3.90218 16.4651 3.90296 16.4894C3.90374 16.5137 3.90451 16.538 3.90649 16.5566C3.90523 16.6469 3.87612 16.7314 3.84941 16.8044C3.78803 16.9607 3.7024 17.0939 3.62234 17.2283C3.64468 17.1484 3.67139 17.0754 3.69253 17.0013C3.70648 16.9619 3.71924 16.9284 3.72762 16.8878C3.74157 16.8485 3.74876 16.8137 3.75715 16.7732C3.76433 16.7385 3.77272 16.6979 3.77434 16.662C3.77596 16.6261 3.77757 16.5903 3.77919 16.5544C3.77722 16.5359 3.77405 16.5231 3.77207 16.5046C3.7689 16.4919 3.76135 16.4722 3.75818 16.4595C3.74944 16.4456 3.75064 16.4398 3.7419 16.4259L3.72322 16.4039L3.71448 16.39C3.71448 16.39 3.71011 16.3831 3.71885 16.397L3.71328 16.3958C3.67909 16.3646 3.61784 16.3519 3.55299 16.3566C3.52395 16.3567 3.48815 16.3613 3.46228 16.3741C3.43204 16.3799 3.40498 16.3985 3.39025 16.4135C3.36995 16.4274 3.35402 16.4483 3.34246 16.4761C3.32534 16.5027 3.31258 16.5363 3.30539 16.5711C3.27869 16.644 3.25755 16.7181 3.21611 16.8061L3.15515 16.9324L3.07408 16.819C3.04229 16.7762 3.00493 16.7323 2.9596 16.6987C2.93973 16.6826 2.91548 16.6594 2.8944 16.649C2.87453 16.6328 2.84788 16.6213 2.82681 16.6109C2.80573 16.6005 2.78346 16.5959 2.76118 16.5913C2.74328 16.5936 2.72657 16.5902 2.71304 16.5994L2.70071 16.6029L2.69394 16.6076C2.68837 16.6064 2.67921 16.6226 2.67125 16.633C2.65652 16.6481 2.64616 16.6701 2.64137 16.6933C2.63657 16.7164 2.63058 16.7454 2.63136 16.7697C2.63094 16.7998 2.63172 16.8241 2.63687 16.8553C2.64279 16.9109 2.65985 16.9688 2.68368 17.022C2.69559 17.0486 2.70751 17.0752 2.72619 17.0972C2.74367 17.125 2.76235 17.147 2.78223 17.1631L2.81761 17.1886L2.85419 17.2082L2.89754 17.2232L2.93969 17.244Z" fill="#F9E9D3"/>
<path d="M6.48407 13.1345L6.46341 13.094C6.46024 13.0813 6.4527 13.0616 6.45072 13.0431C6.44875 13.0245 6.44677 13.006 6.44917 12.9944L6.45438 12.9412C6.46157 12.9065 6.47432 12.8729 6.48588 12.8451C6.50421 12.8126 6.51576 12.7848 6.53846 12.7594C6.55558 12.7327 6.57828 12.7072 6.60654 12.6829C6.62923 12.6574 6.6563 12.6388 6.68456 12.6145C6.71163 12.5959 6.73869 12.5774 6.77132 12.56C6.80396 12.5426 6.83539 12.531 6.87677 12.5275C6.91257 12.5228 6.95395 12.5193 6.99293 12.5274C7.0152 12.532 7.07525 12.5504 7.10387 12.5805C7.13806 12.6117 7.16428 12.6534 7.1726 12.6974C7.18092 12.7413 7.19044 12.7795 7.18762 12.8212C7.186 12.8571 7.18319 12.8988 7.17043 12.9324C7.16324 12.9671 7.15606 13.0018 7.1433 13.0354C7.11779 13.1026 7.08791 13.1628 7.05126 13.2277L6.99289 13.0888C7.02073 13.0946 7.05534 13.0957 7.09552 13.098C7.13013 13.0991 7.1715 13.0956 7.21168 13.0979C7.25185 13.1001 7.29203 13.1024 7.33658 13.1116C7.38112 13.1209 7.43004 13.137 7.47656 13.1648C7.52189 13.1983 7.54931 13.2341 7.57553 13.2758C7.60175 13.3174 7.61684 13.3568 7.63073 13.4019C7.64462 13.4471 7.65294 13.491 7.65449 13.5397C7.65604 13.5883 7.64526 13.6404 7.62215 13.696L7.61975 13.7076L7.61299 13.7122L7.61179 13.718L7.60382 13.7284L7.5867 13.755C7.57197 13.7701 7.54927 13.7956 7.52897 13.8095C7.50868 13.8234 7.48838 13.8373 7.46928 13.8455C7.45018 13.8536 7.42988 13.8675 7.40641 13.8687C7.32563 13.8942 7.23732 13.9001 7.16253 13.8967C7.00183 13.8876 6.85268 13.8507 6.70353 13.8138C6.77951 13.8114 6.8555 13.809 6.93585 13.8136C6.97602 13.8159 7.01183 13.8112 7.04644 13.8123C7.08224 13.8077 7.12242 13.8099 7.15823 13.8053C7.19403 13.8006 7.22984 13.7959 7.26684 13.7855C7.30384 13.775 7.33528 13.7634 7.36672 13.7518C7.38025 13.7425 7.39378 13.7332 7.41168 13.7309C7.42522 13.7216 7.43875 13.7124 7.44671 13.7019C7.45468 13.6915 7.46144 13.6869 7.4706 13.6707L7.48773 13.644L7.49569 13.6336L7.49689 13.6278C7.49569 13.6336 7.49809 13.622 7.49569 13.6336L7.49689 13.6278C7.51641 13.5896 7.50732 13.5213 7.48469 13.4623C7.47397 13.4299 7.45649 13.4021 7.43781 13.3801C7.41913 13.3581 7.39608 13.3292 7.38057 13.32C7.36069 13.3038 7.33842 13.2992 7.30501 13.2923C7.27717 13.2865 7.24256 13.2854 7.20238 13.2831C7.1276 13.2797 7.05042 13.2879 6.96133 13.2695L6.82649 13.2476L6.90296 13.1306C6.93601 13.0831 6.95793 13.0333 6.98104 12.9777C6.9926 12.9499 7.00416 12.9221 7.00895 12.899C7.01494 12.87 7.01973 12.8469 7.02572 12.8179C7.03051 12.7947 7.02417 12.7693 7.02219 12.7508C7.01465 12.7311 7.01148 12.7184 6.99717 12.7033L6.98723 12.6952L6.97729 12.6871C6.97849 12.6813 6.95621 12.6767 6.94508 12.6744C6.92957 12.6652 6.9061 12.6664 6.88263 12.6676C6.85915 12.6687 6.83449 12.6757 6.80982 12.6827C6.78515 12.6896 6.75928 12.7024 6.73341 12.7152C6.68168 12.7407 6.63312 12.7789 6.59569 12.8195C6.5742 12.8392 6.55707 12.8658 6.53558 12.8855C6.51845 12.9122 6.50252 12.933 6.49096 12.9608L6.47581 13.006L6.46623 13.0523L6.46778 13.1009L6.48407 13.1345Z" fill="#F9E9D3"/>
<path d="M6.46878 18.0103L6.42423 18.001C6.40872 17.9918 6.39759 17.9895 6.38208 17.9802C6.36657 17.971 6.35783 17.9571 6.34232 17.9479L6.30934 17.9109C6.29185 17.8831 6.27557 17.8495 6.26485 17.8171C6.25414 17.7847 6.24342 17.7523 6.23947 17.7153C6.23432 17.684 6.23037 17.647 6.23199 17.6111C6.23361 17.5752 6.23523 17.5393 6.24122 17.5104C6.2484 17.4756 6.25559 17.4409 6.26835 17.4073C6.2811 17.3737 6.29386 17.3402 6.31775 17.3089C6.33607 17.2764 6.36553 17.2463 6.39937 17.2231C6.4141 17.2081 6.4726 17.1779 6.51397 17.1744C6.56211 17.1662 6.60546 17.1812 6.64204 17.2009C6.67862 17.2205 6.70844 17.2448 6.73706 17.2749C6.76568 17.305 6.78316 17.3327 6.80621 17.3616C6.82369 17.3894 6.84555 17.4241 6.85746 17.4507C6.88566 17.5109 6.91266 17.5769 6.92732 17.6463L6.79291 17.5943C6.8144 17.5746 6.84267 17.5503 6.86536 17.5248C6.88805 17.4993 6.91751 17.4692 6.94698 17.4391C6.97644 17.4089 7.0059 17.3788 7.04649 17.351C7.08152 17.322 7.12769 17.2953 7.18259 17.2825C7.2375 17.2698 7.28325 17.2732 7.32779 17.2824C7.37234 17.2916 7.41569 17.3066 7.45784 17.3274C7.49999 17.3482 7.53538 17.3736 7.57513 17.406C7.60932 17.4372 7.64111 17.48 7.65817 17.5379L7.66134 17.5506L7.66572 17.5576L7.66452 17.5634L7.66769 17.5761L7.67284 17.6073C7.67361 17.6317 7.67319 17.6618 7.67397 17.6861C7.66918 17.7092 7.66439 17.7324 7.6596 17.7555C7.64924 17.7775 7.64445 17.8007 7.63409 17.8227C7.59385 17.9049 7.54049 17.9663 7.48157 18.0266C7.36493 18.1413 7.23637 18.2294 7.10225 18.3164C7.1556 18.255 7.20775 18.1994 7.2611 18.138C7.29057 18.1078 7.31326 18.0823 7.33715 18.0511C7.36104 18.0198 7.38494 17.9885 7.40763 17.963C7.43152 17.9317 7.44985 17.8993 7.46817 17.8669C7.48649 17.8344 7.49925 17.8008 7.512 17.7673C7.5156 17.7499 7.51919 17.7325 7.52715 17.7221C7.53075 17.7047 7.52758 17.692 7.53117 17.6746C7.528 17.6619 7.53039 17.6503 7.52722 17.6376L7.52207 17.6063L7.5189 17.5936L7.5201 17.5878C7.5201 17.5878 7.51573 17.5809 7.52447 17.5948L7.52566 17.589C7.51058 17.5496 7.45531 17.508 7.40203 17.4849C7.37538 17.4734 7.34197 17.4664 7.31413 17.4607C7.28629 17.4549 7.25048 17.4596 7.23258 17.4619C7.20911 17.4631 7.18881 17.477 7.16055 17.5014C7.13348 17.5199 7.11079 17.5454 7.08809 17.5709C7.03594 17.6265 6.98259 17.6879 6.91253 17.7459L6.80744 17.8328L6.77811 17.6939C6.76542 17.643 6.74836 17.5851 6.72453 17.5319C6.71262 17.5053 6.7007 17.4787 6.68759 17.4578C6.67448 17.437 6.657 17.4092 6.64269 17.3942C6.62958 17.3734 6.6085 17.363 6.59419 17.348C6.57869 17.3387 6.56198 17.3353 6.54528 17.3318L6.53414 17.3295L6.5218 17.333C6.51624 17.3318 6.5027 17.3411 6.48917 17.3504C6.47007 17.3585 6.45534 17.3736 6.43941 17.3944C6.42348 17.4153 6.40756 17.4361 6.396 17.4639C6.38564 17.4859 6.37408 17.5137 6.36809 17.5427C6.35055 17.5994 6.34414 17.6585 6.34329 17.7187C6.34287 17.7487 6.34802 17.78 6.3476 17.8101C6.35275 17.8414 6.35909 17.8668 6.37101 17.8934L6.39166 17.9339L6.41908 17.9698L6.45327 18.001L6.46878 18.0103Z" fill="#F9E9D3"/>
<path d="M20.2385 22.8261L20.1904 22.8342C20.1725 22.8365 20.1558 22.8331 20.1391 22.8296C20.1224 22.8262 20.1057 22.8227 20.0889 22.8193L20.0468 22.7985C20.0214 22.7811 19.9903 22.7626 19.9673 22.7337C19.943 22.7106 19.92 22.6817 19.9025 22.6539C19.885 22.6261 19.8675 22.5984 19.8513 22.5648C19.8405 22.5324 19.8243 22.4988 19.8191 22.4676C19.8084 22.4352 19.8044 22.3982 19.8005 22.3611C19.7965 22.3241 19.7982 22.2882 19.8066 22.2477C19.8149 22.2071 19.8233 22.1666 19.8484 22.1295C19.8588 22.1075 19.8986 22.0554 19.9368 22.0391C19.9774 22.0113 20.0255 22.0032 20.0657 22.0054C20.1059 22.0077 20.1449 22.0158 20.1826 22.0296C20.2204 22.0435 20.2514 22.062 20.2769 22.0793C20.3079 22.0978 20.3333 22.1152 20.3632 22.1394C20.4184 22.1811 20.4602 22.2319 20.5063 22.2898L20.3587 22.3015C20.3702 22.2737 20.383 22.2401 20.3957 22.2065C20.4085 22.173 20.4169 22.1324 20.4364 22.0942C20.4503 22.0548 20.4643 22.0155 20.4906 21.9726C20.5113 21.9286 20.5432 21.8869 20.585 21.8533C20.6323 21.8208 20.6717 21.7988 20.7199 21.7906C20.7636 21.7755 20.8106 21.7732 20.8575 21.7708C20.9045 21.7684 20.949 21.7777 20.9923 21.7927C21.0357 21.8077 21.0834 21.8296 21.1208 21.8736L21.1251 21.8805L21.1295 21.8875L21.1383 21.9013L21.1557 21.9291C21.1688 21.9499 21.1808 21.9765 21.1871 22.002C21.1935 22.0275 21.201 22.0471 21.2018 22.0714C21.2026 22.0958 21.2033 22.1201 21.2053 22.1386C21.204 22.2289 21.1749 22.3134 21.1482 22.3864C21.0868 22.5427 21.0012 22.6759 20.9212 22.8103C20.9435 22.7304 20.9702 22.6575 20.9913 22.5833C21.0053 22.544 21.0181 22.5104 21.0264 22.4699C21.0404 22.4305 21.0476 22.3957 21.056 22.3552C21.0631 22.3205 21.0715 22.28 21.0732 22.2441C21.0748 22.2082 21.0764 22.1723 21.078 22.1364C21.076 22.1179 21.0729 22.1051 21.0709 22.0866C21.0677 22.0739 21.0602 22.0542 21.057 22.0415C21.0483 22.0276 21.0495 22.0218 21.0407 22.0079L21.022 21.986L21.0133 21.9721C21.0133 21.9721 21.0089 21.9651 21.0177 21.979L21.0121 21.9779C20.9779 21.9466 20.9167 21.934 20.8518 21.9387C20.8228 21.9387 20.787 21.9434 20.7611 21.9561C20.7309 21.9619 20.7038 21.9805 20.6891 21.9956C20.6688 22.0095 20.6528 22.0303 20.6413 22.0581C20.6242 22.0848 20.6114 22.1183 20.6042 22.1531C20.5775 22.226 20.5564 22.3002 20.5149 22.3882L20.454 22.5144L20.3729 22.4011C20.3411 22.3583 20.3038 22.3143 20.2584 22.2808C20.2386 22.2646 20.2143 22.2415 20.1932 22.2311C20.1733 22.2149 20.1467 22.2033 20.1256 22.1929C20.1046 22.1825 20.0823 22.1779 20.06 22.1733C20.0421 22.1756 20.0254 22.1722 20.0119 22.1815L19.9995 22.1849L19.9928 22.1896C19.9872 22.1884 19.978 22.2046 19.9701 22.2151C19.9553 22.2301 19.945 22.2521 19.9402 22.2753C19.9354 22.2985 19.9294 22.3274 19.9302 22.3517C19.9298 22.3818 19.9305 22.4061 19.9357 22.4374C19.9416 22.4929 19.9587 22.5508 19.9825 22.604C19.9944 22.6306 20.0063 22.6573 20.025 22.6792C20.0425 22.707 20.0612 22.729 20.0811 22.7452L20.1164 22.7706L20.153 22.7902L20.1964 22.8053L20.2385 22.8261Z" fill="#FFF9E9"/>
<path d="M13.1824 18.3972L13.163 18.3509C13.161 18.3324 13.1578 18.3196 13.1559 18.3011C13.1539 18.2826 13.1575 18.2652 13.1611 18.2479L13.1718 18.1958C13.1846 18.1622 13.1962 18.1344 13.2145 18.1019C13.2316 18.0753 13.2555 18.044 13.277 18.0243C13.2997 17.9988 13.328 17.9745 13.3495 17.9548C13.3765 17.9362 13.4036 17.9177 13.4362 17.9003C13.4688 17.8829 13.4947 17.8701 13.5317 17.8597C13.5632 17.8481 13.599 17.8434 13.6403 17.8399C13.6761 17.8352 13.7151 17.8433 13.7585 17.8583C13.7807 17.8629 13.8384 17.8929 13.8603 17.9276C13.8944 17.9589 13.9071 18.0098 13.9166 18.048C13.925 18.092 13.9221 18.1337 13.915 18.1684C13.9066 18.2089 13.8994 18.2437 13.8866 18.2772C13.8739 18.3108 13.8611 18.3444 13.8428 18.3768C13.8117 18.4429 13.7775 18.4961 13.7309 18.5529L13.6916 18.4059C13.7195 18.4117 13.7529 18.4186 13.7918 18.4267C13.8253 18.4336 13.8654 18.4359 13.9044 18.4439C13.9434 18.452 13.9836 18.4543 14.0269 18.4693C14.0703 18.4843 14.118 18.5062 14.1565 18.5444C14.1951 18.5825 14.2213 18.6242 14.242 18.6647C14.2626 18.7052 14.2765 18.7503 14.2836 18.8001C14.292 18.8441 14.2935 18.8927 14.2895 18.9402C14.2855 18.9876 14.2679 19.0444 14.2361 19.0861L14.2281 19.0965L14.2213 19.1012L14.2202 19.1069L14.2122 19.1174L14.1907 19.1371C14.176 19.1521 14.1489 19.1707 14.1286 19.1846C14.1095 19.1927 14.0836 19.2055 14.0645 19.2136C14.0454 19.2217 14.0208 19.2287 14.0029 19.231C13.9177 19.2496 13.833 19.2381 13.7538 19.2278C13.5967 19.2013 13.4524 19.1413 13.3124 19.0882C13.3872 19.0916 13.4651 19.1077 13.5399 19.1111C13.5801 19.1134 13.6135 19.1203 13.6537 19.1226C13.6938 19.1248 13.7285 19.126 13.7631 19.1271C13.7977 19.1282 13.839 19.1247 13.8693 19.1189C13.9051 19.1142 13.9353 19.1084 13.9723 19.0979C13.9902 19.0956 14.0038 19.0863 14.0161 19.0828C14.0296 19.0736 14.0432 19.0643 14.0555 19.0608C14.0635 19.0504 14.0702 19.0457 14.0838 19.0365L14.0997 19.0156L14.1077 19.0052L14.1088 18.9994C14.1088 18.9994 14.1156 18.9948 14.1021 19.004L14.1033 18.9982C14.1228 18.96 14.126 18.8882 14.109 18.8304C14.1038 18.7991 14.0875 18.7656 14.0756 18.739C14.0637 18.7123 14.0407 18.6834 14.0252 18.6742C14.0109 18.6591 13.9842 18.6476 13.9564 18.6418C13.9297 18.6303 13.8951 18.6292 13.8561 18.6211C13.7826 18.6119 13.7078 18.6085 13.6211 18.5785L13.4898 18.5393L13.5818 18.4315C13.6192 18.391 13.6467 18.3423 13.6754 18.2879C13.687 18.2601 13.7029 18.2392 13.7144 18.2114C13.726 18.1836 13.7364 18.1616 13.7356 18.1373C13.7404 18.1142 13.7396 18.0898 13.7444 18.0667C13.7424 18.0482 13.7349 18.0285 13.7249 18.0204L13.7162 18.0065L13.7062 17.9984C13.7074 17.9926 13.6907 17.9892 13.6752 17.9799C13.6597 17.9707 13.6375 17.9661 13.614 17.9673C13.5905 17.9684 13.5615 17.9685 13.5368 17.9754C13.5121 17.9824 13.4819 17.9882 13.456 18.001C13.4055 18.0207 13.3526 18.052 13.3052 18.0845C13.2781 18.103 13.2622 18.1239 13.2407 18.1436C13.2192 18.1633 13.2021 18.1899 13.185 18.2166L13.1654 18.2548L13.1503 18.3L13.1463 18.3474L13.1824 18.3972Z" fill="#FFF9E9"/>
<path d="M20.0574 18.5397L20.038 18.4935C20.036 18.4749 20.0328 18.4622 20.0309 18.4437C20.0289 18.4252 20.0325 18.4078 20.0361 18.3904L20.0469 18.3383C20.0596 18.3047 20.0712 18.2769 20.0895 18.2445C20.1066 18.2179 20.1305 18.1866 20.152 18.1669C20.1747 18.1414 20.203 18.1171 20.2245 18.0974C20.2515 18.0788 20.2786 18.0603 20.3112 18.0429C20.3439 18.0255 20.3697 18.0127 20.4067 18.0023C20.4382 17.9906 20.474 17.986 20.5154 17.9825C20.5512 17.9778 20.5901 17.9859 20.6335 18.0009C20.6558 18.0055 20.7134 18.0355 20.7353 18.0702C20.7695 18.1015 20.7822 18.1524 20.7917 18.1906C20.8 18.2346 20.7972 18.2762 20.79 18.311C20.7816 18.3515 20.7744 18.3862 20.7617 18.4198C20.7489 18.4534 20.7362 18.487 20.7178 18.5194C20.6868 18.5854 20.6525 18.6387 20.6059 18.6955L20.5666 18.5485C20.5945 18.5543 20.6279 18.5612 20.6669 18.5692C20.7003 18.5762 20.7405 18.5784 20.7795 18.5865C20.8184 18.5946 20.8586 18.5968 20.902 18.6118C20.9453 18.6268 20.993 18.6488 21.0316 18.687C21.0702 18.7251 21.0964 18.7668 21.117 18.8073C21.1377 18.8478 21.1516 18.8929 21.1587 18.9427C21.167 18.9867 21.1686 19.0353 21.1646 19.0827C21.1606 19.1302 21.143 19.1869 21.1111 19.2287L21.1032 19.2391L21.0964 19.2437L21.0952 19.2495L21.0873 19.2599L21.0658 19.2796C21.051 19.2947 21.024 19.3132 21.0037 19.3272C20.9846 19.3353 20.9587 19.348 20.9396 19.3562C20.9205 19.3643 20.8958 19.3713 20.8779 19.3736C20.7928 19.3922 20.708 19.3807 20.6289 19.3704C20.4718 19.3439 20.3274 19.2838 20.1874 19.2307C20.2622 19.2341 20.3402 19.2502 20.4149 19.2536C20.4551 19.2559 20.4885 19.2628 20.5287 19.2651C20.5689 19.2674 20.6035 19.2685 20.6381 19.2696C20.6727 19.2708 20.7141 19.2672 20.7443 19.2614C20.7801 19.2568 20.8104 19.2509 20.8474 19.2405C20.8653 19.2382 20.8788 19.2289 20.8912 19.2254C20.9047 19.2161 20.9182 19.2068 20.9306 19.2034C20.9385 19.1929 20.9453 19.1883 20.9588 19.179L20.9747 19.1582L20.9827 19.1477L20.9839 19.142C20.9839 19.142 20.9907 19.1373 20.9771 19.1466L20.9783 19.1408C20.9979 19.1026 21.0011 19.0308 20.984 18.9729C20.9789 18.9417 20.9626 18.9081 20.9507 18.8815C20.9388 18.8549 20.9157 18.826 20.9002 18.8167C20.8859 18.8017 20.8593 18.7902 20.8314 18.7844C20.8048 18.7728 20.7702 18.7717 20.7312 18.7637C20.6576 18.7545 20.5828 18.7511 20.4961 18.7211L20.3649 18.6818L20.4568 18.5741C20.4943 18.5335 20.5217 18.4849 20.5504 18.4304C20.562 18.4026 20.5779 18.3818 20.5895 18.354C20.601 18.3262 20.6114 18.3042 20.6106 18.2799C20.6154 18.2567 20.6146 18.2324 20.6194 18.2093C20.6174 18.1907 20.6099 18.1711 20.6 18.163L20.5912 18.1491L20.5813 18.141C20.5825 18.1352 20.5658 18.1318 20.5503 18.1225C20.5347 18.1133 20.5125 18.1087 20.489 18.1098C20.4655 18.111 20.4365 18.111 20.4118 18.118C20.3871 18.125 20.3569 18.1308 20.331 18.1436C20.2805 18.1633 20.2276 18.1946 20.1802 18.2271C20.1531 18.2456 20.1372 18.2665 20.1157 18.2862C20.0942 18.3059 20.0771 18.3325 20.06 18.3591L20.0404 18.3974L20.0253 18.4425L20.0213 18.49L20.0574 18.5397Z" fill="#FFF9E9"/>
<path d="M15.8377 16.5066L15.8183 16.4603C15.8163 16.4417 15.8131 16.429 15.8111 16.4105C15.8092 16.392 15.8127 16.3746 15.8163 16.3572L15.8271 16.3051C15.8399 16.2715 15.8514 16.2438 15.8698 16.2113C15.8869 16.1847 15.9108 16.1534 15.9323 16.1337C15.955 16.1082 15.9832 16.0839 16.0047 16.0642C16.0318 16.0456 16.0589 16.0271 16.0915 16.0097C16.1241 15.9923 16.15 15.9795 16.187 15.969C16.2184 15.9574 16.2542 15.9528 16.2956 15.9493C16.3314 15.9446 16.3704 15.9527 16.4137 15.9677C16.436 15.9723 16.4937 16.0023 16.5155 16.037C16.5497 16.0682 16.5624 16.1192 16.5719 16.1574C16.5802 16.2013 16.5774 16.243 16.5702 16.2778C16.5618 16.3183 16.5546 16.353 16.5419 16.3866C16.5291 16.4202 16.5164 16.4538 16.4981 16.4862C16.467 16.5522 16.4327 16.6055 16.3861 16.6623L16.3469 16.5153C16.3747 16.5211 16.4081 16.528 16.4471 16.536C16.4805 16.543 16.5207 16.5452 16.5597 16.5533C16.5986 16.5614 16.6388 16.5636 16.6822 16.5786C16.7255 16.5936 16.7732 16.6156 16.8118 16.6538C16.8503 16.6919 16.8766 16.7336 16.8972 16.7741C16.9179 16.8146 16.9318 16.8597 16.9389 16.9095C16.9472 16.9534 16.9488 17.0021 16.9447 17.0495C16.9407 17.097 16.9232 17.1537 16.8913 17.1955L16.8834 17.2059L16.8766 17.2105L16.8754 17.2163L16.8674 17.2267L16.8459 17.2464C16.8312 17.2615 16.8041 17.2801 16.7838 17.294C16.7647 17.3021 16.7389 17.3148 16.7198 17.323C16.7007 17.3311 16.676 17.3381 16.6581 17.3404C16.573 17.359 16.4882 17.3475 16.4091 17.3372C16.252 17.3107 16.1076 17.2507 15.9676 17.1975C16.0424 17.2009 16.1204 17.2171 16.1952 17.2205C16.2353 17.2227 16.2688 17.2297 16.3089 17.2319C16.3491 17.2342 16.3837 17.2353 16.4183 17.2365C16.4529 17.2376 16.4943 17.2341 16.5245 17.2282C16.5603 17.2236 16.5906 17.2178 16.6276 17.2073C16.6455 17.205 16.659 17.1957 16.6713 17.1922C16.6849 17.1829 16.6984 17.1737 16.7107 17.1702C16.7187 17.1597 16.7255 17.1551 16.739 17.1458L16.7549 17.125L16.7629 17.1145L16.7641 17.1088C16.7641 17.1088 16.7709 17.1041 16.7573 17.1134L16.7585 17.1076C16.778 17.0694 16.7813 16.9976 16.7642 16.9397C16.7591 16.9085 16.7428 16.8749 16.7309 16.8483C16.719 16.8217 16.6959 16.7928 16.6804 16.7835C16.6661 16.7685 16.6395 16.757 16.6116 16.7512C16.585 16.7396 16.5504 16.7385 16.5114 16.7305C16.4378 16.7213 16.363 16.7179 16.2763 16.6879L16.1451 16.6486L16.2371 16.5409C16.2745 16.5003 16.302 16.4517 16.3307 16.3972C16.3422 16.3694 16.3581 16.3486 16.3697 16.3208C16.3813 16.293 16.3916 16.271 16.3908 16.2467C16.3956 16.2235 16.3949 16.1992 16.3996 16.1761C16.3977 16.1575 16.3901 16.1379 16.3802 16.1298L16.3714 16.1159L16.3615 16.1078C16.3627 16.102 16.346 16.0985 16.3305 16.0893C16.315 16.0801 16.2927 16.0754 16.2692 16.0766C16.2458 16.0778 16.2167 16.0778 16.1921 16.0848C16.1674 16.0918 16.1372 16.0976 16.1113 16.1104C16.0608 16.1301 16.0078 16.1614 15.9605 16.1939C15.9334 16.2124 15.9175 16.2333 15.896 16.253C15.8745 16.2727 15.8574 16.2993 15.8402 16.326L15.8207 16.3642L15.8056 16.4093L15.8015 16.4568L15.8377 16.5066Z" fill="#FFF9E9"/>
<path d="M22.9207 21.3405L22.9013 21.2943C22.8993 21.2757 22.8961 21.263 22.8941 21.2445C22.8922 21.226 22.8958 21.2086 22.8993 21.1912L22.9101 21.1391C22.9229 21.1055 22.9344 21.0777 22.9528 21.0453C22.9699 21.0187 22.9938 20.9874 23.0153 20.9677C23.038 20.9422 23.0662 20.9178 23.0877 20.8981C23.1148 20.8796 23.1419 20.861 23.1745 20.8437C23.2071 20.8263 23.233 20.8135 23.27 20.803C23.3015 20.7914 23.3373 20.7868 23.3786 20.7833C23.4144 20.7786 23.4534 20.7866 23.4968 20.8017C23.519 20.8063 23.5767 20.8363 23.5986 20.871C23.6328 20.9022 23.6454 20.9532 23.655 20.9914C23.6633 21.0353 23.6605 21.077 23.6533 21.1118C23.6449 21.1523 23.6377 21.187 23.625 21.2206C23.6122 21.2542 23.5994 21.2878 23.5811 21.3202C23.55 21.3862 23.5158 21.4395 23.4692 21.4963L23.4299 21.3493C23.4578 21.3551 23.4912 21.362 23.5302 21.37C23.5636 21.3769 23.6037 21.3792 23.6427 21.3873C23.6817 21.3954 23.7219 21.3976 23.7652 21.4126C23.8086 21.4276 23.8563 21.4496 23.8949 21.4878C23.9334 21.5259 23.9597 21.5676 23.9803 21.6081C24.001 21.6486 24.0149 21.6937 24.022 21.7435C24.0303 21.7875 24.0319 21.8361 24.0278 21.8835C24.0238 21.931 24.0063 21.9878 23.9744 22.0295L23.9665 22.0399L23.9597 22.0445L23.9585 22.0503L23.9505 22.0607L23.929 22.0804C23.9143 22.0955 23.8872 22.1141 23.8669 22.128C23.8478 22.1361 23.822 22.1489 23.8029 22.157C23.7838 22.1651 23.7591 22.1721 23.7412 22.1744C23.656 22.193 23.5713 22.1815 23.4922 22.1712C23.335 22.1447 23.1907 22.0846 23.0507 22.0315C23.1255 22.0349 23.2034 22.0511 23.2782 22.0545C23.3184 22.0567 23.3518 22.0636 23.392 22.0659C23.4322 22.0682 23.4668 22.0693 23.5014 22.0704C23.536 22.0716 23.5774 22.0681 23.6076 22.0622C23.6434 22.0576 23.6737 22.0518 23.7107 22.0413C23.7286 22.039 23.7421 22.0297 23.7544 22.0262C23.768 22.0169 23.7815 22.0077 23.7938 22.0042C23.8018 21.9937 23.8086 21.9891 23.8221 21.9798L23.838 21.959L23.846 21.9486L23.8472 21.9428C23.8472 21.9428 23.854 21.9381 23.8404 21.9474L23.8416 21.9416C23.8611 21.9034 23.8644 21.8316 23.8473 21.7737C23.8422 21.7425 23.8259 21.7089 23.814 21.6823C23.8021 21.6557 23.779 21.6268 23.7635 21.6175C23.7492 21.6025 23.7225 21.591 23.6947 21.5852C23.668 21.5736 23.6334 21.5725 23.5945 21.5645C23.5209 21.5553 23.4461 21.5519 23.3594 21.5219L23.2281 21.4826L23.3201 21.3749C23.3575 21.3343 23.385 21.2857 23.4137 21.2312C23.4253 21.2034 23.4412 21.1826 23.4527 21.1548C23.4643 21.127 23.4747 21.105 23.4739 21.0807C23.4787 21.0575 23.4779 21.0332 23.4827 21.01C23.4807 20.9915 23.4732 20.9719 23.4632 20.9638L23.4545 20.9499L23.4446 20.9418C23.4458 20.936 23.429 20.9325 23.4135 20.9233C23.398 20.914 23.3758 20.9094 23.3523 20.9106C23.3288 20.9118 23.2998 20.9118 23.2751 20.9188C23.2504 20.9258 23.2202 20.9316 23.1943 20.9443C23.1438 20.9641 23.0908 20.9954 23.0435 21.0278C23.0164 21.0464 23.0005 21.0673 22.979 21.087C22.9575 21.1067 22.9404 21.1333 22.9232 21.1599L22.9037 21.1982L22.8886 21.2433L22.8846 21.2908L22.9207 21.3405Z" fill="#FFF9E9"/>
<path d="M35.4512 23.5046C35.4425 23.4907 35.4337 23.4769 35.425 23.463C35.3082 23.2698 35.0143 23.2029 34.8839 23.019C34.841 22.9739 34.8983 22.9495 34.9162 22.9472C35.2501 22.7929 35.5439 22.4673 35.5628 22.1512C35.5778 21.8826 35.2452 21.8621 35.3647 21.6212C35.599 21.1626 35.1429 20.9535 34.8473 21.007C34.6233 21.0512 34.1835 21.3527 34.1346 21.252C34.1064 21.1918 34.003 20.6814 33.9792 20.6282C33.8894 20.4164 33.7499 20.2487 33.5435 20.1517C33.1475 19.961 32.9145 20.2449 32.7388 20.5889C32.7376 20.5947 32.568 20.2638 32.5573 20.2314C32.4771 20.0578 32.3718 19.9213 32.1952 19.8485C31.7888 19.6799 31.6031 20.1003 31.468 20.4165C31.4461 20.4663 31.2061 20.0544 31.193 20.0336C31.0996 19.9237 30.9278 19.8278 30.791 19.7874C30.4048 19.6894 30.0895 20.0347 30.152 20.434C30.2138 20.8091 29.9435 20.572 29.7351 20.541C29.5835 20.5156 29.4522 20.5609 29.3554 20.6918C29.1926 20.9177 29.2858 21.1966 29.4384 21.3852C29.5493 21.5228 29.7783 21.6789 29.4641 21.626C29.3571 21.6099 29.2605 21.5717 29.1531 21.5857C28.9864 21.6056 28.8486 21.7099 28.8059 21.8882C28.7632 22.0666 28.8323 22.2378 28.9579 22.3604C29.0967 22.5038 29.4789 22.5648 29.2214 22.7711C29.0383 22.9264 28.7004 23.1282 28.6731 23.4003C28.6459 23.6723 28.8841 23.7277 29.0634 23.8433C29.3346 24.0201 29.1864 24.2309 29.0482 24.4499C28.9523 24.6051 28.9143 24.7603 28.9822 24.9373C29.0596 25.1526 29.2321 25.3573 29.4365 25.4358C29.7432 25.5536 29.852 25.2803 30.1154 25.214C30.3239 25.1606 30.3977 25.3932 30.4839 25.5378C30.5745 25.6894 30.6595 25.8398 30.7986 25.9531C30.9378 26.0664 31.1354 26.1495 31.3161 26.0903C31.5719 26.0044 31.6798 25.3988 31.9872 25.5409C32.1626 25.6195 32.2228 25.8614 32.397 25.9457C32.702 26.0994 33.1725 25.762 33.0347 25.3894C32.9904 25.1266 33.3171 25.484 33.3699 25.5372C33.4813 25.6448 33.6109 25.7199 33.7704 25.7348C33.9868 25.7554 34.2371 25.6683 34.4023 25.5154C34.6523 25.2894 34.4778 25.0661 34.3336 24.837C34.268 24.7329 34.2283 24.7005 34.3512 24.6958C34.5099 24.6864 34.6558 24.7951 34.8305 24.7648C34.9872 24.7368 35.152 24.614 35.2532 24.49C35.4566 24.2363 35.6177 23.8228 35.4512 23.5046Z" fill="#FFF9E9"/>
<path d="M35.4512 23.5054C35.4425 23.4915 35.4337 23.4776 35.425 23.4638C35.3606 23.3538 35.2354 23.2857 35.1224 23.214C34.8495 23.3266 34.4874 23.3362 34.2705 23.5147C34.0659 23.6897 34.2246 24.2417 34.0927 24.4861C33.8119 25.0016 33.3321 25.0472 32.8804 24.7605C32.6955 24.6438 32.5727 24.4795 32.5009 24.2654C32.4549 24.1231 32.425 23.6219 32.5229 23.5697C32.2225 23.7309 31.8544 23.854 31.6204 23.4977C31.558 23.4063 31.5091 23.3056 31.4806 23.191C31.4441 23.0024 31.4425 23.0382 31.2642 23.0859C31.1162 23.1277 30.9638 23.1626 30.8358 23.0516C30.6009 22.84 30.8213 22.3362 30.3976 22.2787C30.1546 22.2465 29.9928 22.1587 29.8561 21.9493C29.7456 21.7816 29.7378 21.5385 29.744 21.3405C29.747 21.0453 29.707 20.7895 29.5584 20.5535C29.4788 20.5733 29.4112 20.6196 29.3542 20.6984C29.1913 20.9243 29.2846 21.2032 29.4372 21.3918C29.5481 21.5294 29.7771 21.6855 29.4629 21.6325C29.3559 21.6164 29.2593 21.5783 29.1518 21.5923C28.9851 21.6122 28.8474 21.7165 28.8047 21.8948C28.762 22.0731 28.8311 22.2444 28.9567 22.367C29.0954 22.5104 29.4777 22.5714 29.2202 22.7777C29.037 22.933 28.6992 23.1347 28.6719 23.4068C28.6446 23.6789 28.8829 23.7342 29.0622 23.8498C29.3334 24.0267 29.1852 24.2375 29.047 24.4564C28.951 24.6117 28.9131 24.7668 28.981 24.9439C29.0584 25.1591 29.2309 25.3638 29.4353 25.4424C29.7419 25.5601 29.8507 25.2868 30.1141 25.2206C30.3226 25.1671 30.3964 25.3997 30.4827 25.5443C30.5732 25.6959 30.6583 25.8463 30.7974 25.9596C30.9366 26.0729 31.1342 26.1561 31.3148 26.0969C31.5707 26.0109 31.6786 25.4054 31.986 25.5475C32.1613 25.626 32.2216 25.8679 32.3958 25.9522C32.7008 26.1059 33.1713 25.7686 33.0335 25.3959C32.9891 25.1332 33.3159 25.4906 33.3687 25.5438C33.48 25.6513 33.6097 25.7264 33.7692 25.7413C33.9856 25.762 34.2358 25.6749 34.4011 25.5219C34.651 25.2959 34.4766 25.0727 34.3323 24.8436C34.2668 24.7395 34.227 24.7071 34.35 24.7024C34.5087 24.6929 34.6546 24.8016 34.8293 24.7713C34.986 24.7434 35.1508 24.6205 35.2519 24.4966C35.4566 24.237 35.6176 23.8236 35.4512 23.5054Z" fill="#F9E9D3"/>
<path d="M28.8008 22.0254C28.809 22.1539 28.8698 22.2812 28.9613 22.3725C29.0571 22.4708 29.2663 22.5262 29.304 22.6246C29.2744 22.3468 29.0649 22.1525 28.8008 22.0254Z" fill="#F9E9D3"/>
<path d="M32.6137 25.9361C32.4933 25.7603 32.4171 25.5393 32.2764 25.3773C32.0808 25.1437 31.9223 25.3765 31.783 25.5167C31.605 25.7033 31.4601 25.8424 31.2083 25.8808C30.9083 25.9274 30.8001 25.4402 30.665 25.2794C30.3915 24.9451 30.0951 25.0588 29.7582 25.0314C29.6611 25.0234 29.4881 24.9333 29.4381 24.8384C29.2355 24.4704 29.5982 24.0927 29.3944 23.7306C29.2668 23.5049 29.1246 23.2944 29.2378 23.028C29.2944 22.8948 29.3127 22.7779 29.312 22.6691C29.3048 22.7038 29.2798 22.7409 29.23 22.7849C29.0469 22.9402 28.709 23.142 28.6817 23.4141C28.6545 23.6861 28.8927 23.7415 29.072 23.8571C29.3432 24.0339 29.1951 24.2448 29.0569 24.4637C28.9609 24.6189 28.923 24.7741 28.9909 24.9511C29.0683 25.1664 29.2407 25.3711 29.4452 25.4496C29.7518 25.5674 29.8606 25.2941 30.124 25.2278C30.3325 25.1744 30.4063 25.407 30.4925 25.5516C30.5831 25.7032 30.6681 25.8536 30.8072 25.9669C30.9464 26.0802 31.144 26.1633 31.3247 26.1041C31.5805 26.0182 31.6884 25.4126 31.9958 25.5547C32.1712 25.6333 32.2315 25.8752 32.4056 25.9595C32.4844 25.9999 32.5758 26.0068 32.661 25.9882C32.6411 25.972 32.6268 25.957 32.6137 25.9361Z" fill="#F4E2C9"/>
<path d="M33.9908 22.1155L33.9678 22.0866C33.9646 22.0738 33.9547 22.0657 33.9515 22.053C33.9452 22.0276 33.9388 22.0021 33.9392 21.972C33.9385 21.9477 33.9444 21.9187 33.9504 21.8898C33.9564 21.8608 33.9668 21.8388 33.9783 21.811C34.0003 21.7612 34.0321 21.7195 34.0695 21.679C34.091 21.6593 34.107 21.6384 34.1328 21.6257C34.1543 21.606 34.1802 21.5932 34.2116 21.5816C34.2431 21.57 34.2733 21.5642 34.3079 21.5653C34.3202 21.5618 34.3815 21.5745 34.4069 21.5918C34.4435 21.6115 34.4654 21.6462 34.4829 21.674C34.4992 21.7075 34.5043 21.7388 34.5094 21.77C34.5146 21.8013 34.5142 21.8314 34.5138 21.8615C34.5133 21.8916 34.5073 21.9205 34.5026 21.9437C34.4918 21.9958 34.4742 22.0525 34.4523 22.1023L34.3736 21.9774C34.415 21.9738 34.4755 21.9622 34.536 21.9506C34.5662 21.9448 34.602 21.9401 34.6366 21.9412C34.6545 21.9389 34.6768 21.9435 34.6935 21.9469L34.6991 21.9481L34.7046 21.9492L34.7158 21.9515L34.7269 21.9539L34.748 21.9643C34.7591 21.9666 34.7846 21.9839 34.8044 22.0001C34.8243 22.0163 34.8343 22.0244 34.8486 22.0394C34.8629 22.0544 34.8716 22.0683 34.8804 22.0822C34.8891 22.0961 34.9034 22.1111 34.911 22.1308C34.9273 22.1643 34.9368 22.2025 34.9463 22.2407C34.9483 22.2592 34.949 22.2835 34.951 22.3021C34.9518 22.3264 34.9414 22.3484 34.9366 22.3715L34.9354 22.3773L34.9342 22.3831L34.9263 22.3935L34.9159 22.4155C34.9068 22.4318 34.8908 22.4526 34.8761 22.4677C34.8466 22.4978 34.8196 22.5164 34.7869 22.5337C34.7229 22.5628 34.6612 22.5802 34.5964 22.5849C34.4722 22.5954 34.3529 22.5828 34.2336 22.5702C34.2897 22.5516 34.3489 22.5458 34.4106 22.5283C34.4711 22.5167 34.526 22.5039 34.5821 22.4853C34.6068 22.4784 34.6326 22.4656 34.6585 22.4528C34.6844 22.4401 34.7047 22.4262 34.725 22.4123C34.7453 22.3984 34.76 22.3833 34.7759 22.3624C34.7783 22.3509 34.7839 22.352 34.7863 22.3404L34.7967 22.3184L34.799 22.3068L34.7978 22.3126L34.7971 22.2883L34.7907 22.2629C34.7832 22.2432 34.7756 22.2235 34.7625 22.2027C34.7494 22.1819 34.7363 22.1611 34.7208 22.1518C34.7164 22.1449 34.7021 22.1298 34.7009 22.1356L34.6965 22.1287C34.6965 22.1287 34.6922 22.1217 34.6866 22.1206L34.6655 22.1102L34.6544 22.1079C34.66 22.109 34.6433 22.1056 34.6655 22.1102L34.66 22.109C34.6488 22.1067 34.6433 22.1056 34.6309 22.1091C34.6075 22.1102 34.584 22.1114 34.5537 22.1172C34.5 22.1242 34.4384 22.1417 34.3636 22.1383L34.2295 22.1407L34.2849 22.0133C34.3044 21.9751 34.3128 21.9346 34.3212 21.8941C34.3296 21.8535 34.338 21.813 34.334 21.776C34.332 21.7575 34.3289 21.7447 34.3257 21.732C34.3225 21.7193 34.3181 21.7123 34.3082 21.7042L34.2983 21.6961C34.2995 21.6903 34.2871 21.6938 34.2704 21.6904C34.2593 21.6881 34.2426 21.6846 34.2235 21.6927C34.2056 21.6951 34.1865 21.7032 34.1729 21.7125C34.1538 21.7206 34.1391 21.7356 34.12 21.7438C34.0862 21.767 34.0555 21.8029 34.0249 21.8388C34.0101 21.8538 33.9998 21.8759 33.9894 21.8979C33.9791 21.9199 33.9699 21.9361 33.9651 21.9592L33.9579 21.994L33.9563 22.0299L33.9602 22.0669L33.9908 22.1155Z" fill="#F9E9D3"/>
<path d="M30.9494 21.9694L30.9808 21.9578L31.0079 21.9392L31.0306 21.9137L31.0477 21.8871C31.058 21.8651 31.0672 21.8489 31.072 21.8257C31.0768 21.8025 31.0871 21.7805 31.0852 21.762C31.0892 21.7145 31.092 21.6729 31.0892 21.63C31.0873 21.6115 31.0809 21.5861 31.079 21.5675C31.0714 21.5479 31.0639 21.5282 31.0551 21.5143C31.0464 21.5004 31.0376 21.4865 31.0277 21.4784C31.0178 21.4703 31.0078 21.4623 31.0078 21.4623L30.9967 21.46C30.9856 21.4576 30.9788 21.4623 30.9665 21.4658C30.9541 21.4693 30.9406 21.4785 30.9259 21.4936C30.8976 21.5179 30.8737 21.5492 30.8486 21.5863C30.8235 21.6234 30.804 21.6616 30.7901 21.701L30.739 21.8353L30.65 21.7324C30.5983 21.6734 30.5677 21.6248 30.5372 21.5762C30.524 21.5554 30.5066 21.5276 30.4922 21.5126C30.4823 21.5045 30.4779 21.4975 30.4736 21.4906L30.468 21.4894C30.4891 21.4998 30.4736 21.4906 30.4779 21.4975L30.468 21.4894L30.4469 21.479C30.437 21.4709 30.4358 21.4767 30.4358 21.4767L30.4302 21.4756C30.4247 21.4744 30.4135 21.4721 30.4012 21.4756C30.3789 21.471 30.3542 21.478 30.3363 21.4803C30.3129 21.4815 30.2926 21.4954 30.2735 21.5035L30.2532 21.5174L30.2384 21.5325L30.2396 21.5267L30.2372 21.5383L30.2269 21.5603C30.2245 21.5719 30.2233 21.5777 30.2221 21.5834C30.2173 21.6066 30.2181 21.6309 30.2189 21.6552C30.2252 21.6807 30.226 21.705 30.2379 21.7316C30.2442 21.7571 30.2561 21.7837 30.2681 21.8103C30.2919 21.8635 30.3225 21.9121 30.3519 21.9665C30.3813 22.0209 30.4119 22.0695 30.4413 22.1239C30.353 22.0452 30.2592 21.9654 30.1869 21.866C30.1507 21.8162 30.1157 21.7607 30.0955 21.6901C30.0848 21.6577 30.0808 21.6206 30.0837 21.579C30.0885 21.5558 30.0877 21.5315 30.0968 21.5153L30.1016 21.4921L30.104 21.4805L30.1052 21.4747L30.1064 21.469C30.1168 21.4469 30.1327 21.4261 30.1474 21.411C30.1622 21.396 30.1769 21.3809 30.196 21.3728C30.2286 21.3554 30.2613 21.338 30.2983 21.3275C30.3174 21.3194 30.3353 21.3171 30.3532 21.3147C30.3711 21.3124 30.389 21.3101 30.4069 21.3077C30.4248 21.3054 30.4415 21.3089 30.4638 21.3135C30.486 21.3181 30.5139 21.3238 30.5294 21.3331L30.5505 21.3435L30.5616 21.3458L30.5715 21.3539L30.5771 21.355L30.5815 21.362C30.5958 21.377 30.6169 21.3874 30.6256 21.4013C30.6542 21.4314 30.6717 21.4591 30.6904 21.4811C30.7265 21.5308 30.7559 21.5852 30.7834 21.6211L30.6377 21.6513C30.6608 21.5957 30.6871 21.5529 30.7202 21.5054C30.7361 21.4845 30.752 21.4637 30.7747 21.4382C30.7962 21.4185 30.8177 21.3988 30.8392 21.3791C30.8663 21.3605 30.8922 21.3478 30.9236 21.3362C30.955 21.3245 30.9964 21.321 31.0342 21.3349C31.0676 21.3418 31.1129 21.3753 31.1217 21.3892C31.1459 21.4123 31.1634 21.4401 31.1741 21.4725C31.186 21.4991 31.1912 21.5304 31.1963 21.5616C31.2015 21.5929 31.2022 21.6172 31.2018 21.6473C31.2022 21.7017 31.1902 21.7596 31.1683 21.8094C31.1579 21.8314 31.1464 21.8592 31.136 21.8812C31.1256 21.9032 31.1041 21.9229 31.0882 21.9438C31.0667 21.9635 31.0464 21.9774 31.0206 21.9901C31.0082 21.9936 30.9959 21.9971 30.9835 22.0006L30.9494 21.9694Z" fill="#F9E9D3"/>
<path d="M32.7509 23.6758L32.7843 23.6827L32.8201 23.6781L32.8516 23.6665L32.883 23.6549C32.9033 23.6409 32.9168 23.6317 32.9383 23.612C32.953 23.5969 32.9678 23.5818 32.9837 23.561C33.0088 23.5239 33.0339 23.4868 33.0478 23.4475C33.0582 23.4255 33.0618 23.4081 33.0666 23.3849C33.0702 23.3676 33.075 23.3444 33.073 23.3259C33.071 23.3074 33.0678 23.2946 33.0647 23.2819C33.0615 23.2692 33.0528 23.2553 33.0516 23.2611L33.0416 23.253C33.0372 23.2461 33.0261 23.2437 33.015 23.2414C33.0038 23.2391 32.9859 23.2415 32.968 23.2438C32.9322 23.2485 32.894 23.2647 32.8558 23.281C32.8176 23.2972 32.7838 23.3204 32.7488 23.3494L32.6381 23.4351L32.6088 23.2963C32.5953 23.221 32.5906 23.1597 32.5914 23.0995C32.5918 23.0694 32.5855 23.0439 32.5835 23.0254C32.5804 23.0127 32.576 23.0057 32.5784 22.9941L32.5796 22.9884C32.5927 23.0092 32.5839 22.9953 32.5827 23.0011L32.5784 22.9941L32.5653 22.9733L32.5553 22.9652L32.551 22.9583C32.5522 22.9525 32.5354 22.949 32.5311 22.9421C32.5168 22.9271 32.4945 22.9225 32.4734 22.9121C32.4523 22.9017 32.4289 22.9028 32.4122 22.8994C32.401 22.8971 32.3943 22.9017 32.3831 22.8994L32.364 22.9075L32.3708 22.9029L32.364 22.9075L32.3437 22.9214C32.3358 22.9319 32.3358 22.9319 32.3222 22.9411C32.3075 22.9562 32.2971 22.9782 32.2868 23.0002C32.2764 23.0222 32.2704 23.0512 32.2656 23.0743C32.2597 23.1033 32.2592 23.1334 32.2544 23.1565C32.248 23.2156 32.2472 23.2758 32.2519 23.3371C32.2511 23.3973 32.2558 23.4587 32.2538 23.5247C32.2141 23.4078 32.1799 23.2921 32.1606 23.1613C32.1558 23.0999 32.1523 23.0328 32.1679 22.9575C32.1751 22.9228 32.1878 22.8892 32.2129 22.8521C32.2276 22.8371 32.2436 22.8162 32.2527 22.8L32.2675 22.7849L32.2754 22.7745L32.2822 22.7699L32.2889 22.7652C32.3081 22.7571 32.3283 22.7432 32.3475 22.7351C32.3654 22.7327 32.39 22.7258 32.4079 22.7234C32.4481 22.7257 32.4827 22.7268 32.5217 22.7349C32.5384 22.7383 32.5539 22.7476 32.5762 22.7522C32.5929 22.7557 32.6084 22.7649 32.6239 22.7741C32.6394 22.7834 32.6549 22.7926 32.6748 22.8088C32.6891 22.8239 32.7133 22.847 32.7221 22.8609L32.7352 22.8817L32.7396 22.8886L32.7483 22.9025L32.7471 22.9083L32.7515 22.9153C32.759 22.9349 32.7666 22.9546 32.7685 22.9731C32.7781 23.0113 32.7832 23.0426 32.7816 23.0784C32.7863 23.1398 32.7843 23.2058 32.7938 23.244L32.6594 23.192C32.7067 23.1596 32.7529 23.1329 32.7991 23.1062C32.8249 23.0935 32.8496 23.0865 32.8743 23.0795C32.8989 23.0725 32.9292 23.0667 32.9594 23.0609C32.9897 23.0551 33.0231 23.062 33.0565 23.0689C33.0899 23.0758 33.1265 23.0955 33.1551 23.1255C33.1793 23.1487 33.2032 23.2019 33.2051 23.2204C33.2159 23.2528 33.2142 23.2887 33.2138 23.3188C33.2078 23.3478 33.2018 23.3767 33.1903 23.4045C33.1787 23.4323 33.1684 23.4543 33.1512 23.4809C33.1238 23.5296 33.0863 23.5701 33.0445 23.6038C33.023 23.6235 33.0027 23.6374 32.9769 23.6501C32.9566 23.664 32.9319 23.671 32.9017 23.6768C32.877 23.6838 32.848 23.6838 32.8245 23.685C32.8134 23.6827 32.7966 23.6793 32.7855 23.6769L32.7509 23.6758Z" fill="#F9E9D3"/>
<path d="M32.2972 21.5715L32.327 21.5958L32.3592 21.6085L32.3926 21.6154L32.4272 21.6165C32.4507 21.6154 32.4686 21.613 32.4933 21.6061C32.5124 21.5979 32.5358 21.5968 32.5561 21.5828C32.5943 21.5666 32.6337 21.5446 32.6688 21.5156C32.6835 21.5005 32.7038 21.4866 32.7129 21.4704C32.7277 21.4553 32.7368 21.4391 32.746 21.4229C32.7552 21.4067 32.7588 21.3893 32.7612 21.3777C32.7635 21.3661 32.7671 21.3488 32.7604 21.3534L32.7572 21.3407C32.7528 21.3337 32.7485 21.3268 32.7385 21.3187C32.7286 21.3106 32.7131 21.3014 32.6964 21.2979C32.6642 21.2852 32.624 21.2829 32.5838 21.2807C32.5436 21.2784 32.4967 21.2807 32.4609 21.2854L32.3288 21.3064L32.3687 21.1697C32.3899 21.0956 32.4185 21.0412 32.4417 20.9856C32.4532 20.9578 32.4636 20.9358 32.4684 20.9126C32.4708 20.9011 32.4732 20.8895 32.4743 20.8837L32.4755 20.8779C32.4763 20.9022 32.4743 20.8837 32.4732 20.8895L32.47 20.8767L32.4692 20.8524C32.4716 20.8408 32.466 20.8397 32.466 20.8397L32.4617 20.8328L32.4497 20.8061C32.4422 20.7865 32.4291 20.7656 32.4148 20.7506C32.4017 20.7298 32.3806 20.7194 32.3663 20.7043C32.3552 20.702 32.3508 20.6951 32.3397 20.6928C32.3341 20.6916 32.3285 20.6905 32.3174 20.6882L32.3118 20.687L32.3174 20.6882L32.3051 20.6917L32.2816 20.6929C32.2692 20.6963 32.2692 20.6963 32.2569 20.6998C32.2378 20.708 32.2175 20.7219 32.1972 20.7358C32.1769 20.7497 32.161 20.7705 32.1451 20.7914C32.1291 20.8123 32.112 20.8389 32.0961 20.8598C32.063 20.9073 32.0344 20.9617 32.0112 21.0173C31.9826 21.0717 31.9594 21.1273 31.9252 21.1806C31.9448 21.0579 31.9644 20.9351 32.0118 20.8182C32.0361 20.7568 32.066 20.6966 32.1114 20.6456C32.1341 20.6201 32.1623 20.5957 32.1962 20.5725C32.2153 20.5644 32.2411 20.5517 32.2535 20.5482L32.2781 20.5412L32.2905 20.5377L32.296 20.5389L32.3016 20.54C32.3251 20.5388 32.3485 20.5377 32.3696 20.5481C32.3919 20.5527 32.4074 20.5619 32.4285 20.5723C32.4595 20.5908 32.496 20.6104 32.5191 20.6394C32.5346 20.6486 32.5421 20.6683 32.5564 20.6833C32.5708 20.6984 32.5795 20.7122 32.587 20.7319C32.5946 20.7516 32.6045 20.7597 32.6164 20.7863C32.624 20.806 32.6347 20.8384 32.6323 20.8499L32.6331 20.8743L32.6362 20.887L32.6394 20.8997L32.6382 20.9055L32.637 20.9113C32.6322 20.9345 32.6342 20.953 32.625 20.9692C32.6167 21.0097 32.6051 21.0375 32.5868 21.07C32.5625 21.1313 32.5338 21.1858 32.5198 21.2252L32.4209 21.1141C32.4746 21.1071 32.5271 21.1059 32.584 21.1116C32.613 21.1116 32.6353 21.1162 32.6619 21.1278C32.6897 21.1335 32.7164 21.1451 32.743 21.1566C32.7697 21.1682 32.8007 21.1867 32.8249 21.2098C32.8492 21.2329 32.8766 21.2688 32.8805 21.3058C32.8913 21.3382 32.8848 21.3973 32.8812 21.4146C32.8741 21.4494 32.8557 21.4818 32.8386 21.5085C32.8215 21.5351 32.8 21.5548 32.7785 21.5745C32.757 21.5942 32.7311 21.607 32.7108 21.6209C32.6647 21.6476 32.6141 21.6673 32.5604 21.6743C32.5358 21.6813 32.5067 21.6813 32.4833 21.6825C32.4598 21.6837 32.432 21.6779 32.4041 21.6721C32.3763 21.6664 32.3552 21.656 32.3353 21.6398C32.3254 21.6317 32.3155 21.6236 32.3067 21.6097L32.2972 21.5715Z" fill="#F9E9D3"/>
</g>
<defs>
<clipPath id="clip0_13478_63840">
<rect width="34.9196" height="23.6954" fill="white" transform="translate(4.80078) rotate(11.6895)"/>
</clipPath>
</defs>
</svg>
