<svg width="130" height="126" viewBox="0 0 130 126" fill="none" xmlns="http://www.w3.org/2000/svg">
<path d="M18.1627 39.3834L19.2351 41.0716C19.2442 41.0659 19.2532 41.06 19.2621 41.0541L18.1627 39.3834ZM63.9469 9.25485L65.0463 10.9256L65.0549 10.9199L63.9469 9.25485ZM65.5922 9.25485L64.4841 10.9199L64.4942 10.9265L65.5922 9.25485ZM111.376 39.3268L112.502 37.6734C112.493 37.6672 112.484 37.6611 112.474 37.6551L111.376 39.3268ZM19.0137 42.1018V40.1018C18.9891 40.1018 18.9644 40.1022 18.9398 40.1032L19.0137 42.1018ZM13 107.796V105.796C11.8954 105.796 11 106.691 11 107.796H13ZM116.596 107.796H118.596C118.596 106.691 117.701 105.796 116.596 105.796V107.796ZM116.596 116.347V118.347C117.701 118.347 118.596 117.452 118.596 116.347H116.596ZM13 116.347H11C11 117.452 11.8954 118.347 13 118.347V116.347ZM109.704 94.9401H107.704C107.704 94.9634 107.705 94.9866 107.705 95.0098L109.704 94.9401ZM29.4791 94.7342H27.4791C27.4791 94.7587 27.4796 94.7831 27.4805 94.8076L29.4791 94.7342ZM19.2621 41.0541L65.0463 10.9256L62.8475 7.58414L17.0633 37.7127L19.2621 41.0541ZM65.0549 10.9199C64.9923 10.9616 64.8924 11 64.7695 11C64.6467 11 64.5468 10.9616 64.4842 10.9199L66.7002 7.58983C65.5184 6.80339 64.0207 6.80339 62.8389 7.58983L65.0549 10.9199ZM64.4942 10.9265L110.278 40.9984L112.474 37.6551L66.6902 7.58319L64.4942 10.9265ZM110.251 40.9802C110.2 40.9453 110.125 40.8636 110.085 40.7421C110.05 40.6345 110.055 40.535 110.079 40.4551C110.103 40.3748 110.156 40.2839 110.252 40.2091C110.36 40.125 110.471 40.1018 110.525 40.1018V44.1018C114.078 44.1018 115.335 39.6014 112.502 37.6734L110.251 40.9802ZM110.525 40.1018H19.0137V44.1018H110.525V40.1018ZM18.9398 40.1032C19.0141 40.1004 19.148 40.1276 19.2729 40.223C19.3824 40.3066 19.4369 40.4052 19.4605 40.4834C19.4838 40.5608 19.4909 40.6631 19.4519 40.7807C19.4072 40.9153 19.3175 41.0193 19.2351 41.0716L17.0903 37.6952C14.192 39.5363 15.4313 44.2356 19.0876 44.1004L18.9398 40.1032ZM69.1522 28.0568C69.1522 30.4519 67.2061 32.3996 64.798 32.3996V36.3996C69.4085 36.3996 73.1522 32.6678 73.1522 28.0568H69.1522ZM64.798 32.3996C62.3899 32.3996 60.4438 30.4519 60.4438 28.0568H56.4438C56.4438 32.6678 60.1874 36.3996 64.798 36.3996V32.3996ZM60.4438 28.0568C60.4438 25.6616 62.3899 23.7139 64.798 23.7139V19.7139C60.1874 19.7139 56.4438 23.4458 56.4438 28.0568H60.4438ZM64.798 23.7139C67.2061 23.7139 69.1522 25.6616 69.1522 28.0568H73.1522C73.1522 23.4458 69.4085 19.7139 64.798 19.7139V23.7139ZM89.7899 95.5451H82.0277V99.5451H89.7899V95.5451ZM82.0277 95.5451C82.125 95.5451 82.1355 95.5941 82.0831 95.5337C82.029 95.4714 81.9644 95.344 81.9644 95.1665H77.9644C77.9644 97.2972 79.5357 99.5451 82.0277 99.5451V95.5451ZM81.9644 95.1665V53.5982H77.9644V95.1665H81.9644ZM81.9644 53.5982C81.9644 53.4207 82.029 53.2933 82.0831 53.231C82.1355 53.1706 82.125 53.2196 82.0277 53.2196V49.2196C79.5357 49.2196 77.9644 51.4675 77.9644 53.5982H81.9644ZM82.0277 53.2196H89.7899V49.2196H82.0277V53.2196ZM89.7899 53.2196C89.6926 53.2196 89.6821 53.1706 89.7345 53.231C89.7886 53.2933 89.8533 53.4207 89.8533 53.5982H93.8533C93.8533 51.4675 92.2819 49.2196 89.7899 49.2196V53.2196ZM89.8533 53.5982V95.1665H93.8533V53.5982H89.8533ZM89.8533 95.1665C89.8533 95.344 89.7886 95.4714 89.7345 95.5337C89.6821 95.5941 89.6926 95.5451 89.7899 95.5451V99.5451C92.2819 99.5451 93.8533 97.2972 93.8533 95.1665H89.8533ZM13 109.796H116.596V105.796H13V109.796ZM114.596 107.796V116.347H118.596V107.796H114.596ZM116.596 114.347H13V118.347H116.596V114.347ZM15 116.347V107.796H11V116.347H15ZM47.7726 95.1028H39.8625V99.1028H47.7726V95.1028ZM39.8625 95.1028C40.0052 95.1028 40.0387 95.1757 39.9908 95.1186C39.9415 95.0599 39.8731 94.9268 39.8731 94.7342H35.8731C35.8731 96.7947 37.3558 99.1028 39.8625 99.1028V95.1028ZM39.8731 94.7342V53.3959H35.8731V94.7342H39.8731ZM39.8731 53.3959C39.8731 53.2033 39.9415 53.0702 39.9908 53.0115C40.0387 52.9544 40.0052 53.0273 39.8625 53.0273V49.0273C37.3558 49.0273 35.8731 51.3354 35.8731 53.3959H39.8731ZM39.8625 53.0273H47.7726V49.0273H39.8625V53.0273ZM47.7726 53.0273C47.63 53.0273 47.5965 52.9544 47.6444 53.0115C47.6937 53.0702 47.762 53.2033 47.762 53.3959H51.762C51.762 51.3354 50.2794 49.0273 47.7726 49.0273V53.0273ZM47.762 53.3959V94.6778H51.762V53.3959H47.762ZM47.762 94.6778C47.762 94.9176 47.6816 95.0664 47.6341 95.1238C47.6119 95.1508 47.6066 95.1468 47.6318 95.1339C47.6604 95.1193 47.7107 95.1028 47.7726 95.1028V99.1028C50.3067 99.1028 51.762 96.7619 51.762 94.6778H47.762ZM107.715 95.3753H99.8061V99.3753H107.715V95.3753ZM99.8061 95.3753C99.9523 95.3753 99.9865 95.4502 99.9374 95.3915C99.8869 95.3312 99.8171 95.1945 99.8171 94.9968H95.8171C95.8171 97.054 97.2922 99.3753 99.8061 99.3753V95.3753ZM99.8171 94.9968V53.485H95.8171V94.9968H99.8171ZM99.8171 53.485C99.8171 53.2873 99.8869 53.1506 99.9374 53.0903C99.9865 53.0315 99.9523 53.1065 99.8061 53.1065V49.1065C97.2922 49.1065 95.8171 51.4278 95.8171 53.485H99.8171ZM99.8061 53.1065H107.715V49.1065H99.8061V53.1065ZM107.715 53.1065C107.569 53.1065 107.535 53.0316 107.584 53.0903C107.634 53.1506 107.704 53.2873 107.704 53.485H111.704C111.704 51.4278 110.229 49.1065 107.715 49.1065V53.1065ZM107.704 53.485V94.9401H111.704V53.485H107.704ZM107.705 95.0098C107.713 95.2336 107.641 95.3579 107.609 95.3967C107.594 95.4153 107.593 95.4097 107.615 95.3983C107.641 95.3854 107.678 95.3753 107.715 95.3753V99.3753C110.277 99.3753 111.779 97.0444 111.703 94.8705L107.705 95.0098ZM27.4399 95.1028H19.6313V99.1028H27.4399V95.1028ZM19.6313 95.1028C19.6634 95.1028 19.6926 95.1115 19.7094 95.1197C19.723 95.1263 19.7144 95.1255 19.6937 95.1016C19.647 95.0478 19.5921 94.9369 19.5921 94.7906H15.5921C15.5921 96.8588 17.1248 99.1028 19.6313 99.1028V95.1028ZM19.5921 94.7906V53.3395H15.5921V94.7906H19.5921ZM19.5921 53.3395C19.5921 53.1789 19.6496 53.0777 19.6903 53.0324C19.733 52.9848 19.7219 53.0273 19.6313 53.0273V49.0273C17.2333 49.0273 15.5921 51.1482 15.5921 53.3395H19.5921ZM19.6313 53.0273H27.4399V49.0273H19.6313V53.0273ZM27.4399 53.0273C27.4078 53.0273 27.3786 53.0186 27.3617 53.0104C27.3482 53.0038 27.3568 53.0046 27.3775 53.0285C27.4242 53.0823 27.4791 53.1933 27.4791 53.3395H31.4791C31.4791 51.2713 29.9464 49.0273 27.4399 49.0273V53.0273ZM27.4791 53.3395V94.7342H31.4791V53.3395H27.4791ZM27.4805 94.8076C27.4873 94.9947 27.4266 95.0811 27.4071 95.1032C27.3957 95.1162 27.3917 95.1156 27.4008 95.1114C27.4114 95.1064 27.4265 95.1028 27.4399 95.1028V99.1028C29.8837 99.1028 31.5627 96.9731 31.4778 94.6607L27.4805 94.8076Z" fill="#1AC486"/>
<path d="M63.7228 87.8436V66.5497C63.7228 66.2099 63.3257 66.04 63.0988 66.2666L57.936 71.2502C57.7658 71.4201 57.5388 71.3635 57.4254 71.2502L55.383 69.0982C55.2695 68.9283 55.2695 68.7018 55.383 68.5885L65.3681 59.1308C65.5383 59.0176 65.7652 59.0176 65.8787 59.1308L75.41 68.7018C75.5235 68.8717 75.5802 69.0982 75.41 69.2115L73.481 71.1936C73.3108 71.3635 73.0839 71.3635 72.9704 71.1936L67.9211 66.0967C67.6942 65.8701 67.2971 66.04 67.2971 66.3798V87.787C67.2971 88.0135 67.1269 88.1268 66.9567 88.1268H64.12C63.893 88.1834 63.7228 88.0135 63.7228 87.8436Z" stroke="#1AC486" stroke-width="2" stroke-miterlimit="10" stroke-linecap="round" stroke-linejoin="round"/>
</svg>
