<svg width="124" height="124" viewBox="0 0 124 124" fill="none" xmlns="http://www.w3.org/2000/svg">
<path fill-rule="evenodd" clip-rule="evenodd" d="M10.3335 20.6667C10.3335 17.8132 12.6467 15.5 15.5002 15.5H108.5C111.354 15.5 113.667 17.8132 113.667 20.6667C113.667 23.5201 111.354 25.8333 108.5 25.8333V82.6667C108.5 85.4072 107.411 88.0356 105.474 89.9734C103.536 91.9113 100.907 93 98.1668 93H74.4736L86.3202 104.847C88.3379 106.864 88.3379 110.136 86.3202 112.153C84.3025 114.171 81.0312 114.171 79.0135 112.153L62.0002 95.1401L44.9869 112.153C42.9692 114.171 39.6978 114.171 37.6801 112.153C35.6624 110.136 35.6624 106.864 37.6801 104.847L49.5267 93H25.8335C23.0929 93 20.4646 91.9113 18.5267 89.9734C16.5889 88.0356 15.5002 85.4072 15.5002 82.6667V25.8333C12.6467 25.8333 10.3335 23.5201 10.3335 20.6667ZM25.8335 25.8333V82.6667H98.1668V25.8333H25.8335ZM91.4869 37.68C93.5046 39.6977 93.5046 42.969 91.4869 44.9867L70.8202 65.6534C68.8025 67.6711 65.5312 67.6711 63.5134 65.6534L51.6668 53.8068L39.8202 65.6534C37.8025 67.6711 34.5312 67.6711 32.5134 65.6534C30.4957 63.6357 30.4957 60.3643 32.5134 58.3466L48.0134 42.8466C50.0312 40.8289 53.3025 40.8289 55.3202 42.8466L67.1668 54.6932L84.1801 37.68C86.1978 35.6622 89.4692 35.6622 91.4869 37.68Z" fill="#1AC486"/>
</svg>
