<svg width="1918" height="156" viewBox="0 0 1918 156" fill="none" xmlns="http://www.w3.org/2000/svg">
<g clip-path="url(#clip0_13087_43799)">
<path d="M16.8232 129.298C16.1327 130.113 15.9443 131.179 15.9443 132.244C15.9443 132.683 16.0071 133.122 16.321 133.372C16.5721 133.498 16.8232 133.498 17.137 133.498C17.4509 133.498 17.8275 133.498 18.1414 133.498C18.267 133.498 18.4553 133.498 18.5808 133.435C18.7064 133.372 18.8319 133.184 18.8947 132.996C19.083 132.307 19.0202 131.555 18.8947 130.865C18.8319 130.364 18.7692 129.862 18.4553 129.486C18.1414 129.11 17.5137 128.922 17.137 129.298H16.8232Z" fill="#D8BB9E"/>
<path d="M45.4482 126.102C44.7577 126.916 44.5693 127.982 44.5693 129.048C44.5693 129.486 44.6321 129.925 44.946 130.176C45.1971 130.301 45.4482 130.301 45.762 130.301C46.0759 130.301 46.4526 130.301 46.7664 130.301C46.892 130.301 47.0803 130.301 47.2058 130.238C47.3314 130.176 47.4569 129.988 47.5197 129.8C47.708 129.11 47.6453 128.358 47.5197 127.669C47.4569 127.167 47.3942 126.666 47.0803 126.29C46.7664 125.913 46.1387 125.725 45.762 126.102H45.4482Z" fill="#D8BB9E"/>
<path d="M69.4909 120.147C68.9887 121.087 69.0515 122.215 69.3026 123.218C69.3654 123.594 69.5537 124.096 69.9304 124.221C70.1814 124.346 70.4953 124.284 70.7464 124.221C71.0603 124.158 71.3741 124.096 71.7508 123.97C71.8763 123.908 72.0647 123.908 72.1274 123.782C72.253 123.657 72.3158 123.469 72.3158 123.281C72.3785 122.591 72.1274 121.839 71.8763 121.212C71.688 120.774 71.4997 120.272 71.1231 119.959C70.7464 119.645 70.1187 119.645 69.8048 120.022L69.4909 120.147Z" fill="#D8BB9E"/>
<path d="M97.9275 111.434C97.4253 112.375 97.488 113.503 97.7391 114.506C97.8019 114.882 97.9902 115.383 98.3669 115.509C98.618 115.634 98.9318 115.571 99.1829 115.509C99.4968 115.446 99.8107 115.383 100.187 115.258C100.313 115.195 100.501 115.195 100.564 115.07C100.69 114.944 100.752 114.756 100.752 114.568C100.815 113.879 100.564 113.127 100.313 112.5C100.125 112.061 99.9362 111.56 99.5596 111.246C99.1829 110.933 98.5552 110.933 98.2413 111.309L97.9275 111.434Z" fill="#D8BB9E"/>
<path d="M130.507 99.3369C130.004 100.277 130.067 101.405 130.318 102.408C130.381 102.784 130.569 103.286 130.946 103.411C131.197 103.537 131.511 103.474 131.762 103.411C132.076 103.348 132.39 103.286 132.766 103.16C132.892 103.098 133.08 103.098 133.143 102.972C133.269 102.847 133.331 102.659 133.331 102.471C133.394 101.781 133.143 101.029 132.892 100.402C132.704 99.9637 132.515 99.4623 132.139 99.1489C131.762 98.8355 131.134 98.8355 130.82 99.2116L130.507 99.3369Z" fill="#D8BB9E"/>
<path d="M156.181 85.4845C155.679 86.4248 155.742 87.553 155.993 88.5559C156.056 88.932 156.244 89.4334 156.621 89.5588C156.872 89.6841 157.186 89.6215 157.437 89.5588C157.751 89.4961 158.065 89.4334 158.441 89.3081C158.567 89.2454 158.755 89.2454 158.818 89.12C158.943 88.9947 159.006 88.8066 159.006 88.6186C159.069 87.9291 158.818 87.1769 158.567 86.5501C158.378 86.1113 158.19 85.6099 157.813 85.2965C157.437 84.9831 156.809 84.9831 156.495 85.3592L156.181 85.4845Z" fill="#D8BB9E"/>
<path d="M182.609 68.5609C182.107 69.5011 182.17 70.6293 182.421 71.6322C182.484 72.0083 182.672 72.5098 183.049 72.6351C183.3 72.7605 183.613 72.6978 183.865 72.6351C184.178 72.5724 184.492 72.5098 184.869 72.3844C184.994 72.3217 185.183 72.3217 185.246 72.1964C185.371 72.071 185.434 71.883 185.434 71.6949C185.497 71.0054 185.246 70.2533 184.995 69.6265C184.806 69.1877 184.618 68.6862 184.241 68.3728C183.865 68.0594 183.237 68.0594 182.923 68.4355L182.609 68.5609Z" fill="#D8BB9E"/>
<path d="M198.302 57.0903C198.302 58.1559 198.867 59.0961 199.557 59.9109C199.808 60.2243 200.185 60.5377 200.562 60.475C200.813 60.475 201.064 60.2243 201.252 60.099C201.503 59.8482 201.754 59.6602 202.005 59.4095C202.131 59.2841 202.257 59.2214 202.257 59.0961C202.319 58.908 202.257 58.72 202.194 58.5946C201.943 57.9051 201.378 57.4037 200.813 56.9649C200.436 56.6515 200.059 56.3381 199.557 56.2128C199.055 56.0874 198.49 56.4008 198.427 56.9023L198.302 57.0903Z" fill="#D8BB9E"/>
<path d="M218.201 39.3518C218.201 40.4174 218.766 41.3576 219.457 42.1724C219.708 42.4858 220.084 42.7992 220.461 42.7365C220.712 42.7365 220.963 42.4858 221.152 42.3605C221.403 42.1097 221.654 41.9217 221.905 41.671C222.03 41.5456 222.156 41.4829 222.156 41.3576C222.219 41.1695 222.156 40.9815 222.093 40.8561C221.842 40.1666 221.277 39.6652 220.712 39.2264C220.335 38.913 219.959 38.5996 219.457 38.4743C218.954 38.4116 218.389 38.6623 218.327 39.1637L218.201 39.3518Z" fill="#D8BB9E"/>
<path d="M238.038 20.485C238.038 21.5505 238.603 22.4907 239.294 23.3056C239.545 23.619 239.921 23.9324 240.298 23.8697C240.549 23.8697 240.8 23.619 240.988 23.4936C241.24 23.2429 241.491 23.0549 241.742 22.8041C241.867 22.6788 241.993 22.6161 241.993 22.4907C242.056 22.3027 241.993 22.1147 241.93 21.9893C241.679 21.2998 241.114 20.7984 240.549 20.3596C240.172 20.0462 239.796 19.7328 239.294 19.6074C238.791 19.5448 238.226 19.7955 238.164 20.2969L238.038 20.485Z" fill="#D8BB9E"/>
<path d="M248.459 4.43873C225.233 33.3344 197.048 58.0932 165.535 77.7121C134.023 97.3311 99.3717 111.81 63.2768 120.272C42.8754 125.036 22.0973 127.856 1.19363 128.609C-0.375717 128.671 -0.312943 131.053 1.19363 130.99C38.6068 129.612 75.7061 121.651 110.545 107.987C145.134 94.3851 177.462 75.2049 205.899 51.3237C222.094 37.722 236.972 22.5534 250.217 6.06842C251.159 4.87749 249.401 3.18512 248.459 4.43873Z" fill="white"/>
<path d="M21.5938 134.626C19.9617 132.871 17.6391 131.492 15.442 132.996C13.6843 134.187 12.3033 136.005 11.1106 137.76C9.47848 140.205 8.91351 143.025 9.72957 145.908C10.4829 148.666 11.8011 151.236 13.6215 153.493C15.0653 155.311 16.4464 156.815 18.769 155.499C22.9748 153.054 24.7325 146.096 24.4186 141.583C24.2303 139.076 23.3515 136.506 21.5938 134.626Z" fill="#D64B34"/>
<path d="M75.2661 124.973C73.2573 123.594 70.7464 122.717 68.9259 124.722C67.4821 126.289 66.4777 128.358 65.7245 130.301C64.6573 133.059 64.7201 135.942 66.1011 138.575C67.4194 141.082 69.3026 143.339 71.5624 145.094C73.3829 146.535 75.0778 147.726 77.0237 145.908C80.6018 142.649 80.8529 135.441 79.5347 131.116C78.7814 128.671 77.4004 126.415 75.2661 124.973Z" fill="white"/>
<path d="M136.784 103.349C134.65 102.158 132.076 101.531 130.444 103.599C129.126 105.229 128.31 107.423 127.745 109.429C126.929 112.249 127.243 115.132 128.812 117.64C130.319 120.022 132.39 122.153 134.776 123.72C136.722 124.973 138.479 126.039 140.3 124.096C143.627 120.523 143.25 113.377 141.555 109.178C140.613 106.796 139.044 104.602 136.784 103.349Z" fill="white"/>
<path d="M180.851 75.7064C181.667 73.3872 183.237 71.2561 185.81 71.8202C187.882 72.2589 189.953 73.3872 191.648 74.5154C194.096 76.1451 195.729 78.527 196.168 81.473C196.545 84.2936 196.356 87.2396 195.54 89.9348C194.913 92.1913 194.222 94.0717 191.586 93.7583C186.752 93.1942 182.358 87.4903 180.914 83.228C180.161 80.7835 180.035 78.0882 180.851 75.7064Z" fill="#D64B34"/>
<path d="M219.332 45.4945C219.206 43.0499 219.771 40.48 222.345 39.9159C224.416 39.4772 226.739 39.7279 228.81 40.0413C231.698 40.5427 234.146 42.1097 235.716 44.617C237.222 47.0615 238.164 49.8194 238.54 52.64C238.854 54.9592 238.98 56.965 236.406 57.7172C231.761 59.0961 225.483 55.586 222.408 52.264C220.713 50.4462 219.52 48.0017 219.332 45.4945Z" fill="#256338"/>
<path d="M46.453 129.925C45.7625 129.925 45.0092 130.113 44.3187 130.426C42.561 131.241 41.18 132.746 40.1756 134.25C38.6063 136.632 38.1041 139.39 38.4179 142.022C38.7318 144.718 39.9873 152.929 44.4442 152.49C48.8384 152.051 52.0398 146.097 52.6676 142.649C52.6676 142.586 52.6676 142.586 52.6676 142.524C53.3581 138.512 51.7887 134.563 49.0895 131.617C48.5873 131.053 47.9595 130.176 47.1435 129.988C46.9552 129.925 46.7041 129.925 46.453 129.925Z" fill="#EAC324"/>
<path d="M257.246 35.967C257.623 35.3402 257.874 34.588 257.937 33.8985C258.188 32.0181 257.623 30.0124 256.87 28.3827C255.677 25.8128 253.605 23.8697 251.22 22.7414C248.772 21.5505 241.113 18.2911 239.167 22.24C237.159 26.1889 240.548 32.0808 243.122 34.4L243.185 34.4627C246.261 37.1579 250.404 37.9728 254.359 37.2206C255.112 37.0952 256.179 37.0326 256.744 36.4058C256.995 36.3431 257.121 36.155 257.246 35.967Z" fill="#D64B34"/>
<path d="M99.0571 114.819C98.3666 115.07 97.8016 115.571 97.2994 116.073C95.9812 117.452 95.2907 119.395 94.914 121.15C94.4118 123.908 94.914 126.666 96.2323 129.048C97.5505 131.429 101.819 138.512 105.774 136.444C109.729 134.375 110.419 127.669 109.666 124.221C109.666 124.158 109.666 124.158 109.666 124.096C108.787 120.147 105.837 117.076 102.196 115.383C101.505 115.07 100.626 114.506 99.7476 114.631C99.4965 114.694 99.3082 114.756 99.0571 114.819Z" fill="#256338"/>
<path d="M158.378 88.3679C159.069 88.1799 159.822 88.1798 160.512 88.3052C162.396 88.6186 164.153 89.7469 165.472 90.9378C167.543 92.8182 168.799 95.3254 169.238 97.958C169.677 100.653 170.556 108.864 166.162 109.617C161.768 110.369 157.123 105.417 155.679 102.283C155.679 102.22 155.616 102.22 155.616 102.158C153.921 98.4594 154.423 94.2599 156.244 90.6871C156.62 89.9976 156.997 88.9947 157.688 88.6186C157.939 88.5559 158.19 88.4933 158.378 88.3679Z" fill="#EAC324"/>
<path d="M201.315 59.3469C201.88 58.8454 202.571 58.532 203.199 58.344C205.019 57.7799 207.091 58.0306 208.848 58.532C211.547 59.2842 213.807 61.0393 215.314 63.2331C216.883 65.4896 221.277 72.5098 217.637 75.0797C213.996 77.6496 207.718 75.2677 204.956 73.0739C204.893 73.0739 204.893 73.0112 204.831 73.0112C201.692 70.4413 200.248 66.4298 200.374 62.4182C200.374 61.6661 200.311 60.6005 200.75 59.911C201.001 59.723 201.127 59.5349 201.315 59.3469Z" fill="white"/>
</g>
<g clip-path="url(#clip1_13087_43799)">
<path d="M1901.18 125.298C1901.87 126.113 1902.06 127.179 1902.06 128.244C1902.06 128.683 1901.99 129.122 1901.68 129.372C1901.43 129.498 1901.18 129.498 1900.86 129.498C1900.55 129.498 1900.17 129.498 1899.86 129.498C1899.73 129.498 1899.54 129.498 1899.42 129.435C1899.29 129.372 1899.17 129.184 1899.11 128.996C1898.92 128.307 1898.98 127.555 1899.11 126.865C1899.17 126.364 1899.23 125.862 1899.54 125.486C1899.86 125.11 1900.49 124.922 1900.86 125.298H1901.18Z" fill="#D8BB9E"/>
<path d="M1872.55 122.102C1873.24 122.916 1873.43 123.982 1873.43 125.048C1873.43 125.486 1873.37 125.925 1873.05 126.176C1872.8 126.301 1872.55 126.301 1872.24 126.301C1871.92 126.301 1871.55 126.301 1871.23 126.301C1871.11 126.301 1870.92 126.301 1870.79 126.238C1870.67 126.176 1870.54 125.988 1870.48 125.8C1870.29 125.11 1870.35 124.358 1870.48 123.669C1870.54 123.167 1870.61 122.666 1870.92 122.29C1871.23 121.913 1871.86 121.725 1872.24 122.102H1872.55Z" fill="#D8BB9E"/>
<path d="M1848.51 116.147C1849.01 117.087 1848.95 118.215 1848.7 119.218C1848.63 119.594 1848.45 120.096 1848.07 120.221C1847.82 120.346 1847.5 120.284 1847.25 120.221C1846.94 120.158 1846.63 120.096 1846.25 119.97C1846.12 119.908 1845.94 119.908 1845.87 119.782C1845.75 119.657 1845.68 119.469 1845.68 119.281C1845.62 118.591 1845.87 117.839 1846.12 117.212C1846.31 116.774 1846.5 116.272 1846.88 115.959C1847.25 115.645 1847.88 115.645 1848.2 116.022L1848.51 116.147Z" fill="#D8BB9E"/>
<path d="M1820.07 107.434C1820.57 108.375 1820.51 109.503 1820.26 110.506C1820.2 110.882 1820.01 111.383 1819.63 111.509C1819.38 111.634 1819.07 111.571 1818.82 111.509C1818.5 111.446 1818.19 111.383 1817.81 111.258C1817.69 111.195 1817.5 111.195 1817.44 111.07C1817.31 110.944 1817.25 110.756 1817.25 110.568C1817.18 109.879 1817.44 109.127 1817.69 108.5C1817.88 108.061 1818.06 107.56 1818.44 107.246C1818.82 106.933 1819.44 106.933 1819.76 107.309L1820.07 107.434Z" fill="#D8BB9E"/>
<path d="M1787.49 95.3369C1788 96.2771 1787.93 97.4054 1787.68 98.4083C1787.62 98.7843 1787.43 99.2858 1787.05 99.4112C1786.8 99.5365 1786.49 99.4738 1786.24 99.4112C1785.92 99.3485 1785.61 99.2858 1785.23 99.1604C1785.11 99.0977 1784.92 99.0977 1784.86 98.9724C1784.73 98.847 1784.67 98.659 1784.67 98.4709C1784.61 97.7815 1784.86 97.0293 1785.11 96.4025C1785.3 95.9637 1785.48 95.4623 1785.86 95.1489C1786.24 94.8355 1786.87 94.8355 1787.18 95.2116L1787.49 95.3369Z" fill="#D8BB9E"/>
<path d="M1761.82 81.4845C1762.32 82.4248 1762.26 83.553 1762.01 84.5559C1761.94 84.932 1761.76 85.4334 1761.38 85.5588C1761.13 85.6841 1760.81 85.6215 1760.56 85.5588C1760.25 85.4961 1759.94 85.4334 1759.56 85.3081C1759.43 85.2454 1759.24 85.2454 1759.18 85.12C1759.06 84.9947 1758.99 84.8066 1758.99 84.6186C1758.93 83.9291 1759.18 83.1769 1759.43 82.5501C1759.62 82.1113 1759.81 81.6099 1760.19 81.2965C1760.56 80.9831 1761.19 80.9831 1761.5 81.3592L1761.82 81.4845Z" fill="#D8BB9E"/>
<path d="M1735.39 64.5609C1735.89 65.5011 1735.83 66.6293 1735.58 67.6322C1735.52 68.0083 1735.33 68.5098 1734.95 68.6351C1734.7 68.7605 1734.39 68.6978 1734.14 68.6351C1733.82 68.5724 1733.51 68.5098 1733.13 68.3844C1733.01 68.3217 1732.82 68.3217 1732.75 68.1964C1732.63 68.071 1732.57 67.883 1732.57 67.6949C1732.5 67.0054 1732.75 66.2533 1733.01 65.6265C1733.19 65.1877 1733.38 64.6862 1733.76 64.3728C1734.14 64.0594 1734.76 64.0594 1735.08 64.4355L1735.39 64.5609Z" fill="#D8BB9E"/>
<path d="M1719.7 53.0903C1719.7 54.1559 1719.13 55.0961 1718.44 55.9109C1718.19 56.2243 1717.82 56.5377 1717.44 56.475C1717.19 56.475 1716.94 56.2243 1716.75 56.099C1716.5 55.8482 1716.25 55.6602 1715.99 55.4095C1715.87 55.2841 1715.74 55.2214 1715.74 55.0961C1715.68 54.908 1715.74 54.72 1715.81 54.5946C1716.06 53.9051 1716.62 53.4037 1717.19 52.9649C1717.56 52.6515 1717.94 52.3381 1718.44 52.2128C1718.94 52.0874 1719.51 52.4008 1719.57 52.9023L1719.7 53.0903Z" fill="#D8BB9E"/>
<path d="M1699.8 35.3518C1699.8 36.4174 1699.23 37.3576 1698.54 38.1724C1698.29 38.4858 1697.92 38.7992 1697.54 38.7365C1697.29 38.7365 1697.04 38.4858 1696.85 38.3605C1696.6 38.1097 1696.35 37.9217 1696.1 37.671C1695.97 37.5456 1695.84 37.4829 1695.84 37.3576C1695.78 37.1695 1695.84 36.9815 1695.91 36.8561C1696.16 36.1666 1696.72 35.6652 1697.29 35.2264C1697.66 34.913 1698.04 34.5996 1698.54 34.4743C1699.05 34.4116 1699.61 34.6623 1699.67 35.1637L1699.8 35.3518Z" fill="#D8BB9E"/>
<path d="M1679.96 16.485C1679.96 17.5505 1679.4 18.4907 1678.71 19.3056C1678.46 19.619 1678.08 19.9324 1677.7 19.8697C1677.45 19.8697 1677.2 19.619 1677.01 19.4936C1676.76 19.2429 1676.51 19.0549 1676.26 18.8041C1676.13 18.6788 1676.01 18.6161 1676.01 18.4907C1675.94 18.3027 1676.01 18.1147 1676.07 17.9893C1676.32 17.2998 1676.89 16.7984 1677.45 16.3596C1677.83 16.0462 1678.2 15.7328 1678.71 15.6074C1679.21 15.5448 1679.77 15.7955 1679.84 16.2969L1679.96 16.485Z" fill="#D8BB9E"/>
<path d="M1669.54 0.438729C1692.77 29.3344 1720.95 54.0932 1752.46 73.7121C1783.98 93.3311 1818.63 107.81 1854.72 116.272C1875.12 121.036 1895.9 123.856 1916.81 124.609C1918.38 124.671 1918.31 127.053 1916.81 126.99C1879.39 125.612 1842.29 117.651 1807.45 103.987C1772.87 90.3851 1740.54 71.2049 1712.1 47.3237C1695.91 33.722 1681.03 18.5534 1667.78 2.06842C1666.84 0.877492 1668.6 -0.814879 1669.54 0.438729Z" fill="white"/>
<path d="M1896.41 130.626C1898.04 128.871 1900.36 127.492 1902.56 128.996C1904.32 130.187 1905.7 132.005 1906.89 133.76C1908.52 136.205 1909.09 139.025 1908.27 141.908C1907.52 144.666 1906.2 147.236 1904.38 149.493C1902.93 151.311 1901.55 152.815 1899.23 151.499C1895.03 149.054 1893.27 142.096 1893.58 137.583C1893.77 135.076 1894.65 132.506 1896.41 130.626Z" fill="#D64B34"/>
<path d="M1842.73 120.973C1844.74 119.594 1847.25 118.717 1849.07 120.722C1850.52 122.289 1851.52 124.358 1852.28 126.301C1853.34 129.059 1853.28 131.942 1851.9 134.575C1850.58 137.082 1848.7 139.339 1846.44 141.094C1844.62 142.535 1842.92 143.726 1840.98 141.908C1837.4 138.649 1837.15 131.441 1838.47 127.116C1839.22 124.671 1840.6 122.415 1842.73 120.973Z" fill="white"/>
<path d="M1781.22 99.3485C1783.35 98.1576 1785.92 97.5308 1787.56 99.5993C1788.87 101.229 1789.69 103.423 1790.26 105.429C1791.07 108.249 1790.76 111.132 1789.19 113.64C1787.68 116.022 1785.61 118.153 1783.22 119.72C1781.28 120.973 1779.52 122.039 1777.7 120.096C1774.37 116.523 1774.75 109.377 1776.44 105.178C1777.39 102.796 1778.96 100.602 1781.22 99.3485Z" fill="white"/>
<path d="M1737.15 71.7064C1736.33 69.3872 1734.76 67.2561 1732.19 67.8202C1730.12 68.2589 1728.05 69.3872 1726.35 70.5154C1723.9 72.1451 1722.27 74.527 1721.83 77.473C1721.46 80.2936 1721.64 83.2396 1722.46 85.9348C1723.09 88.1913 1723.78 90.0717 1726.41 89.7583C1731.25 89.1942 1735.64 83.4903 1737.09 79.228C1737.84 76.7835 1737.96 74.0882 1737.15 71.7064Z" fill="#D64B34"/>
<path d="M1698.67 41.4945C1698.79 39.0499 1698.23 36.48 1695.66 35.9159C1693.58 35.4772 1691.26 35.7279 1689.19 36.0413C1686.3 36.5427 1683.85 38.1097 1682.28 40.617C1680.78 43.0615 1679.84 45.8194 1679.46 48.64C1679.15 50.9592 1679.02 52.965 1681.59 53.7172C1686.24 55.0961 1692.52 51.586 1695.59 48.264C1697.29 46.4462 1698.48 44.0017 1698.67 41.4945Z" fill="#256338"/>
<path d="M1871.55 125.925C1872.24 125.925 1872.99 126.113 1873.68 126.426C1875.44 127.241 1876.82 128.746 1877.82 130.25C1879.39 132.632 1879.9 135.39 1879.58 138.022C1879.27 140.718 1878.01 148.929 1873.56 148.49C1869.16 148.051 1865.96 142.097 1865.33 138.649C1865.33 138.586 1865.33 138.586 1865.33 138.524C1864.64 134.512 1866.21 130.563 1868.91 127.617C1869.41 127.053 1870.04 126.176 1870.86 125.988C1871.04 125.925 1871.3 125.925 1871.55 125.925Z" fill="#EAC324"/>
<path d="M1660.75 31.967C1660.38 31.3402 1660.13 30.588 1660.06 29.8985C1659.81 28.0181 1660.38 26.0124 1661.13 24.3827C1662.32 21.8128 1664.39 19.8697 1666.78 18.7414C1669.23 17.5505 1676.89 14.2911 1678.83 18.24C1680.84 22.1889 1677.45 28.0808 1674.88 30.4L1674.81 30.4627C1671.74 33.1579 1667.6 33.9728 1663.64 33.2206C1662.89 33.0952 1661.82 33.0326 1661.26 32.4058C1661 32.3431 1660.88 32.155 1660.75 31.967Z" fill="#D64B34"/>
<path d="M1818.94 110.819C1819.63 111.07 1820.2 111.571 1820.7 112.073C1822.02 113.452 1822.71 115.395 1823.09 117.15C1823.59 119.908 1823.09 122.666 1821.77 125.048C1820.45 127.429 1816.18 134.512 1812.23 132.444C1808.27 130.375 1807.58 123.669 1808.33 120.221C1808.33 120.158 1808.33 120.158 1808.33 120.096C1809.21 116.147 1812.16 113.076 1815.8 111.383C1816.49 111.07 1817.37 110.506 1818.25 110.631C1818.5 110.694 1818.69 110.756 1818.94 110.819Z" fill="#256338"/>
<path d="M1759.62 84.3679C1758.93 84.1799 1758.18 84.1798 1757.49 84.3052C1755.6 84.6186 1753.85 85.7469 1752.53 86.9378C1750.46 88.8182 1749.2 91.3254 1748.76 93.958C1748.32 96.6532 1747.44 104.864 1751.84 105.617C1756.23 106.369 1760.88 101.417 1762.32 98.2829C1762.32 98.2203 1762.38 98.2203 1762.38 98.1576C1764.08 94.4594 1763.58 90.2599 1761.76 86.6871C1761.38 85.9976 1761 84.9947 1760.31 84.6186C1760.06 84.5559 1759.81 84.4933 1759.62 84.3679Z" fill="#EAC324"/>
<path d="M1716.68 55.3469C1716.12 54.8454 1715.43 54.532 1714.8 54.344C1712.98 53.7799 1710.91 54.0306 1709.15 54.532C1706.45 55.2842 1704.19 57.0393 1702.69 59.2331C1701.12 61.4896 1696.72 68.5098 1700.36 71.0797C1704 73.6496 1710.28 71.2677 1713.04 69.0739C1713.11 69.0739 1713.11 69.0112 1713.17 69.0112C1716.31 66.4413 1717.75 62.4298 1717.63 58.4182C1717.63 57.6661 1717.69 56.6005 1717.25 55.911C1717 55.723 1716.87 55.5349 1716.68 55.3469Z" fill="white"/>
</g>
<path d="M320.785 40.3875C319.846 30.1179 319.34 19.7759 319.34 9.43393C319.34 8.85536 318.473 8.85536 318.473 9.43393C318.473 19.7759 318.906 30.1179 319.918 40.3875C319.99 40.8938 320.858 40.9661 320.785 40.3875Z" fill="#D64B34"/>
<path d="M324.905 43.6419C324.616 43.3526 324.182 43.4973 323.893 43.4973C323.748 41.5446 322.953 39.5919 320.569 39.7365C318.256 39.8812 317.027 42.0508 317.027 44.1482C316.449 44.2205 315.871 44.2928 315.293 44.2928C315.148 44.2928 315.004 44.5098 315.004 44.7267C315.004 45.6669 315.004 46.6794 315.004 47.6196C315.004 47.9089 315.004 48.1982 315.004 48.4874C314.859 48.7044 314.932 49.2107 315.221 49.2107C315.293 49.283 315.438 49.283 315.51 49.2107C317.678 49.2107 319.774 49.2107 321.942 49.2107C322.52 49.2107 323.098 49.2107 323.676 49.2107C323.965 49.2107 324.254 49.283 324.543 49.066C325.122 48.6321 325.122 47.1857 325.122 46.3901C325.194 45.6669 325.338 44.1482 324.905 43.6419ZM318.545 44.0035C318.617 42.7017 319.123 41.3276 320.569 41.183C322.086 41.0383 322.375 42.3401 322.448 43.5696C322.303 43.5696 322.231 43.5696 322.086 43.5696C320.858 43.7865 319.701 43.9312 318.545 44.0035Z" fill="#256338"/>
<path d="M341.816 75.8973C341.743 76.1866 341.599 76.4759 341.526 76.8375C341.165 77.9223 340.659 79.0071 340.153 79.9473C338.058 83.7804 334.661 86.6732 330.614 88.3366C322.086 91.9527 311.752 89.3491 305.609 82.4062C304.452 81.1045 303.513 79.658 302.718 78.2116C302.573 77.9223 302.429 77.633 302.284 77.3437C299.827 72.2089 299.249 66.2062 301.056 60.8545C301.128 60.5652 301.273 60.2759 301.345 60.0589C301.779 58.9741 302.284 57.9616 302.863 56.9491C305.103 53.1161 308.644 50.2955 312.908 48.9214C317.244 47.475 322.158 47.6196 326.567 48.7768C332.131 50.2232 337.552 53.6223 340.587 58.7571C340.731 58.9741 340.876 59.2634 341.021 59.4804C341.454 60.3482 341.816 61.2161 342.105 62.1563C343.405 66.4232 343.189 71.558 341.816 75.8973Z" fill="#FFCE15"/>
<path d="M306.404 66.2785C305.536 67.8696 303.946 69.0991 302.14 69.7499C303.946 70.3285 305.464 71.6303 306.259 73.2937C306.259 73.366 306.331 73.366 306.404 73.4383C306.404 72.8598 306.548 72.2089 306.693 71.7026C307.271 70.1116 308.427 69.3883 309.8 69.2437C308.355 68.5928 307.126 67.6526 306.404 66.2785Z" fill="white"/>
<path d="M312.98 69.1715C314.498 70.184 315.51 71.9197 316.016 73.7277C316.738 71.992 318.184 70.5456 319.918 69.967C319.991 69.967 319.991 69.8947 320.063 69.8947C319.485 69.8224 318.834 69.6777 318.328 69.3884C316.811 68.6652 316.233 67.4358 316.16 65.9893C315.438 67.4358 314.354 68.5929 312.98 69.1715Z" fill="white"/>
<path d="M327.217 65.6277C326.928 66.2786 326.567 66.7849 326.133 67.2911C325.483 68.159 324.543 68.8099 323.459 69.0992C325.049 69.8947 326.35 71.3411 327 73.0045C327.506 71.1965 329.168 70.0393 330.758 69.0268C329.24 68.3759 327.94 67.1465 327.217 65.6277Z" fill="white"/>
<path d="M333.577 67.508C334.228 67.7973 334.733 68.1589 335.239 68.5929C336.107 69.2438 336.757 70.1839 337.046 71.2687C337.841 69.6777 339.286 68.3759 340.949 67.725C339.142 67.2187 337.986 65.5554 336.974 63.9643C336.323 65.5554 335.095 66.8571 333.577 67.508Z" fill="white"/>
<path d="M340.948 59.4804C327.94 62.8072 314.281 62.2286 300.983 60.8545C301.056 60.5652 301.2 60.2759 301.272 60.059C314.353 61.3608 327.723 61.9393 340.514 58.7572C340.659 58.9018 340.804 59.1911 340.948 59.4804C340.948 59.4081 340.948 59.4081 340.948 59.4804Z" fill="white"/>
<path d="M341.815 75.8973C341.743 76.1866 341.598 76.4759 341.526 76.8375C328.662 78.5732 315.654 79.0795 302.718 78.2116C302.573 77.9223 302.429 77.633 302.284 77.3437C315.437 78.2116 328.735 77.7777 341.815 75.8973Z" fill="white"/>
<path d="M1603.79 40.3875C1602.85 30.1179 1602.34 19.7759 1602.34 9.43393C1602.34 8.85536 1601.47 8.85536 1601.47 9.43393C1601.47 19.7759 1601.91 30.1179 1602.92 40.3875C1602.99 40.8938 1603.86 40.9661 1603.79 40.3875Z" fill="#D64B34"/>
<path d="M1607.9 43.6419C1607.62 43.3526 1607.18 43.4973 1606.89 43.4973C1606.75 41.5446 1605.95 39.5919 1603.57 39.7365C1601.26 39.8812 1600.03 42.0508 1600.03 44.1482C1599.45 44.2205 1598.87 44.2928 1598.29 44.2928C1598.15 44.2928 1598 44.5098 1598 44.7267C1598 45.6669 1598 46.6794 1598 47.6196C1598 47.9089 1598 48.1982 1598 48.4874C1597.86 48.7044 1597.93 49.2107 1598.22 49.2107C1598.29 49.283 1598.44 49.283 1598.51 49.2107C1600.68 49.2107 1602.77 49.2107 1604.94 49.2107C1605.52 49.2107 1606.1 49.2107 1606.68 49.2107C1606.97 49.2107 1607.25 49.283 1607.54 49.066C1608.12 48.6321 1608.12 47.1857 1608.12 46.3901C1608.19 45.6669 1608.34 44.1482 1607.9 43.6419ZM1601.55 44.0035C1601.62 42.7017 1602.12 41.3276 1603.57 41.183C1605.09 41.0383 1605.38 42.3401 1605.45 43.5696C1605.3 43.5696 1605.23 43.5696 1605.09 43.5696C1603.86 43.7865 1602.7 43.9312 1601.55 44.0035Z" fill="#256338"/>
<path d="M1624.82 75.8973C1624.74 76.1866 1624.6 76.4759 1624.53 76.8375C1624.17 77.9223 1623.66 79.0071 1623.15 79.9473C1621.06 83.7804 1617.66 86.6732 1613.61 88.3366C1605.09 91.9527 1594.75 89.3491 1588.61 82.4062C1587.45 81.1045 1586.51 79.658 1585.72 78.2116C1585.57 77.9223 1585.43 77.633 1585.28 77.3437C1582.83 72.2089 1582.25 66.2062 1584.06 60.8545C1584.13 60.5652 1584.27 60.2759 1584.34 60.0589C1584.78 58.9741 1585.28 57.9616 1585.86 56.9491C1588.1 53.1161 1591.64 50.2955 1595.91 48.9214C1600.24 47.475 1605.16 47.6196 1609.57 48.7768C1615.13 50.2232 1620.55 53.6223 1623.59 58.7571C1623.73 58.9741 1623.88 59.2634 1624.02 59.4804C1624.45 60.3482 1624.82 61.2161 1625.1 62.1563C1626.41 66.4232 1626.19 71.558 1624.82 75.8973Z" fill="#FFCE15"/>
<path d="M1589.4 66.2785C1588.54 67.8696 1586.95 69.0991 1585.14 69.7499C1586.95 70.3285 1588.46 71.6303 1589.26 73.2937C1589.26 73.366 1589.33 73.366 1589.4 73.4383C1589.4 72.8598 1589.55 72.2089 1589.69 71.7026C1590.27 70.1116 1591.43 69.3883 1592.8 69.2437C1591.35 68.5928 1590.13 67.6526 1589.4 66.2785Z" fill="white"/>
<path d="M1595.98 69.1715C1597.5 70.184 1598.51 71.9197 1599.02 73.7277C1599.74 71.992 1601.18 70.5456 1602.92 69.967C1602.99 69.967 1602.99 69.8947 1603.06 69.8947C1602.48 69.8224 1601.83 69.6777 1601.33 69.3884C1599.81 68.6652 1599.23 67.4358 1599.16 65.9893C1598.44 67.4358 1597.35 68.5929 1595.98 69.1715Z" fill="white"/>
<path d="M1610.22 65.6277C1609.93 66.2786 1609.57 66.7849 1609.13 67.2911C1608.48 68.159 1607.54 68.8099 1606.46 69.0992C1608.05 69.8947 1609.35 71.3411 1610 73.0045C1610.51 71.1965 1612.17 70.0393 1613.76 69.0268C1612.24 68.3759 1610.94 67.1465 1610.22 65.6277Z" fill="white"/>
<path d="M1616.58 67.508C1617.23 67.7973 1617.73 68.1589 1618.24 68.5929C1619.11 69.2438 1619.76 70.1839 1620.05 71.2687C1620.84 69.6777 1622.29 68.3759 1623.95 67.725C1622.14 67.2187 1620.99 65.5554 1619.97 63.9643C1619.32 65.5554 1618.09 66.8571 1616.58 67.508Z" fill="white"/>
<path d="M1623.95 59.4804C1610.94 62.8072 1597.28 62.2286 1583.98 60.8545C1584.06 60.5652 1584.2 60.2759 1584.27 60.059C1597.35 61.3608 1610.72 61.9393 1623.51 58.7572C1623.66 58.9018 1623.8 59.1911 1623.95 59.4804C1623.95 59.4081 1623.95 59.4081 1623.95 59.4804Z" fill="white"/>
<path d="M1624.82 75.8973C1624.74 76.1866 1624.6 76.4759 1624.53 76.8375C1611.66 78.5732 1598.65 79.0795 1585.72 78.2116C1585.57 77.9223 1585.43 77.633 1585.28 77.3437C1598.44 78.2116 1611.73 77.7777 1624.82 75.8973Z" fill="white"/>
<path d="M534.785 40.3875C533.846 30.1179 533.34 19.7759 533.34 9.43393C533.34 8.85536 532.473 8.85536 532.473 9.43393C532.473 19.7759 532.906 30.1179 533.918 40.3875C533.99 40.8938 534.858 40.9661 534.785 40.3875Z" fill="#D64B34"/>
<path d="M538.905 43.6419C538.616 43.3526 538.182 43.4973 537.893 43.4973C537.748 41.5446 536.953 39.5919 534.569 39.7365C532.256 39.8812 531.027 42.0508 531.027 44.1482C530.449 44.2205 529.871 44.2928 529.293 44.2928C529.148 44.2928 529.004 44.5098 529.004 44.7267C529.004 45.6669 529.004 46.6794 529.004 47.6196C529.004 47.9089 529.004 48.1982 529.004 48.4874C528.859 48.7044 528.932 49.2107 529.221 49.2107C529.293 49.283 529.438 49.283 529.51 49.2107C531.678 49.2107 533.774 49.2107 535.942 49.2107C536.52 49.2107 537.098 49.2107 537.676 49.2107C537.965 49.2107 538.254 49.283 538.543 49.066C539.122 48.6321 539.122 47.1857 539.122 46.3901C539.194 45.6669 539.338 44.1482 538.905 43.6419ZM532.545 44.0035C532.617 42.7017 533.123 41.3276 534.569 41.183C536.086 41.0383 536.375 42.3401 536.448 43.5696C536.303 43.5696 536.231 43.5696 536.086 43.5696C534.858 43.7865 533.701 43.9312 532.545 44.0035Z" fill="#256338"/>
<path d="M555.816 75.8973C555.743 76.1866 555.599 76.4759 555.526 76.8375C555.165 77.9223 554.659 79.0071 554.153 79.9473C552.058 83.7804 548.661 86.6732 544.614 88.3366C536.086 91.9527 525.752 89.3491 519.609 82.4062C518.452 81.1045 517.513 79.658 516.718 78.2116C516.573 77.9223 516.429 77.633 516.284 77.3437C513.827 72.2089 513.249 66.2062 515.056 60.8545C515.128 60.5652 515.273 60.2759 515.345 60.0589C515.779 58.9741 516.284 57.9616 516.863 56.9491C519.103 53.1161 522.644 50.2955 526.908 48.9214C531.244 47.475 536.158 47.6196 540.567 48.7768C546.131 50.2232 551.552 53.6223 554.587 58.7571C554.731 58.9741 554.876 59.2634 555.021 59.4804C555.454 60.3482 555.816 61.2161 556.105 62.1563C557.405 66.4232 557.189 71.558 555.816 75.8973Z" fill="#FFCE15"/>
<path d="M520.404 66.2785C519.536 67.8696 517.946 69.0991 516.14 69.7499C517.946 70.3285 519.464 71.6303 520.259 73.2937C520.259 73.366 520.331 73.366 520.404 73.4383C520.404 72.8598 520.548 72.2089 520.693 71.7026C521.271 70.1116 522.427 69.3883 523.8 69.2437C522.355 68.5928 521.126 67.6526 520.404 66.2785Z" fill="white"/>
<path d="M526.98 69.1715C528.498 70.184 529.51 71.9197 530.016 73.7277C530.738 71.992 532.184 70.5456 533.918 69.967C533.991 69.967 533.991 69.8947 534.063 69.8947C533.485 69.8224 532.834 69.6777 532.328 69.3884C530.811 68.6652 530.233 67.4358 530.16 65.9893C529.438 67.4358 528.354 68.5929 526.98 69.1715Z" fill="white"/>
<path d="M541.217 65.6277C540.928 66.2786 540.567 66.7849 540.133 67.2911C539.483 68.159 538.543 68.8099 537.459 69.0992C539.049 69.8947 540.35 71.3411 541 73.0045C541.506 71.1965 543.168 70.0393 544.758 69.0268C543.24 68.3759 541.94 67.1465 541.217 65.6277Z" fill="white"/>
<path d="M547.577 67.508C548.228 67.7973 548.733 68.1589 549.239 68.5929C550.107 69.2438 550.757 70.1839 551.046 71.2687C551.841 69.6777 553.286 68.3759 554.949 67.725C553.142 67.2187 551.986 65.5554 550.974 63.9643C550.323 65.5554 549.095 66.8571 547.577 67.508Z" fill="white"/>
<path d="M554.948 59.4804C541.94 62.8072 528.281 62.2286 514.983 60.8545C515.056 60.5652 515.2 60.2759 515.272 60.059C528.353 61.3608 541.723 61.9393 554.514 58.7572C554.659 58.9018 554.804 59.1911 554.948 59.4804C554.948 59.4081 554.948 59.4081 554.948 59.4804Z" fill="white"/>
<path d="M555.815 75.8973C555.743 76.1866 555.598 76.4759 555.526 76.8375C542.662 78.5732 529.654 79.0795 516.718 78.2116C516.573 77.9223 516.429 77.633 516.284 77.3437C529.437 78.2116 542.735 77.7777 555.815 75.8973Z" fill="white"/>
<path d="M748.785 40.3875C747.846 30.1179 747.34 19.7759 747.34 9.43393C747.34 8.85536 746.473 8.85536 746.473 9.43393C746.473 19.7759 746.906 30.1179 747.918 40.3875C747.99 40.8938 748.858 40.9661 748.785 40.3875Z" fill="#D64B34"/>
<path d="M752.905 43.6419C752.616 43.3526 752.182 43.4973 751.893 43.4973C751.748 41.5446 750.953 39.5919 748.569 39.7365C746.256 39.8812 745.027 42.0508 745.027 44.1482C744.449 44.2205 743.871 44.2928 743.293 44.2928C743.148 44.2928 743.004 44.5098 743.004 44.7267C743.004 45.6669 743.004 46.6794 743.004 47.6196C743.004 47.9089 743.004 48.1982 743.004 48.4874C742.859 48.7044 742.932 49.2107 743.221 49.2107C743.293 49.283 743.438 49.283 743.51 49.2107C745.678 49.2107 747.774 49.2107 749.942 49.2107C750.52 49.2107 751.098 49.2107 751.676 49.2107C751.965 49.2107 752.254 49.283 752.543 49.066C753.122 48.6321 753.122 47.1857 753.122 46.3901C753.194 45.6669 753.338 44.1482 752.905 43.6419ZM746.545 44.0035C746.617 42.7017 747.123 41.3276 748.569 41.183C750.086 41.0383 750.375 42.3401 750.448 43.5696C750.303 43.5696 750.231 43.5696 750.086 43.5696C748.858 43.7865 747.701 43.9312 746.545 44.0035Z" fill="#256338"/>
<path d="M769.816 75.8973C769.743 76.1866 769.599 76.4759 769.526 76.8375C769.165 77.9223 768.659 79.0071 768.153 79.9473C766.058 83.7804 762.661 86.6732 758.614 88.3366C750.086 91.9527 739.752 89.3491 733.609 82.4062C732.452 81.1045 731.513 79.658 730.718 78.2116C730.573 77.9223 730.429 77.633 730.284 77.3437C727.827 72.2089 727.249 66.2062 729.056 60.8545C729.128 60.5652 729.273 60.2759 729.345 60.0589C729.779 58.9741 730.284 57.9616 730.863 56.9491C733.103 53.1161 736.644 50.2955 740.908 48.9214C745.244 47.475 750.158 47.6196 754.567 48.7768C760.131 50.2232 765.552 53.6223 768.587 58.7571C768.731 58.9741 768.876 59.2634 769.021 59.4804C769.454 60.3482 769.816 61.2161 770.105 62.1563C771.405 66.4232 771.189 71.558 769.816 75.8973Z" fill="#FFCE15"/>
<path d="M734.404 66.2785C733.536 67.8696 731.946 69.0991 730.14 69.7499C731.946 70.3285 733.464 71.6303 734.259 73.2937C734.259 73.366 734.331 73.366 734.404 73.4383C734.404 72.8598 734.548 72.2089 734.693 71.7026C735.271 70.1116 736.427 69.3883 737.8 69.2437C736.355 68.5928 735.126 67.6526 734.404 66.2785Z" fill="white"/>
<path d="M740.98 69.1715C742.498 70.184 743.51 71.9197 744.016 73.7277C744.738 71.992 746.184 70.5456 747.918 69.967C747.991 69.967 747.991 69.8947 748.063 69.8947C747.485 69.8224 746.834 69.6777 746.328 69.3884C744.811 68.6652 744.233 67.4358 744.16 65.9893C743.438 67.4358 742.354 68.5929 740.98 69.1715Z" fill="white"/>
<path d="M755.217 65.6277C754.928 66.2786 754.567 66.7849 754.133 67.2911C753.483 68.159 752.543 68.8099 751.459 69.0992C753.049 69.8947 754.35 71.3411 755 73.0045C755.506 71.1965 757.168 70.0393 758.758 69.0268C757.24 68.3759 755.94 67.1465 755.217 65.6277Z" fill="white"/>
<path d="M761.577 67.508C762.228 67.7973 762.733 68.1589 763.239 68.5929C764.107 69.2438 764.757 70.1839 765.046 71.2687C765.841 69.6777 767.286 68.3759 768.949 67.725C767.142 67.2187 765.986 65.5554 764.974 63.9643C764.323 65.5554 763.095 66.8571 761.577 67.508Z" fill="white"/>
<path d="M768.948 59.4804C755.94 62.8072 742.281 62.2286 728.983 60.8545C729.056 60.5652 729.2 60.2759 729.272 60.059C742.353 61.3608 755.723 61.9393 768.514 58.7572C768.659 58.9018 768.804 59.1911 768.948 59.4804C768.948 59.4081 768.948 59.4081 768.948 59.4804Z" fill="white"/>
<path d="M769.815 75.8973C769.743 76.1866 769.598 76.4759 769.526 76.8375C756.662 78.5732 743.654 79.0795 730.718 78.2116C730.573 77.9223 730.429 77.633 730.284 77.3437C743.437 78.2116 756.735 77.7777 769.815 75.8973Z" fill="white"/>
<path d="M962.785 40.3875C961.846 30.1179 961.34 19.7759 961.34 9.43393C961.34 8.85536 960.473 8.85536 960.473 9.43393C960.473 19.7759 960.906 30.1179 961.918 40.3875C961.99 40.8938 962.858 40.9661 962.785 40.3875Z" fill="#D64B34"/>
<path d="M966.905 43.6419C966.616 43.3526 966.182 43.4973 965.893 43.4973C965.748 41.5446 964.953 39.5919 962.569 39.7365C960.256 39.8812 959.027 42.0508 959.027 44.1482C958.449 44.2205 957.871 44.2928 957.293 44.2928C957.148 44.2928 957.004 44.5098 957.004 44.7267C957.004 45.6669 957.004 46.6794 957.004 47.6196C957.004 47.9089 957.004 48.1982 957.004 48.4874C956.859 48.7044 956.932 49.2107 957.221 49.2107C957.293 49.283 957.438 49.283 957.51 49.2107C959.678 49.2107 961.774 49.2107 963.942 49.2107C964.52 49.2107 965.098 49.2107 965.676 49.2107C965.965 49.2107 966.254 49.283 966.543 49.066C967.122 48.6321 967.122 47.1857 967.122 46.3901C967.194 45.6669 967.338 44.1482 966.905 43.6419ZM960.545 44.0035C960.617 42.7017 961.123 41.3276 962.569 41.183C964.086 41.0383 964.375 42.3401 964.448 43.5696C964.303 43.5696 964.231 43.5696 964.086 43.5696C962.858 43.7865 961.701 43.9312 960.545 44.0035Z" fill="#256338"/>
<path d="M983.816 75.8973C983.743 76.1866 983.599 76.4759 983.526 76.8375C983.165 77.9223 982.659 79.0071 982.153 79.9473C980.058 83.7804 976.661 86.6732 972.614 88.3366C964.086 91.9527 953.752 89.3491 947.609 82.4062C946.452 81.1045 945.513 79.658 944.718 78.2116C944.573 77.9223 944.429 77.633 944.284 77.3437C941.827 72.2089 941.249 66.2062 943.056 60.8545C943.128 60.5652 943.273 60.2759 943.345 60.0589C943.779 58.9741 944.284 57.9616 944.863 56.9491C947.103 53.1161 950.644 50.2955 954.908 48.9214C959.244 47.475 964.158 47.6196 968.567 48.7768C974.131 50.2232 979.552 53.6223 982.587 58.7571C982.731 58.9741 982.876 59.2634 983.021 59.4804C983.454 60.3482 983.816 61.2161 984.105 62.1563C985.405 66.4232 985.189 71.558 983.816 75.8973Z" fill="#FFCE15"/>
<path d="M948.404 66.2785C947.536 67.8696 945.946 69.0991 944.14 69.7499C945.946 70.3285 947.464 71.6303 948.259 73.2937C948.259 73.366 948.331 73.366 948.404 73.4383C948.404 72.8598 948.548 72.2089 948.693 71.7026C949.271 70.1116 950.427 69.3883 951.8 69.2437C950.355 68.5928 949.126 67.6526 948.404 66.2785Z" fill="white"/>
<path d="M954.98 69.1715C956.498 70.184 957.51 71.9197 958.016 73.7277C958.738 71.992 960.184 70.5456 961.918 69.967C961.991 69.967 961.991 69.8947 962.063 69.8947C961.485 69.8224 960.834 69.6777 960.328 69.3884C958.811 68.6652 958.233 67.4358 958.16 65.9893C957.438 67.4358 956.354 68.5929 954.98 69.1715Z" fill="white"/>
<path d="M969.217 65.6277C968.928 66.2786 968.567 66.7849 968.133 67.2911C967.483 68.159 966.543 68.8099 965.459 69.0992C967.049 69.8947 968.35 71.3411 969 73.0045C969.506 71.1965 971.168 70.0393 972.758 69.0268C971.24 68.3759 969.94 67.1465 969.217 65.6277Z" fill="white"/>
<path d="M975.577 67.508C976.228 67.7973 976.733 68.1589 977.239 68.5929C978.107 69.2438 978.757 70.1839 979.046 71.2687C979.841 69.6777 981.286 68.3759 982.949 67.725C981.142 67.2187 979.986 65.5554 978.974 63.9643C978.323 65.5554 977.095 66.8571 975.577 67.508Z" fill="white"/>
<path d="M982.948 59.4804C969.94 62.8072 956.281 62.2286 942.983 60.8545C943.056 60.5652 943.2 60.2759 943.272 60.059C956.353 61.3608 969.723 61.9393 982.514 58.7572C982.659 58.9018 982.804 59.1911 982.948 59.4804C982.948 59.4081 982.948 59.4081 982.948 59.4804Z" fill="white"/>
<path d="M983.815 75.8973C983.743 76.1866 983.598 76.4759 983.526 76.8375C970.662 78.5732 957.654 79.0795 944.718 78.2116C944.573 77.9223 944.429 77.633 944.284 77.3437C957.437 78.2116 970.735 77.7777 983.815 75.8973Z" fill="white"/>
<path d="M1176.79 40.3875C1175.85 30.1179 1175.34 19.7759 1175.34 9.43393C1175.34 8.85536 1174.47 8.85536 1174.47 9.43393C1174.47 19.7759 1174.91 30.1179 1175.92 40.3875C1175.99 40.8938 1176.86 40.9661 1176.79 40.3875Z" fill="#D64B34"/>
<path d="M1180.9 43.6419C1180.62 43.3526 1180.18 43.4973 1179.89 43.4973C1179.75 41.5446 1178.95 39.5919 1176.57 39.7365C1174.26 39.8812 1173.03 42.0508 1173.03 44.1482C1172.45 44.2205 1171.87 44.2928 1171.29 44.2928C1171.15 44.2928 1171 44.5098 1171 44.7267C1171 45.6669 1171 46.6794 1171 47.6196C1171 47.9089 1171 48.1982 1171 48.4874C1170.86 48.7044 1170.93 49.2107 1171.22 49.2107C1171.29 49.283 1171.44 49.283 1171.51 49.2107C1173.68 49.2107 1175.77 49.2107 1177.94 49.2107C1178.52 49.2107 1179.1 49.2107 1179.68 49.2107C1179.97 49.2107 1180.25 49.283 1180.54 49.066C1181.12 48.6321 1181.12 47.1857 1181.12 46.3901C1181.19 45.6669 1181.34 44.1482 1180.9 43.6419ZM1174.55 44.0035C1174.62 42.7017 1175.12 41.3276 1176.57 41.183C1178.09 41.0383 1178.38 42.3401 1178.45 43.5696C1178.3 43.5696 1178.23 43.5696 1178.09 43.5696C1176.86 43.7865 1175.7 43.9312 1174.55 44.0035Z" fill="#256338"/>
<path d="M1197.82 75.8973C1197.74 76.1866 1197.6 76.4759 1197.53 76.8375C1197.17 77.9223 1196.66 79.0071 1196.15 79.9473C1194.06 83.7804 1190.66 86.6732 1186.61 88.3366C1178.09 91.9527 1167.75 89.3491 1161.61 82.4062C1160.45 81.1045 1159.51 79.658 1158.72 78.2116C1158.57 77.9223 1158.43 77.633 1158.28 77.3437C1155.83 72.2089 1155.25 66.2062 1157.06 60.8545C1157.13 60.5652 1157.27 60.2759 1157.34 60.0589C1157.78 58.9741 1158.28 57.9616 1158.86 56.9491C1161.1 53.1161 1164.64 50.2955 1168.91 48.9214C1173.24 47.475 1178.16 47.6196 1182.57 48.7768C1188.13 50.2232 1193.55 53.6223 1196.59 58.7571C1196.73 58.9741 1196.88 59.2634 1197.02 59.4804C1197.45 60.3482 1197.82 61.2161 1198.1 62.1563C1199.41 66.4232 1199.19 71.558 1197.82 75.8973Z" fill="#FFCE15"/>
<path d="M1162.4 66.2785C1161.54 67.8696 1159.95 69.0991 1158.14 69.7499C1159.95 70.3285 1161.46 71.6303 1162.26 73.2937C1162.26 73.366 1162.33 73.366 1162.4 73.4383C1162.4 72.8598 1162.55 72.2089 1162.69 71.7026C1163.27 70.1116 1164.43 69.3883 1165.8 69.2437C1164.35 68.5928 1163.13 67.6526 1162.4 66.2785Z" fill="white"/>
<path d="M1168.98 69.1715C1170.5 70.184 1171.51 71.9197 1172.02 73.7277C1172.74 71.992 1174.18 70.5456 1175.92 69.967C1175.99 69.967 1175.99 69.8947 1176.06 69.8947C1175.48 69.8224 1174.83 69.6777 1174.33 69.3884C1172.81 68.6652 1172.23 67.4358 1172.16 65.9893C1171.44 67.4358 1170.35 68.5929 1168.98 69.1715Z" fill="white"/>
<path d="M1183.22 65.6277C1182.93 66.2786 1182.57 66.7849 1182.13 67.2911C1181.48 68.159 1180.54 68.8099 1179.46 69.0992C1181.05 69.8947 1182.35 71.3411 1183 73.0045C1183.51 71.1965 1185.17 70.0393 1186.76 69.0268C1185.24 68.3759 1183.94 67.1465 1183.22 65.6277Z" fill="white"/>
<path d="M1189.58 67.508C1190.23 67.7973 1190.73 68.1589 1191.24 68.5929C1192.11 69.2438 1192.76 70.1839 1193.05 71.2687C1193.84 69.6777 1195.29 68.3759 1196.95 67.725C1195.14 67.2187 1193.99 65.5554 1192.97 63.9643C1192.32 65.5554 1191.09 66.8571 1189.58 67.508Z" fill="white"/>
<path d="M1196.95 59.4804C1183.94 62.8072 1170.28 62.2286 1156.98 60.8545C1157.06 60.5652 1157.2 60.2759 1157.27 60.059C1170.35 61.3608 1183.72 61.9393 1196.51 58.7572C1196.66 58.9018 1196.8 59.1911 1196.95 59.4804C1196.95 59.4081 1196.95 59.4081 1196.95 59.4804Z" fill="white"/>
<path d="M1197.82 75.8973C1197.74 76.1866 1197.6 76.4759 1197.53 76.8375C1184.66 78.5732 1171.65 79.0795 1158.72 78.2116C1158.57 77.9223 1158.43 77.633 1158.28 77.3437C1171.44 78.2116 1184.73 77.7777 1197.82 75.8973Z" fill="white"/>
<path d="M1390.79 40.3875C1389.85 30.1179 1389.34 19.7759 1389.34 9.43393C1389.34 8.85536 1388.47 8.85536 1388.47 9.43393C1388.47 19.7759 1388.91 30.1179 1389.92 40.3875C1389.99 40.8938 1390.86 40.9661 1390.79 40.3875Z" fill="#D64B34"/>
<path d="M1394.9 43.6419C1394.62 43.3526 1394.18 43.4973 1393.89 43.4973C1393.75 41.5446 1392.95 39.5919 1390.57 39.7365C1388.26 39.8812 1387.03 42.0508 1387.03 44.1482C1386.45 44.2205 1385.87 44.2928 1385.29 44.2928C1385.15 44.2928 1385 44.5098 1385 44.7267C1385 45.6669 1385 46.6794 1385 47.6196C1385 47.9089 1385 48.1982 1385 48.4874C1384.86 48.7044 1384.93 49.2107 1385.22 49.2107C1385.29 49.283 1385.44 49.283 1385.51 49.2107C1387.68 49.2107 1389.77 49.2107 1391.94 49.2107C1392.52 49.2107 1393.1 49.2107 1393.68 49.2107C1393.97 49.2107 1394.25 49.283 1394.54 49.066C1395.12 48.6321 1395.12 47.1857 1395.12 46.3901C1395.19 45.6669 1395.34 44.1482 1394.9 43.6419ZM1388.55 44.0035C1388.62 42.7017 1389.12 41.3276 1390.57 41.183C1392.09 41.0383 1392.38 42.3401 1392.45 43.5696C1392.3 43.5696 1392.23 43.5696 1392.09 43.5696C1390.86 43.7865 1389.7 43.9312 1388.55 44.0035Z" fill="#256338"/>
<path d="M1411.82 75.8973C1411.74 76.1866 1411.6 76.4759 1411.53 76.8375C1411.17 77.9223 1410.66 79.0071 1410.15 79.9473C1408.06 83.7804 1404.66 86.6732 1400.61 88.3366C1392.09 91.9527 1381.75 89.3491 1375.61 82.4062C1374.45 81.1045 1373.51 79.658 1372.72 78.2116C1372.57 77.9223 1372.43 77.633 1372.28 77.3437C1369.83 72.2089 1369.25 66.2062 1371.06 60.8545C1371.13 60.5652 1371.27 60.2759 1371.34 60.0589C1371.78 58.9741 1372.28 57.9616 1372.86 56.9491C1375.1 53.1161 1378.64 50.2955 1382.91 48.9214C1387.24 47.475 1392.16 47.6196 1396.57 48.7768C1402.13 50.2232 1407.55 53.6223 1410.59 58.7571C1410.73 58.9741 1410.88 59.2634 1411.02 59.4804C1411.45 60.3482 1411.82 61.2161 1412.1 62.1563C1413.41 66.4232 1413.19 71.558 1411.82 75.8973Z" fill="#FFCE15"/>
<path d="M1376.4 66.2785C1375.54 67.8696 1373.95 69.0991 1372.14 69.7499C1373.95 70.3285 1375.46 71.6303 1376.26 73.2937C1376.26 73.366 1376.33 73.366 1376.4 73.4383C1376.4 72.8598 1376.55 72.2089 1376.69 71.7026C1377.27 70.1116 1378.43 69.3883 1379.8 69.2437C1378.35 68.5928 1377.13 67.6526 1376.4 66.2785Z" fill="white"/>
<path d="M1382.98 69.1715C1384.5 70.184 1385.51 71.9197 1386.02 73.7277C1386.74 71.992 1388.18 70.5456 1389.92 69.967C1389.99 69.967 1389.99 69.8947 1390.06 69.8947C1389.48 69.8224 1388.83 69.6777 1388.33 69.3884C1386.81 68.6652 1386.23 67.4358 1386.16 65.9893C1385.44 67.4358 1384.35 68.5929 1382.98 69.1715Z" fill="white"/>
<path d="M1397.22 65.6277C1396.93 66.2786 1396.57 66.7849 1396.13 67.2911C1395.48 68.159 1394.54 68.8099 1393.46 69.0992C1395.05 69.8947 1396.35 71.3411 1397 73.0045C1397.51 71.1965 1399.17 70.0393 1400.76 69.0268C1399.24 68.3759 1397.94 67.1465 1397.22 65.6277Z" fill="white"/>
<path d="M1403.58 67.508C1404.23 67.7973 1404.73 68.1589 1405.24 68.5929C1406.11 69.2438 1406.76 70.1839 1407.05 71.2687C1407.84 69.6777 1409.29 68.3759 1410.95 67.725C1409.14 67.2187 1407.99 65.5554 1406.97 63.9643C1406.32 65.5554 1405.09 66.8571 1403.58 67.508Z" fill="white"/>
<path d="M1410.95 59.4804C1397.94 62.8072 1384.28 62.2286 1370.98 60.8545C1371.06 60.5652 1371.2 60.2759 1371.27 60.059C1384.35 61.3608 1397.72 61.9393 1410.51 58.7572C1410.66 58.9018 1410.8 59.1911 1410.95 59.4804C1410.95 59.4081 1410.95 59.4081 1410.95 59.4804Z" fill="white"/>
<path d="M1411.82 75.8973C1411.74 76.1866 1411.6 76.4759 1411.53 76.8375C1398.66 78.5732 1385.65 79.0795 1372.72 78.2116C1372.57 77.9223 1372.43 77.633 1372.28 77.3437C1385.44 78.2116 1398.73 77.7777 1411.82 75.8973Z" fill="white"/>
<path d="M428.051 28.7625C427.461 22.2964 427.143 15.7848 427.143 9.27321C427.143 8.90893 426.599 8.90893 426.599 9.27321C426.599 15.7848 426.871 22.2964 427.506 28.7625C427.552 29.0812 428.096 29.1268 428.051 28.7625Z" fill="#D64B34"/>
<path d="M430.638 30.8116C430.457 30.6294 430.184 30.7205 430.003 30.7205C429.912 29.491 429.413 28.2616 427.915 28.3526C426.463 28.4437 425.692 29.8098 425.692 31.1303C425.329 31.1758 424.966 31.2214 424.603 31.2214C424.512 31.2214 424.421 31.358 424.421 31.4946C424.421 32.0866 424.421 32.7241 424.421 33.316C424.421 33.4982 424.421 33.6803 424.421 33.8625C424.331 33.9991 424.376 34.3178 424.557 34.3178C424.603 34.3633 424.694 34.3633 424.739 34.3178C426.1 34.3178 427.416 34.3178 428.778 34.3178C429.141 34.3178 429.504 34.3178 429.867 34.3178C430.048 34.3178 430.23 34.3634 430.411 34.2267C430.774 33.9535 430.774 33.0428 430.774 32.5419C430.82 32.0866 430.91 31.1303 430.638 30.8116ZM426.645 31.0392C426.69 30.2196 427.008 29.3544 427.915 29.2633C428.868 29.1723 429.05 29.9919 429.095 30.766C429.005 30.766 428.959 30.766 428.868 30.766C428.097 30.9026 427.371 30.9937 426.645 31.0392Z" fill="#256338"/>
<path d="M441.256 51.1205C441.211 51.3027 441.12 51.4848 441.075 51.7125C440.848 52.3955 440.53 53.0786 440.213 53.6705C438.897 56.0839 436.764 57.9053 434.223 58.9527C428.868 61.2294 422.379 59.5902 418.522 55.2187C417.796 54.3991 417.206 53.4884 416.707 52.5777C416.616 52.3955 416.525 52.2134 416.434 52.0312C414.892 48.7982 414.529 45.0187 415.663 41.6491C415.708 41.4669 415.799 41.2848 415.844 41.1482C416.117 40.4652 416.434 39.8277 416.797 39.1902C418.204 36.7768 420.428 35.0009 423.105 34.1357C425.828 33.225 428.913 33.3161 431.681 34.0446C435.176 34.9553 438.579 37.0955 440.485 40.3286C440.576 40.4652 440.666 40.6473 440.757 40.7839C441.029 41.3303 441.256 41.8768 441.438 42.4687C442.255 45.1553 442.118 48.3884 441.256 51.1205Z" fill="#FFCE15"/>
<path d="M419.021 45.0642C418.477 46.066 417.478 46.8401 416.344 47.2499C417.478 47.6142 418.431 48.4339 418.93 49.4812C418.93 49.5267 418.976 49.5267 419.021 49.5723C419.021 49.208 419.112 48.7982 419.203 48.4794C419.566 47.4776 420.292 47.0223 421.154 46.9312C420.246 46.5214 419.475 45.9294 419.021 45.0642Z" fill="white"/>
<path d="M423.15 46.8858C424.103 47.5233 424.739 48.6161 425.056 49.7545C425.51 48.6617 426.418 47.751 427.507 47.3867C427.552 47.3867 427.552 47.3411 427.597 47.3411C427.234 47.2956 426.826 47.2045 426.508 47.0224C425.555 46.567 425.192 45.7929 425.147 44.8822C424.693 45.7929 424.013 46.5215 423.15 46.8858Z" fill="white"/>
<path d="M432.09 44.6545C431.909 45.0643 431.682 45.3831 431.409 45.7018C431.001 46.2483 430.411 46.6581 429.73 46.8402C430.729 47.3411 431.546 48.2518 431.954 49.2992C432.272 48.1608 433.315 47.4322 434.314 46.7947C433.361 46.3849 432.544 45.6108 432.09 44.6545Z" fill="white"/>
<path d="M436.083 45.8384C436.491 46.0205 436.809 46.2482 437.127 46.5214C437.671 46.9312 438.08 47.5232 438.261 48.2062C438.76 47.2044 439.668 46.3848 440.712 45.975C439.577 45.6562 438.851 44.6089 438.216 43.6071C437.807 44.6089 437.036 45.4285 436.083 45.8384Z" fill="white"/>
<path d="M440.711 40.7839C432.543 42.8786 423.967 42.5143 415.617 41.6491C415.663 41.467 415.753 41.2848 415.799 41.1482C424.012 41.9678 432.407 42.3321 440.439 40.3286C440.53 40.4196 440.621 40.6018 440.711 40.7839C440.711 40.7384 440.711 40.7384 440.711 40.7839Z" fill="white"/>
<path d="M441.256 51.1206C441.211 51.3027 441.12 51.4849 441.075 51.7125C432.998 52.8054 424.83 53.1241 416.707 52.5777C416.616 52.3956 416.525 52.2134 416.435 52.0313C424.693 52.5777 433.043 52.3045 441.256 51.1206Z" fill="white"/>
<path d="M642.051 28.7625C641.461 22.2964 641.143 15.7848 641.143 9.27321C641.143 8.90893 640.599 8.90893 640.599 9.27321C640.599 15.7848 640.871 22.2964 641.506 28.7625C641.552 29.0812 642.096 29.1268 642.051 28.7625Z" fill="#D64B34"/>
<path d="M644.638 30.8116C644.457 30.6294 644.184 30.7205 644.003 30.7205C643.912 29.491 643.413 28.2616 641.915 28.3526C640.463 28.4437 639.692 29.8098 639.692 31.1303C639.329 31.1758 638.966 31.2214 638.603 31.2214C638.512 31.2214 638.421 31.358 638.421 31.4946C638.421 32.0866 638.421 32.7241 638.421 33.316C638.421 33.4982 638.421 33.6803 638.421 33.8625C638.331 33.9991 638.376 34.3178 638.557 34.3178C638.603 34.3633 638.694 34.3633 638.739 34.3178C640.1 34.3178 641.416 34.3178 642.778 34.3178C643.141 34.3178 643.504 34.3178 643.867 34.3178C644.048 34.3178 644.23 34.3634 644.411 34.2267C644.774 33.9535 644.774 33.0428 644.774 32.5419C644.82 32.0866 644.91 31.1303 644.638 30.8116ZM640.645 31.0392C640.69 30.2196 641.008 29.3544 641.915 29.2633C642.868 29.1723 643.05 29.9919 643.095 30.766C643.005 30.766 642.959 30.766 642.868 30.766C642.097 30.9026 641.371 30.9937 640.645 31.0392Z" fill="#256338"/>
<path d="M655.256 51.1205C655.211 51.3027 655.12 51.4848 655.075 51.7125C654.848 52.3955 654.53 53.0786 654.213 53.6705C652.897 56.0839 650.764 57.9053 648.223 58.9527C642.868 61.2294 636.379 59.5902 632.522 55.2187C631.796 54.3991 631.206 53.4884 630.707 52.5777C630.616 52.3955 630.525 52.2134 630.434 52.0312C628.892 48.7982 628.529 45.0187 629.663 41.6491C629.708 41.4669 629.799 41.2848 629.844 41.1482C630.117 40.4652 630.434 39.8277 630.797 39.1902C632.204 36.7768 634.428 35.0009 637.105 34.1357C639.828 33.225 642.913 33.3161 645.681 34.0446C649.176 34.9553 652.579 37.0955 654.485 40.3286C654.576 40.4652 654.666 40.6473 654.757 40.7839C655.029 41.3303 655.256 41.8768 655.438 42.4687C656.255 45.1553 656.118 48.3884 655.256 51.1205Z" fill="#FFCE15"/>
<path d="M633.021 45.0642C632.477 46.066 631.478 46.8401 630.344 47.2499C631.478 47.6142 632.431 48.4339 632.93 49.4812C632.93 49.5267 632.976 49.5267 633.021 49.5723C633.021 49.208 633.112 48.7982 633.203 48.4794C633.566 47.4776 634.292 47.0223 635.154 46.9312C634.246 46.5214 633.475 45.9294 633.021 45.0642Z" fill="white"/>
<path d="M637.15 46.8858C638.103 47.5233 638.739 48.6161 639.056 49.7545C639.51 48.6617 640.418 47.751 641.507 47.3867C641.552 47.3867 641.552 47.3411 641.597 47.3411C641.234 47.2956 640.826 47.2045 640.508 47.0224C639.555 46.567 639.192 45.7929 639.147 44.8822C638.693 45.7929 638.013 46.5215 637.15 46.8858Z" fill="white"/>
<path d="M646.09 44.6545C645.909 45.0643 645.682 45.3831 645.409 45.7018C645.001 46.2483 644.411 46.6581 643.73 46.8402C644.729 47.3411 645.546 48.2518 645.954 49.2992C646.272 48.1608 647.315 47.4322 648.314 46.7947C647.361 46.3849 646.544 45.6108 646.09 44.6545Z" fill="white"/>
<path d="M650.083 45.8384C650.491 46.0205 650.809 46.2482 651.127 46.5214C651.671 46.9312 652.08 47.5232 652.261 48.2062C652.76 47.2044 653.668 46.3848 654.712 45.975C653.577 45.6562 652.851 44.6089 652.216 43.6071C651.807 44.6089 651.036 45.4285 650.083 45.8384Z" fill="white"/>
<path d="M654.711 40.7839C646.543 42.8786 637.967 42.5143 629.617 41.6491C629.663 41.467 629.753 41.2848 629.799 41.1482C638.012 41.9678 646.407 42.3321 654.439 40.3286C654.53 40.4196 654.621 40.6018 654.711 40.7839C654.711 40.7384 654.711 40.7384 654.711 40.7839Z" fill="white"/>
<path d="M655.256 51.1206C655.211 51.3027 655.12 51.4849 655.075 51.7125C646.998 52.8054 638.83 53.1241 630.707 52.5777C630.616 52.3956 630.525 52.2134 630.435 52.0313C638.693 52.5777 647.043 52.3045 655.256 51.1206Z" fill="white"/>
<path d="M856.051 28.7625C855.461 22.2964 855.143 15.7848 855.143 9.27321C855.143 8.90893 854.599 8.90893 854.599 9.27321C854.599 15.7848 854.871 22.2964 855.506 28.7625C855.552 29.0812 856.096 29.1268 856.051 28.7625Z" fill="#D64B34"/>
<path d="M858.638 30.8116C858.457 30.6294 858.184 30.7205 858.003 30.7205C857.912 29.491 857.413 28.2616 855.915 28.3526C854.463 28.4437 853.692 29.8098 853.692 31.1303C853.329 31.1758 852.966 31.2214 852.603 31.2214C852.512 31.2214 852.421 31.358 852.421 31.4946C852.421 32.0866 852.421 32.7241 852.421 33.316C852.421 33.4982 852.421 33.6803 852.421 33.8625C852.331 33.9991 852.376 34.3178 852.557 34.3178C852.603 34.3633 852.694 34.3633 852.739 34.3178C854.1 34.3178 855.416 34.3178 856.778 34.3178C857.141 34.3178 857.504 34.3178 857.867 34.3178C858.048 34.3178 858.23 34.3634 858.411 34.2267C858.774 33.9535 858.774 33.0428 858.774 32.5419C858.82 32.0866 858.91 31.1303 858.638 30.8116ZM854.645 31.0392C854.69 30.2196 855.008 29.3544 855.915 29.2633C856.868 29.1723 857.05 29.9919 857.095 30.766C857.005 30.766 856.959 30.766 856.868 30.766C856.097 30.9026 855.371 30.9937 854.645 31.0392Z" fill="#256338"/>
<path d="M869.256 51.1205C869.211 51.3027 869.12 51.4848 869.075 51.7125C868.848 52.3955 868.53 53.0786 868.213 53.6705C866.897 56.0839 864.764 57.9053 862.223 58.9527C856.868 61.2294 850.379 59.5902 846.522 55.2187C845.796 54.3991 845.206 53.4884 844.707 52.5777C844.616 52.3955 844.525 52.2134 844.434 52.0312C842.892 48.7982 842.529 45.0187 843.663 41.6491C843.708 41.4669 843.799 41.2848 843.844 41.1482C844.117 40.4652 844.434 39.8277 844.797 39.1902C846.204 36.7768 848.428 35.0009 851.105 34.1357C853.828 33.225 856.913 33.3161 859.681 34.0446C863.176 34.9553 866.579 37.0955 868.485 40.3286C868.576 40.4652 868.666 40.6473 868.757 40.7839C869.029 41.3303 869.256 41.8768 869.438 42.4687C870.255 45.1553 870.118 48.3884 869.256 51.1205Z" fill="#FFCE15"/>
<path d="M847.021 45.0642C846.477 46.066 845.478 46.8401 844.344 47.2499C845.478 47.6142 846.431 48.4339 846.93 49.4812C846.93 49.5267 846.976 49.5267 847.021 49.5723C847.021 49.208 847.112 48.7982 847.203 48.4794C847.566 47.4776 848.292 47.0223 849.154 46.9312C848.246 46.5214 847.475 45.9294 847.021 45.0642Z" fill="white"/>
<path d="M851.15 46.8858C852.103 47.5233 852.739 48.6161 853.056 49.7545C853.51 48.6617 854.418 47.751 855.507 47.3867C855.552 47.3867 855.552 47.3411 855.597 47.3411C855.234 47.2956 854.826 47.2045 854.508 47.0224C853.555 46.567 853.192 45.7929 853.147 44.8822C852.693 45.7929 852.013 46.5215 851.15 46.8858Z" fill="white"/>
<path d="M860.09 44.6545C859.909 45.0643 859.682 45.3831 859.409 45.7018C859.001 46.2483 858.411 46.6581 857.73 46.8402C858.729 47.3411 859.546 48.2518 859.954 49.2992C860.272 48.1608 861.315 47.4322 862.314 46.7947C861.361 46.3849 860.544 45.6108 860.09 44.6545Z" fill="white"/>
<path d="M864.083 45.8384C864.491 46.0205 864.809 46.2482 865.127 46.5214C865.671 46.9312 866.08 47.5232 866.261 48.2062C866.76 47.2044 867.668 46.3848 868.712 45.975C867.577 45.6562 866.851 44.6089 866.216 43.6071C865.807 44.6089 865.036 45.4285 864.083 45.8384Z" fill="white"/>
<path d="M868.711 40.7839C860.543 42.8786 851.967 42.5143 843.617 41.6491C843.663 41.467 843.753 41.2848 843.799 41.1482C852.012 41.9678 860.407 42.3321 868.439 40.3286C868.53 40.4196 868.621 40.6018 868.711 40.7839C868.711 40.7384 868.711 40.7384 868.711 40.7839Z" fill="white"/>
<path d="M869.256 51.1206C869.211 51.3027 869.12 51.4849 869.075 51.7125C860.998 52.8054 852.83 53.1241 844.707 52.5777C844.616 52.3956 844.525 52.2134 844.435 52.0313C852.693 52.5777 861.043 52.3045 869.256 51.1206Z" fill="white"/>
<path d="M1070.05 28.7625C1069.46 22.2964 1069.14 15.7848 1069.14 9.27321C1069.14 8.90893 1068.6 8.90893 1068.6 9.27321C1068.6 15.7848 1068.87 22.2964 1069.51 28.7625C1069.55 29.0812 1070.1 29.1268 1070.05 28.7625Z" fill="#D64B34"/>
<path d="M1072.64 30.8116C1072.46 30.6294 1072.18 30.7205 1072 30.7205C1071.91 29.491 1071.41 28.2616 1069.92 28.3526C1068.46 28.4437 1067.69 29.8098 1067.69 31.1303C1067.33 31.1758 1066.97 31.2214 1066.6 31.2214C1066.51 31.2214 1066.42 31.358 1066.42 31.4946C1066.42 32.0866 1066.42 32.7241 1066.42 33.316C1066.42 33.4982 1066.42 33.6803 1066.42 33.8625C1066.33 33.9991 1066.38 34.3178 1066.56 34.3178C1066.6 34.3633 1066.69 34.3633 1066.74 34.3178C1068.1 34.3178 1069.42 34.3178 1070.78 34.3178C1071.14 34.3178 1071.5 34.3178 1071.87 34.3178C1072.05 34.3178 1072.23 34.3634 1072.41 34.2267C1072.77 33.9535 1072.77 33.0428 1072.77 32.5419C1072.82 32.0866 1072.91 31.1303 1072.64 30.8116ZM1068.64 31.0392C1068.69 30.2196 1069.01 29.3544 1069.92 29.2633C1070.87 29.1723 1071.05 29.9919 1071.1 30.766C1071 30.766 1070.96 30.766 1070.87 30.766C1070.1 30.9026 1069.37 30.9937 1068.64 31.0392Z" fill="#256338"/>
<path d="M1083.26 51.1205C1083.21 51.3027 1083.12 51.4848 1083.07 51.7125C1082.85 52.3955 1082.53 53.0786 1082.21 53.6705C1080.9 56.0839 1078.76 57.9053 1076.22 58.9527C1070.87 61.2294 1064.38 59.5902 1060.52 55.2187C1059.8 54.3991 1059.21 53.4884 1058.71 52.5777C1058.62 52.3955 1058.53 52.2134 1058.43 52.0312C1056.89 48.7982 1056.53 45.0187 1057.66 41.6491C1057.71 41.4669 1057.8 41.2848 1057.84 41.1482C1058.12 40.4652 1058.43 39.8277 1058.8 39.1902C1060.2 36.7768 1062.43 35.0009 1065.1 34.1357C1067.83 33.225 1070.91 33.3161 1073.68 34.0446C1077.18 34.9553 1080.58 37.0955 1082.48 40.3286C1082.58 40.4652 1082.67 40.6473 1082.76 40.7839C1083.03 41.3303 1083.26 41.8768 1083.44 42.4687C1084.25 45.1553 1084.12 48.3884 1083.26 51.1205Z" fill="#FFCE15"/>
<path d="M1061.02 45.0642C1060.48 46.066 1059.48 46.8401 1058.34 47.2499C1059.48 47.6142 1060.43 48.4339 1060.93 49.4812C1060.93 49.5267 1060.98 49.5267 1061.02 49.5723C1061.02 49.208 1061.11 48.7982 1061.2 48.4794C1061.57 47.4776 1062.29 47.0223 1063.15 46.9312C1062.25 46.5214 1061.47 45.9294 1061.02 45.0642Z" fill="white"/>
<path d="M1065.15 46.8858C1066.1 47.5233 1066.74 48.6161 1067.06 49.7545C1067.51 48.6617 1068.42 47.751 1069.51 47.3867C1069.55 47.3867 1069.55 47.3411 1069.6 47.3411C1069.23 47.2956 1068.83 47.2045 1068.51 47.0224C1067.56 46.567 1067.19 45.7929 1067.15 44.8822C1066.69 45.7929 1066.01 46.5215 1065.15 46.8858Z" fill="white"/>
<path d="M1074.09 44.6545C1073.91 45.0643 1073.68 45.3831 1073.41 45.7018C1073 46.2483 1072.41 46.6581 1071.73 46.8402C1072.73 47.3411 1073.55 48.2518 1073.95 49.2992C1074.27 48.1608 1075.32 47.4322 1076.31 46.7947C1075.36 46.3849 1074.54 45.6108 1074.09 44.6545Z" fill="white"/>
<path d="M1078.08 45.8384C1078.49 46.0205 1078.81 46.2482 1079.13 46.5214C1079.67 46.9312 1080.08 47.5232 1080.26 48.2062C1080.76 47.2044 1081.67 46.3848 1082.71 45.975C1081.58 45.6562 1080.85 44.6089 1080.22 43.6071C1079.81 44.6089 1079.04 45.4285 1078.08 45.8384Z" fill="white"/>
<path d="M1082.71 40.7839C1074.54 42.8786 1065.97 42.5143 1057.62 41.6491C1057.66 41.467 1057.75 41.2848 1057.8 41.1482C1066.01 41.9678 1074.41 42.3321 1082.44 40.3286C1082.53 40.4196 1082.62 40.6018 1082.71 40.7839C1082.71 40.7384 1082.71 40.7384 1082.71 40.7839Z" fill="white"/>
<path d="M1083.26 51.1206C1083.21 51.3027 1083.12 51.4849 1083.07 51.7125C1075 52.8054 1066.83 53.1241 1058.71 52.5777C1058.62 52.3956 1058.53 52.2134 1058.43 52.0313C1066.69 52.5777 1075.04 52.3045 1083.26 51.1206Z" fill="white"/>
<path d="M1284.05 28.7625C1283.46 22.2964 1283.14 15.7848 1283.14 9.27321C1283.14 8.90893 1282.6 8.90893 1282.6 9.27321C1282.6 15.7848 1282.87 22.2964 1283.51 28.7625C1283.55 29.0812 1284.1 29.1268 1284.05 28.7625Z" fill="#D64B34"/>
<path d="M1286.64 30.8116C1286.46 30.6294 1286.18 30.7205 1286 30.7205C1285.91 29.491 1285.41 28.2616 1283.92 28.3526C1282.46 28.4437 1281.69 29.8098 1281.69 31.1303C1281.33 31.1758 1280.97 31.2214 1280.6 31.2214C1280.51 31.2214 1280.42 31.358 1280.42 31.4946C1280.42 32.0866 1280.42 32.7241 1280.42 33.316C1280.42 33.4982 1280.42 33.6803 1280.42 33.8625C1280.33 33.9991 1280.38 34.3178 1280.56 34.3178C1280.6 34.3633 1280.69 34.3633 1280.74 34.3178C1282.1 34.3178 1283.42 34.3178 1284.78 34.3178C1285.14 34.3178 1285.5 34.3178 1285.87 34.3178C1286.05 34.3178 1286.23 34.3634 1286.41 34.2267C1286.77 33.9535 1286.77 33.0428 1286.77 32.5419C1286.82 32.0866 1286.91 31.1303 1286.64 30.8116ZM1282.64 31.0392C1282.69 30.2196 1283.01 29.3544 1283.92 29.2633C1284.87 29.1723 1285.05 29.9919 1285.1 30.766C1285 30.766 1284.96 30.766 1284.87 30.766C1284.1 30.9026 1283.37 30.9937 1282.64 31.0392Z" fill="#256338"/>
<path d="M1297.26 51.1205C1297.21 51.3027 1297.12 51.4848 1297.07 51.7125C1296.85 52.3955 1296.53 53.0786 1296.21 53.6705C1294.9 56.0839 1292.76 57.9053 1290.22 58.9527C1284.87 61.2294 1278.38 59.5902 1274.52 55.2187C1273.8 54.3991 1273.21 53.4884 1272.71 52.5777C1272.62 52.3955 1272.53 52.2134 1272.43 52.0312C1270.89 48.7982 1270.53 45.0187 1271.66 41.6491C1271.71 41.4669 1271.8 41.2848 1271.84 41.1482C1272.12 40.4652 1272.43 39.8277 1272.8 39.1902C1274.2 36.7768 1276.43 35.0009 1279.1 34.1357C1281.83 33.225 1284.91 33.3161 1287.68 34.0446C1291.18 34.9553 1294.58 37.0955 1296.48 40.3286C1296.58 40.4652 1296.67 40.6473 1296.76 40.7839C1297.03 41.3303 1297.26 41.8768 1297.44 42.4687C1298.25 45.1553 1298.12 48.3884 1297.26 51.1205Z" fill="#FFCE15"/>
<path d="M1275.02 45.0642C1274.48 46.066 1273.48 46.8401 1272.34 47.2499C1273.48 47.6142 1274.43 48.4339 1274.93 49.4812C1274.93 49.5267 1274.98 49.5267 1275.02 49.5723C1275.02 49.208 1275.11 48.7982 1275.2 48.4794C1275.57 47.4776 1276.29 47.0223 1277.15 46.9312C1276.25 46.5214 1275.47 45.9294 1275.02 45.0642Z" fill="white"/>
<path d="M1279.15 46.8858C1280.1 47.5233 1280.74 48.6161 1281.06 49.7545C1281.51 48.6617 1282.42 47.751 1283.51 47.3867C1283.55 47.3867 1283.55 47.3411 1283.6 47.3411C1283.23 47.2956 1282.83 47.2045 1282.51 47.0224C1281.56 46.567 1281.19 45.7929 1281.15 44.8822C1280.69 45.7929 1280.01 46.5215 1279.15 46.8858Z" fill="white"/>
<path d="M1288.09 44.6545C1287.91 45.0643 1287.68 45.3831 1287.41 45.7018C1287 46.2483 1286.41 46.6581 1285.73 46.8402C1286.73 47.3411 1287.55 48.2518 1287.95 49.2992C1288.27 48.1608 1289.32 47.4322 1290.31 46.7947C1289.36 46.3849 1288.54 45.6108 1288.09 44.6545Z" fill="white"/>
<path d="M1292.08 45.8384C1292.49 46.0205 1292.81 46.2482 1293.13 46.5214C1293.67 46.9312 1294.08 47.5232 1294.26 48.2062C1294.76 47.2044 1295.67 46.3848 1296.71 45.975C1295.58 45.6562 1294.85 44.6089 1294.22 43.6071C1293.81 44.6089 1293.04 45.4285 1292.08 45.8384Z" fill="white"/>
<path d="M1296.71 40.7839C1288.54 42.8786 1279.97 42.5143 1271.62 41.6491C1271.66 41.467 1271.75 41.2848 1271.8 41.1482C1280.01 41.9678 1288.41 42.3321 1296.44 40.3286C1296.53 40.4196 1296.62 40.6018 1296.71 40.7839C1296.71 40.7384 1296.71 40.7384 1296.71 40.7839Z" fill="white"/>
<path d="M1297.26 51.1206C1297.21 51.3027 1297.12 51.4849 1297.07 51.7125C1289 52.8054 1280.83 53.1241 1272.71 52.5777C1272.62 52.3956 1272.53 52.2134 1272.43 52.0313C1280.69 52.5777 1289.04 52.3045 1297.26 51.1206Z" fill="white"/>
<path d="M1498.05 28.7625C1497.46 22.2964 1497.14 15.7848 1497.14 9.27321C1497.14 8.90893 1496.6 8.90893 1496.6 9.27321C1496.6 15.7848 1496.87 22.2964 1497.51 28.7625C1497.55 29.0812 1498.1 29.1268 1498.05 28.7625Z" fill="#D64B34"/>
<path d="M1500.64 30.8116C1500.46 30.6294 1500.18 30.7205 1500 30.7205C1499.91 29.491 1499.41 28.2616 1497.92 28.3526C1496.46 28.4437 1495.69 29.8098 1495.69 31.1303C1495.33 31.1758 1494.97 31.2214 1494.6 31.2214C1494.51 31.2214 1494.42 31.358 1494.42 31.4946C1494.42 32.0866 1494.42 32.7241 1494.42 33.316C1494.42 33.4982 1494.42 33.6803 1494.42 33.8625C1494.33 33.9991 1494.38 34.3178 1494.56 34.3178C1494.6 34.3633 1494.69 34.3633 1494.74 34.3178C1496.1 34.3178 1497.42 34.3178 1498.78 34.3178C1499.14 34.3178 1499.5 34.3178 1499.87 34.3178C1500.05 34.3178 1500.23 34.3634 1500.41 34.2267C1500.77 33.9535 1500.77 33.0428 1500.77 32.5419C1500.82 32.0866 1500.91 31.1303 1500.64 30.8116ZM1496.64 31.0392C1496.69 30.2196 1497.01 29.3544 1497.92 29.2633C1498.87 29.1723 1499.05 29.9919 1499.1 30.766C1499 30.766 1498.96 30.766 1498.87 30.766C1498.1 30.9026 1497.37 30.9937 1496.64 31.0392Z" fill="#256338"/>
<path d="M1511.26 51.1205C1511.21 51.3027 1511.12 51.4848 1511.07 51.7125C1510.85 52.3955 1510.53 53.0786 1510.21 53.6705C1508.9 56.0839 1506.76 57.9053 1504.22 58.9527C1498.87 61.2294 1492.38 59.5902 1488.52 55.2187C1487.8 54.3991 1487.21 53.4884 1486.71 52.5777C1486.62 52.3955 1486.53 52.2134 1486.43 52.0312C1484.89 48.7982 1484.53 45.0187 1485.66 41.6491C1485.71 41.4669 1485.8 41.2848 1485.84 41.1482C1486.12 40.4652 1486.43 39.8277 1486.8 39.1902C1488.2 36.7768 1490.43 35.0009 1493.1 34.1357C1495.83 33.225 1498.91 33.3161 1501.68 34.0446C1505.18 34.9553 1508.58 37.0955 1510.48 40.3286C1510.58 40.4652 1510.67 40.6473 1510.76 40.7839C1511.03 41.3303 1511.26 41.8768 1511.44 42.4687C1512.25 45.1553 1512.12 48.3884 1511.26 51.1205Z" fill="#FFCE15"/>
<path d="M1489.02 45.0642C1488.48 46.066 1487.48 46.8401 1486.34 47.2499C1487.48 47.6142 1488.43 48.4339 1488.93 49.4812C1488.93 49.5267 1488.98 49.5267 1489.02 49.5723C1489.02 49.208 1489.11 48.7982 1489.2 48.4794C1489.57 47.4776 1490.29 47.0223 1491.15 46.9312C1490.25 46.5214 1489.47 45.9294 1489.02 45.0642Z" fill="white"/>
<path d="M1493.15 46.8858C1494.1 47.5233 1494.74 48.6161 1495.06 49.7545C1495.51 48.6617 1496.42 47.751 1497.51 47.3867C1497.55 47.3867 1497.55 47.3411 1497.6 47.3411C1497.23 47.2956 1496.83 47.2045 1496.51 47.0224C1495.56 46.567 1495.19 45.7929 1495.15 44.8822C1494.69 45.7929 1494.01 46.5215 1493.15 46.8858Z" fill="white"/>
<path d="M1502.09 44.6545C1501.91 45.0643 1501.68 45.3831 1501.41 45.7018C1501 46.2483 1500.41 46.6581 1499.73 46.8402C1500.73 47.3411 1501.55 48.2518 1501.95 49.2992C1502.27 48.1608 1503.32 47.4322 1504.31 46.7947C1503.36 46.3849 1502.54 45.6108 1502.09 44.6545Z" fill="white"/>
<path d="M1506.08 45.8384C1506.49 46.0205 1506.81 46.2482 1507.13 46.5214C1507.67 46.9312 1508.08 47.5232 1508.26 48.2062C1508.76 47.2044 1509.67 46.3848 1510.71 45.975C1509.58 45.6562 1508.85 44.6089 1508.22 43.6071C1507.81 44.6089 1507.04 45.4285 1506.08 45.8384Z" fill="white"/>
<path d="M1510.71 40.7839C1502.54 42.8786 1493.97 42.5143 1485.62 41.6491C1485.66 41.467 1485.75 41.2848 1485.8 41.1482C1494.01 41.9678 1502.41 42.3321 1510.44 40.3286C1510.53 40.4196 1510.62 40.6018 1510.71 40.7839C1510.71 40.7384 1510.71 40.7384 1510.71 40.7839Z" fill="white"/>
<path d="M1511.26 51.1206C1511.21 51.3027 1511.12 51.4849 1511.07 51.7125C1503 52.8054 1494.83 53.1241 1486.71 52.5777C1486.62 52.3956 1486.53 52.2134 1486.43 52.0313C1494.69 52.5777 1503.04 52.3045 1511.26 51.1206Z" fill="white"/>
<defs>
<clipPath id="clip0_13087_43799">
<rect width="258" height="152" fill="white" transform="translate(0 4)"/>
</clipPath>
<clipPath id="clip1_13087_43799">
<rect width="258" height="152" fill="white" transform="matrix(-1 0 0 1 1918 0)"/>
</clipPath>
</defs>
</svg>
