<svg width="306" height="667" viewBox="0 0 306 667" fill="none" xmlns="http://www.w3.org/2000/svg">
<g clip-path="url(#clip0)">
<path d="M156.157 153.4C155.811 153.2 155.551 153.05 155.205 152.85C154.858 152.65 154.512 152.45 154.252 152.3C154.079 152.2 153.819 152.05 153.646 151.95C153.473 151.85 153.213 151.7 153.04 151.6C152.693 151.4 152.297 151.287 151.95 151.087C150.825 150.437 149.835 149.75 148.71 149.1L-70.8279 22.3501C-91.6125 10.3501 -118.25 17.4876 -130.25 38.2722C-142.25 59.0568 -135.113 85.6943 -114.328 97.6943L105.21 224.444C106.335 225.094 107.425 225.608 108.6 226.171C109.59 226.858 110.665 227.594 111.705 228.194C153.361 252.244 167.599 305.383 143.549 347.039C119.499 388.694 66.3606 402.933 24.7047 378.883L-50.6395 335.383L-28.8895 297.711L46.2815 341.111L46.3681 341.161L46.4547 341.211C67.1527 353.161 93.9268 345.987 105.877 325.289C117.827 304.591 110.653 277.816 89.9547 265.866L89.8681 265.816L89.7815 265.766L-23.0616 200.616L-85.8484 164.366C-106.633 152.366 -133.271 159.504 -145.271 180.289C-157.271 201.073 -150.133 227.711 -129.348 239.711L-104.234 254.211L-125.984 291.883L-169.484 367.227L-220.234 455.129C-232.184 475.827 -225.01 502.601 -204.312 514.551C-183.614 526.501 -156.839 519.327 -144.889 498.629L-94.1395 410.727L-18.7953 454.227C64.4298 502.277 170.843 473.764 218.893 390.539C266.743 307.66 238.649 201.72 156.157 153.4Z" fill="#27DC8A"/>
</g>
<defs>
<clipPath id="clip0">
<rect width="478.5" height="493" fill="white" transform="translate(-108.5 0.600098) rotate(30)"/>
</clipPath>
</defs>
</svg>
