<svg width="54" height="54" viewBox="0 0 54 54" fill="none" xmlns="http://www.w3.org/2000/svg">
<g clip-path="url(#clip0)">
<path d="M27 0C12.0882 0 0 11.9735 0 26.7439C0 41.5143 12.0882 53.4878 27 53.4878C41.9118 53.4878 54 41.5143 54 26.7439C54 11.9735 41.9118 0 27 0Z" fill="#4A5568"/>
<path d="M40.1374 15.3843L35.3148 39.4682C35.3148 39.4682 34.6404 41.1384 32.7856 40.3367L21.657 31.8857L17.6104 29.9484L10.7984 27.6769C10.7984 27.6769 9.75294 27.3095 9.65169 26.5078C9.55044 25.7062 10.8321 25.272 10.8321 25.272L37.9114 14.7499C37.9114 14.7499 40.1372 13.7813 40.1372 15.3847" fill="white"/>
<path d="M20.8023 39.1971C20.8023 39.1971 20.4775 39.167 20.0725 37.8975C19.6681 36.6282 17.6108 29.9477 17.6108 29.9477L33.9665 19.6596C33.9665 19.6596 34.9109 19.0917 34.8771 19.6596C34.8771 19.6596 35.0457 19.7599 34.5396 20.2275C34.034 20.6953 21.6914 31.6848 21.6914 31.6848" fill="#D2E5F1"/>
<path d="M25.9244 35.1255L21.5228 39.1008C21.5228 39.1008 21.1786 39.3594 20.8022 39.1973L21.6452 31.8135" fill="#B5CFE4"/>
</g>
<defs>
<clipPath id="clip0">
<rect width="54" height="53.4878" fill="white"/>
</clipPath>
</defs>
</svg>
