<svg width="40" height="42" viewBox="0 0 40 42" fill="none" xmlns="http://www.w3.org/2000/svg">
<path d="M39.9999 14.8235C39.9999 23.0105 33.4879 29.6471 25.4545 29.6471C23.4482 29.6471 21.8181 27.9858 21.8181 25.9412C21.8181 23.8966 23.4482 22.2353 25.4545 22.2353C29.467 22.2353 32.7272 18.9128 32.7272 14.8235C32.7272 10.7343 29.467 7.41177 25.4545 7.41177C23.4482 7.41177 21.8181 5.75051 21.8181 3.70588C21.8181 1.69533 23.3981 0.0511156 25.3625 0C25.396 0 25.421 0 25.4545 0C25.4879 0 25.5214 0 25.5464 0C33.5381 0.0511156 39.9999 6.67059 39.9999 14.8235Z" fill="url(#paint0_linear)"/>
<path d="M29.0908 3.70588C29.0908 5.75051 27.4607 7.41177 25.4545 7.41177C23.4482 7.41177 21.8181 5.75051 21.8181 3.70588C21.8181 1.69533 23.3981 0.0511156 25.3625 0C25.396 0 25.421 0 25.4545 0C25.4879 0 25.5214 0 25.5464 0C27.5109 0.0511156 29.0908 1.69533 29.0908 3.70588Z" fill="url(#paint1_linear)"/>
<path d="M25.4545 29.6471C27.4628 29.6471 29.0908 27.9879 29.0908 25.9412C29.0908 23.8945 27.4628 22.2354 25.4545 22.2354C23.4462 22.2354 21.8181 23.8945 21.8181 25.9412C21.8181 27.9879 23.4462 29.6471 25.4545 29.6471Z" fill="url(#paint2_linear)"/>
<path d="M25.4546 22.2354H10.9092V29.6471H25.4546V22.2354Z" fill="url(#paint3_linear)"/>
<path d="M14.5455 42C12.5476 42 10.9092 40.3302 10.9092 38.2941V14.8236C10.9092 12.7875 12.5476 11.1177 14.5455 11.1177C16.5435 11.1177 18.1819 12.7875 18.1819 14.8236V38.2941C18.1819 40.3302 16.5435 42 14.5455 42Z" fill="url(#paint4_linear)"/>
<path d="M25.4545 11.1177C23.4566 11.1177 21.8181 12.7875 21.8181 14.8236C21.8181 16.8597 23.4566 18.5294 25.4545 18.5294C27.4524 18.5294 29.0908 16.8597 29.0908 14.8236C29.0908 12.7875 27.4524 11.1177 25.4545 11.1177Z" fill="url(#paint5_linear)"/>
<path d="M25.4377 18.5294H8.48475C6.47848 18.5294 4.84839 16.8682 4.84839 14.8236C4.84839 12.7789 6.47848 11.1177 8.48475 11.1177H25.4377C27.444 11.1177 29.0741 12.7789 29.0741 14.8236C29.0741 16.8682 27.444 18.5294 25.4377 18.5294Z" fill="url(#paint6_linear)"/>
<path d="M25.4545 0C23.4566 0 21.8181 1.66978 21.8181 3.70588C21.8181 5.74199 23.4566 7.41177 25.4545 7.41177C27.4524 7.41177 29.0908 5.74199 29.0908 3.70588C29.0908 1.66978 27.4524 0 25.4545 0Z" fill="url(#paint7_linear)"/>
<path d="M24.8276 7.41177H3.63636C1.63009 7.41177 0 5.75051 0 3.70588C0 1.66126 1.63009 0 3.63636 0H24.8276C26.8339 0 28.4639 1.66126 28.4639 3.70588C28.4639 5.75051 26.8339 7.41177 24.8276 7.41177Z" fill="url(#paint8_linear)"/>
<defs>
<linearGradient id="paint0_linear" x1="52.7051" y1="-14.814" x2="-17.1828" y2="65.835" gradientUnits="userSpaceOnUse">
<stop stop-color="#00A8A1"/>
<stop offset="1" stop-color="#41FF7A"/>
</linearGradient>
<linearGradient id="paint1_linear" x1="45.8577" y1="-20.7477" x2="-24.0302" y2="59.9013" gradientUnits="userSpaceOnUse">
<stop stop-color="#00A8A1"/>
<stop offset="1" stop-color="#41FF7A"/>
</linearGradient>
<linearGradient id="paint2_linear" x1="56.6248" y1="-11.4171" x2="-13.263" y2="69.2318" gradientUnits="userSpaceOnUse">
<stop stop-color="#00A8A1"/>
<stop offset="1" stop-color="#41FF7A"/>
</linearGradient>
<linearGradient id="paint3_linear" x1="52.4041" y1="-15.0748" x2="-17.4837" y2="65.5742" gradientUnits="userSpaceOnUse">
<stop stop-color="#00A8A1"/>
<stop offset="1" stop-color="#41FF7A"/>
</linearGradient>
<linearGradient id="paint4_linear" x1="50.5927" y1="-16.6445" x2="-19.2951" y2="64.0045" gradientUnits="userSpaceOnUse">
<stop stop-color="#00A8A1"/>
<stop offset="1" stop-color="#41FF7A"/>
</linearGradient>
<linearGradient id="paint5_linear" x1="51.2412" y1="-16.0824" x2="-18.6466" y2="64.5665" gradientUnits="userSpaceOnUse">
<stop stop-color="#00A8A1"/>
<stop offset="1" stop-color="#41FF7A"/>
</linearGradient>
<linearGradient id="paint6_linear" x1="52.7336" y1="-28.0494" x2="-36.3014" y2="74.695" gradientUnits="userSpaceOnUse">
<stop stop-color="#00A8A1"/>
<stop offset="1" stop-color="#41FF7A"/>
</linearGradient>
<linearGradient id="paint7_linear" x1="45.8576" y1="-20.7477" x2="-24.0302" y2="59.9013" gradientUnits="userSpaceOnUse">
<stop stop-color="#00A8A1"/>
<stop offset="1" stop-color="#41FF7A"/>
</linearGradient>
<linearGradient id="paint8_linear" x1="48.2251" y1="-37.0356" x2="-55.8649" y2="83.0819" gradientUnits="userSpaceOnUse">
<stop stop-color="#00A8A1"/>
<stop offset="0.9999" stop-color="#40FE7A"/>
<stop offset="1" stop-color="#41FF7A"/>
</linearGradient>
</defs>
</svg>
