<svg width="152" height="64" viewBox="0 0 152 64" fill="none" xmlns="http://www.w3.org/2000/svg">
<path d="M40.0002 34.8235C40.0002 43.0105 33.4882 49.6471 25.4547 49.6471C23.4485 49.6471 21.8184 47.9858 21.8184 45.9412C21.8184 43.8966 23.4485 42.2353 25.4547 42.2353C29.4673 42.2353 32.7274 38.9128 32.7274 34.8235C32.7274 30.7343 29.4673 27.4118 25.4547 27.4118C23.4485 27.4118 21.8184 25.7505 21.8184 23.7059C21.8184 21.6953 23.3983 20.0511 25.3628 20C25.3962 20 25.4213 20 25.4547 20C25.4882 20 25.5216 20 25.5467 20C33.5383 20.0511 40.0002 26.6706 40.0002 34.8235Z" fill="url(#paint0_linear_13087_43289)"/>
<path d="M29.0911 23.7059C29.0911 25.7505 27.461 27.4118 25.4547 27.4118C23.4485 27.4118 21.8184 25.7505 21.8184 23.7059C21.8184 21.6953 23.3983 20.0511 25.3628 20C25.3962 20 25.4213 20 25.4547 20C25.4882 20 25.5216 20 25.5467 20C27.5111 20.0511 29.0911 21.6953 29.0911 23.7059Z" fill="url(#paint1_linear_13087_43289)"/>
<path d="M25.4547 49.6471C27.463 49.6471 29.0911 47.9879 29.0911 45.9412C29.0911 43.8945 27.463 42.2354 25.4547 42.2354C23.4464 42.2354 21.8184 43.8945 21.8184 45.9412C21.8184 47.9879 23.4464 49.6471 25.4547 49.6471Z" fill="url(#paint2_linear_13087_43289)"/>
<path d="M25.4546 42.2354H10.9092V49.6471H25.4546V42.2354Z" fill="url(#paint3_linear_13087_43289)"/>
<path d="M14.5455 62C12.5476 62 10.9092 60.3302 10.9092 58.2941V34.8236C10.9092 32.7875 12.5476 31.1177 14.5455 31.1177C16.5435 31.1177 18.1819 32.7875 18.1819 34.8236V58.2941C18.1819 60.3302 16.5435 62 14.5455 62Z" fill="url(#paint4_linear_13087_43289)"/>
<path d="M25.4547 31.1177C23.4568 31.1177 21.8184 32.7875 21.8184 34.8236C21.8184 36.8597 23.4568 38.5294 25.4547 38.5294C27.4526 38.5294 29.0911 36.8597 29.0911 34.8236C29.0911 32.7875 27.4526 31.1177 25.4547 31.1177Z" fill="url(#paint5_linear_13087_43289)"/>
<path d="M25.438 38.5294H8.485C6.47873 38.5294 4.84863 36.8682 4.84863 34.8236C4.84863 32.7789 6.47873 31.1177 8.485 31.1177H25.438C27.4442 31.1177 29.0743 32.7789 29.0743 34.8236C29.0743 36.8682 27.4442 38.5294 25.438 38.5294Z" fill="url(#paint6_linear_13087_43289)"/>
<path d="M25.4547 20C23.4568 20 21.8184 21.6698 21.8184 23.7059C21.8184 25.742 23.4568 27.4118 25.4547 27.4118C27.4526 27.4118 29.0911 25.742 29.0911 23.7059C29.0911 21.6698 27.4526 20 25.4547 20Z" fill="url(#paint7_linear_13087_43289)"/>
<path d="M24.8276 27.4118H3.63636C1.63009 27.4118 0 25.7505 0 23.7059C0 21.6613 1.63009 20 3.63636 20H24.8276C26.8339 20 28.4639 21.6613 28.4639 23.7059C28.4639 25.7505 26.8339 27.4118 24.8276 27.4118Z" fill="url(#paint8_linear_13087_43289)"/>
<path d="M65.098 27.216C65.098 27.852 64.948 28.452 64.648 29.016C64.348 29.58 63.868 30.042 63.208 30.402C62.548 30.75 61.702 30.924 60.67 30.924H58.402V36H56.35V23.49H60.67C61.63 23.49 62.44 23.658 63.1 23.994C63.772 24.318 64.27 24.762 64.594 25.326C64.93 25.89 65.098 26.52 65.098 27.216ZM60.67 29.25C61.45 29.25 62.032 29.076 62.416 28.728C62.8 28.368 62.992 27.864 62.992 27.216C62.992 25.848 62.218 25.164 60.67 25.164H58.402V29.25H60.67ZM71.3571 36.162C70.4211 36.162 69.5751 35.952 68.8191 35.532C68.0631 35.1 67.4691 34.5 67.0371 33.732C66.6051 32.952 66.3891 32.052 66.3891 31.032C66.3891 30.024 66.6111 29.13 67.0551 28.35C67.4991 27.57 68.1051 26.97 68.8731 26.55C69.6411 26.13 70.4991 25.92 71.4471 25.92C72.3951 25.92 73.2531 26.13 74.0211 26.55C74.7891 26.97 75.3951 27.57 75.8391 28.35C76.2831 29.13 76.5051 30.024 76.5051 31.032C76.5051 32.04 76.2771 32.934 75.8211 33.714C75.3651 34.494 74.7411 35.1 73.9491 35.532C73.1691 35.952 72.3051 36.162 71.3571 36.162ZM71.3571 34.38C71.8851 34.38 72.3771 34.254 72.8331 34.002C73.3011 33.75 73.6791 33.372 73.9671 32.868C74.2551 32.364 74.3991 31.752 74.3991 31.032C74.3991 30.312 74.2611 29.706 73.9851 29.214C73.7091 28.71 73.3431 28.332 72.8871 28.08C72.4311 27.828 71.9391 27.702 71.4111 27.702C70.8831 27.702 70.3911 27.828 69.9351 28.08C69.4911 28.332 69.1371 28.71 68.8731 29.214C68.6091 29.706 68.4771 30.312 68.4771 31.032C68.4771 32.1 68.7471 32.928 69.2871 33.516C69.8391 34.092 70.5291 34.38 71.3571 34.38ZM82.1336 36.162C81.3536 36.162 80.6516 36.024 80.0276 35.748C79.4156 35.46 78.9296 35.076 78.5696 34.596C78.2096 34.104 78.0176 33.558 77.9936 32.958H80.1176C80.1536 33.378 80.3516 33.732 80.7116 34.02C81.0836 34.296 81.5456 34.434 82.0976 34.434C82.6736 34.434 83.1176 34.326 83.4296 34.11C83.7536 33.882 83.9156 33.594 83.9156 33.246C83.9156 32.874 83.7356 32.598 83.3756 32.418C83.0276 32.238 82.4696 32.04 81.7016 31.824C80.9576 31.62 80.3516 31.422 79.8836 31.23C79.4156 31.038 79.0076 30.744 78.6596 30.348C78.3236 29.952 78.1556 29.43 78.1556 28.782C78.1556 28.254 78.3116 27.774 78.6236 27.342C78.9356 26.898 79.3796 26.55 79.9556 26.298C80.5436 26.046 81.2156 25.92 81.9716 25.92C83.0996 25.92 84.0056 26.208 84.6896 26.784C85.3856 27.348 85.7576 28.122 85.8056 29.106H83.7536C83.7176 28.662 83.5376 28.308 83.2136 28.044C82.8896 27.78 82.4516 27.648 81.8996 27.648C81.3596 27.648 80.9456 27.75 80.6576 27.954C80.3696 28.158 80.2256 28.428 80.2256 28.764C80.2256 29.028 80.3216 29.25 80.5136 29.43C80.7056 29.61 80.9396 29.754 81.2156 29.862C81.4916 29.958 81.8996 30.084 82.4396 30.24C83.1596 30.432 83.7476 30.63 84.2036 30.834C84.6716 31.026 85.0736 31.314 85.4096 31.698C85.7456 32.082 85.9196 32.592 85.9316 33.228C85.9316 33.792 85.7756 34.296 85.4636 34.74C85.1516 35.184 84.7076 35.532 84.1316 35.784C83.5676 36.036 82.9016 36.162 82.1336 36.162ZM89.1928 24.768C88.8208 24.768 88.5088 24.642 88.2568 24.39C88.0048 24.138 87.8788 23.826 87.8788 23.454C87.8788 23.082 88.0048 22.77 88.2568 22.518C88.5088 22.266 88.8208 22.14 89.1928 22.14C89.5528 22.14 89.8588 22.266 90.1108 22.518C90.3628 22.77 90.4888 23.082 90.4888 23.454C90.4888 23.826 90.3628 24.138 90.1108 24.39C89.8588 24.642 89.5528 24.768 89.1928 24.768ZM90.2008 26.082V36H88.1488V26.082H90.2008ZM95.2889 27.756V33.246C95.2889 33.618 95.3729 33.888 95.5409 34.056C95.7209 34.212 96.0209 34.29 96.4409 34.29H97.7009V36H96.0809C95.1569 36 94.4489 35.784 93.9569 35.352C93.4649 34.92 93.2189 34.218 93.2189 33.246V27.756H92.0489V26.082H93.2189V23.616H95.2889V26.082H97.7009V27.756H95.2889ZM100.636 24.768C100.264 24.768 99.9522 24.642 99.7002 24.39C99.4482 24.138 99.3222 23.826 99.3222 23.454C99.3222 23.082 99.4482 22.77 99.7002 22.518C99.9522 22.266 100.264 22.14 100.636 22.14C100.996 22.14 101.302 22.266 101.554 22.518C101.806 22.77 101.932 23.082 101.932 23.454C101.932 23.826 101.806 24.138 101.554 24.39C101.302 24.642 100.996 24.768 100.636 24.768ZM101.644 26.082V36H99.5922V26.082H101.644ZM108.64 36.162C107.704 36.162 106.858 35.952 106.102 35.532C105.346 35.1 104.752 34.5 104.32 33.732C103.888 32.952 103.672 32.052 103.672 31.032C103.672 30.024 103.894 29.13 104.338 28.35C104.782 27.57 105.388 26.97 106.156 26.55C106.924 26.13 107.782 25.92 108.73 25.92C109.678 25.92 110.536 26.13 111.304 26.55C112.072 26.97 112.678 27.57 113.122 28.35C113.566 29.13 113.788 30.024 113.788 31.032C113.788 32.04 113.56 32.934 113.104 33.714C112.648 34.494 112.024 35.1 111.232 35.532C110.452 35.952 109.588 36.162 108.64 36.162ZM108.64 34.38C109.168 34.38 109.66 34.254 110.116 34.002C110.584 33.75 110.962 33.372 111.25 32.868C111.538 32.364 111.682 31.752 111.682 31.032C111.682 30.312 111.544 29.706 111.268 29.214C110.992 28.71 110.626 28.332 110.17 28.08C109.714 27.828 109.222 27.702 108.694 27.702C108.166 27.702 107.674 27.828 107.218 28.08C106.774 28.332 106.42 28.71 106.156 29.214C105.892 29.706 105.76 30.312 105.76 31.032C105.76 32.1 106.03 32.928 106.57 33.516C107.122 34.092 107.812 34.38 108.64 34.38ZM120.821 25.92C121.601 25.92 122.297 26.082 122.909 26.406C123.533 26.73 124.019 27.21 124.367 27.846C124.715 28.482 124.889 29.25 124.889 30.15V36H122.855V30.456C122.855 29.568 122.633 28.89 122.189 28.422C121.745 27.942 121.139 27.702 120.371 27.702C119.603 27.702 118.991 27.942 118.535 28.422C118.091 28.89 117.869 29.568 117.869 30.456V36H115.817V26.082H117.869V27.216C118.205 26.808 118.631 26.49 119.147 26.262C119.675 26.034 120.233 25.92 120.821 25.92Z" fill="#27DC8A"/>
<path d="M59.194 48.83V51.386H63.316V53.762H59.194V56.534H63.856V59H56.116V46.364H63.856V48.83H59.194ZM71.7943 59L69.8683 56.21L68.2483 59H64.9183L68.2303 53.87L64.8283 48.956H68.2843L70.2103 51.728L71.8303 48.956H75.1603L71.7943 54.014L75.2503 59H71.7943ZM75.8243 53.978C75.8243 52.934 76.0343 52.022 76.4543 51.242C76.8863 50.462 77.4803 49.862 78.2363 49.442C79.0043 49.022 79.8803 48.812 80.8643 48.812C82.1243 48.812 83.1743 49.142 84.0143 49.802C84.8663 50.462 85.4243 51.392 85.6883 52.592H82.4123C82.1363 51.824 81.6023 51.44 80.8103 51.44C80.2463 51.44 79.7963 51.662 79.4603 52.106C79.1243 52.538 78.9563 53.162 78.9563 53.978C78.9563 54.794 79.1243 55.424 79.4603 55.868C79.7963 56.3 80.2463 56.516 80.8103 56.516C81.6023 56.516 82.1363 56.132 82.4123 55.364H85.6883C85.4243 56.54 84.8663 57.464 84.0143 58.136C83.1623 58.808 82.1123 59.144 80.8643 59.144C79.8803 59.144 79.0043 58.934 78.2363 58.514C77.4803 58.094 76.8863 57.494 76.4543 56.714C76.0343 55.934 75.8243 55.022 75.8243 53.978ZM93.5088 48.848C94.6608 48.848 95.5848 49.232 96.2808 50C96.9768 50.756 97.3248 51.8 97.3248 53.132V59H94.2648V53.546C94.2648 52.874 94.0908 52.352 93.7428 51.98C93.3948 51.608 92.9268 51.422 92.3388 51.422C91.7508 51.422 91.2828 51.608 90.9348 51.98C90.5868 52.352 90.4128 52.874 90.4128 53.546V59H87.3348V45.68H90.4128V50.306C90.7248 49.862 91.1508 49.508 91.6908 49.244C92.2308 48.98 92.8368 48.848 93.5088 48.848ZM98.8517 53.96C98.8517 52.928 99.0437 52.022 99.4277 51.242C99.8237 50.462 100.358 49.862 101.03 49.442C101.702 49.022 102.452 48.812 103.28 48.812C103.988 48.812 104.606 48.956 105.134 49.244C105.674 49.532 106.088 49.91 106.376 50.378V48.956H109.454V59H106.376V57.578C106.076 58.046 105.656 58.424 105.116 58.712C104.588 59 103.97 59.144 103.262 59.144C102.446 59.144 101.702 58.934 101.03 58.514C100.358 58.082 99.8237 57.476 99.4277 56.696C99.0437 55.904 98.8517 54.992 98.8517 53.96ZM106.376 53.978C106.376 53.21 106.16 52.604 105.728 52.16C105.308 51.716 104.792 51.494 104.18 51.494C103.568 51.494 103.046 51.716 102.614 52.16C102.194 52.592 101.984 53.192 101.984 53.96C101.984 54.728 102.194 55.34 102.614 55.796C103.046 56.24 103.568 56.462 104.18 56.462C104.792 56.462 105.308 56.24 105.728 55.796C106.16 55.352 106.376 54.746 106.376 53.978ZM117.8 48.848C118.976 48.848 119.912 49.232 120.608 50C121.316 50.756 121.67 51.8 121.67 53.132V59H118.61V53.546C118.61 52.874 118.436 52.352 118.088 51.98C117.74 51.608 117.272 51.422 116.684 51.422C116.096 51.422 115.628 51.608 115.28 51.98C114.932 52.352 114.758 52.874 114.758 53.546V59H111.68V48.956H114.758V50.288C115.07 49.844 115.49 49.496 116.018 49.244C116.546 48.98 117.14 48.848 117.8 48.848ZM127.625 48.812C128.333 48.812 128.951 48.956 129.479 49.244C130.019 49.532 130.433 49.91 130.721 50.378V48.956H133.799V58.982C133.799 59.906 133.613 60.74 133.241 61.484C132.881 62.24 132.323 62.84 131.567 63.284C130.823 63.728 129.893 63.95 128.777 63.95C127.289 63.95 126.083 63.596 125.159 62.888C124.235 62.192 123.707 61.244 123.575 60.044H126.617C126.713 60.428 126.941 60.728 127.301 60.944C127.661 61.172 128.105 61.286 128.633 61.286C129.269 61.286 129.773 61.1 130.145 60.728C130.529 60.368 130.721 59.786 130.721 58.982V57.56C130.421 58.028 130.007 58.412 129.479 58.712C128.951 59 128.333 59.144 127.625 59.144C126.797 59.144 126.047 58.934 125.375 58.514C124.703 58.082 124.169 57.476 123.773 56.696C123.389 55.904 123.197 54.992 123.197 53.96C123.197 52.928 123.389 52.022 123.773 51.242C124.169 50.462 124.703 49.862 125.375 49.442C126.047 49.022 126.797 48.812 127.625 48.812ZM130.721 53.978C130.721 53.21 130.505 52.604 130.073 52.16C129.653 51.716 129.137 51.494 128.525 51.494C127.913 51.494 127.391 51.716 126.959 52.16C126.539 52.592 126.329 53.192 126.329 53.96C126.329 54.728 126.539 55.34 126.959 55.796C127.391 56.24 127.913 56.462 128.525 56.462C129.137 56.462 129.653 56.24 130.073 55.796C130.505 55.352 130.721 54.746 130.721 53.978ZM145.494 53.816C145.494 54.104 145.476 54.404 145.44 54.716H138.474C138.522 55.34 138.72 55.82 139.068 56.156C139.428 56.48 139.866 56.642 140.382 56.642C141.15 56.642 141.684 56.318 141.984 55.67H145.26C145.092 56.33 144.786 56.924 144.342 57.452C143.91 57.98 143.364 58.394 142.704 58.694C142.044 58.994 141.306 59.144 140.49 59.144C139.506 59.144 138.63 58.934 137.862 58.514C137.094 58.094 136.494 57.494 136.062 56.714C135.63 55.934 135.414 55.022 135.414 53.978C135.414 52.934 135.624 52.022 136.044 51.242C136.476 50.462 137.076 49.862 137.844 49.442C138.612 49.022 139.494 48.812 140.49 48.812C141.462 48.812 142.326 49.016 143.082 49.424C143.838 49.832 144.426 50.414 144.846 51.17C145.278 51.926 145.494 52.808 145.494 53.816ZM142.344 53.006C142.344 52.478 142.164 52.058 141.804 51.746C141.444 51.434 140.994 51.278 140.454 51.278C139.938 51.278 139.5 51.428 139.14 51.728C138.792 52.028 138.576 52.454 138.492 53.006H142.344Z" fill="white"/>
<g clip-path="url(#clip0_13087_43289)">
<path d="M40.9307 31.1035L43.2457 26.975C43.4211 26.6621 43.5139 26.3227 43.5331 25.9871C43.5284 25.9943 43.5257 26.0048 43.5211 26.012L41.2061 30.1405C40.587 31.2455 39.1893 31.6403 38.0844 31.0264L19.7972 20.8536C19.0104 20.4149 18.5834 19.5759 18.6301 18.731C18.0327 19.8275 18.4293 21.2086 19.5218 21.8166L37.8091 31.9893C38.9107 32.6053 40.3097 32.2052 40.9307 31.1035Z" fill="#747F82"/>
<path d="M45.405 25.8125C43.9656 25.0108 43.2553 23.3719 43.5981 21.8093L42.9276 21.266L42.4628 22.8034L42.4752 22.8093L42.6503 22.2256L43.3208 22.769C43.2769 22.9727 43.2519 23.1785 43.2388 23.3817C43.728 23.935 43.9215 24.7039 43.7462 25.4298C44.0666 25.9768 44.5359 26.4442 45.1244 26.7742C46.9068 27.763 49.1664 27.1227 50.1688 25.3415C50.3973 24.9304 50.5419 24.4981 50.6051 24.0564C50.5578 24.1645 50.5019 24.2732 50.4441 24.3786C49.4503 26.1591 47.1874 26.8014 45.405 25.8125Z" fill="#747F82"/>
<path d="M19.7993 20.8541L38.0865 31.0269C39.1915 31.6408 40.5871 31.2427 41.2082 30.141L43.5232 26.0125C43.5279 26.0053 43.5306 25.9948 43.5352 25.9876C43.6342 25.8089 43.705 25.6203 43.7482 25.4303C43.9236 24.7044 43.732 23.9388 43.2409 23.3822C43.0746 23.1923 42.8739 23.0272 42.6416 22.8987L42.4753 22.8065L42.4629 22.8005L42.9277 21.2631L43.5982 21.8064C43.2554 23.3691 43.9624 25.01 45.4051 25.8097C47.1875 26.7985 49.4471 26.1582 50.4495 24.3771C50.5073 24.2717 50.5631 24.163 50.6104 24.055C51.3714 22.3328 50.7057 20.281 49.032 19.3475C48.7531 19.1934 48.4596 19.0746 48.1553 18.9977L44.8303 9.05208C44.2807 6.72261 42.9737 4.92738 41.0499 3.85819C40.1774 3.37268 39.1939 3.09076 38.1309 3.02037C37.1145 2.95339 36.0516 3.07837 34.9645 3.39537C32.785 4.02805 30.6846 5.36438 28.8847 7.25943L28.8768 7.26858L24.1002 12.4729C23.0447 12.0472 21.8065 12.4628 21.2346 13.482L18.9196 17.7436C18.7442 18.0565 18.6514 18.3959 18.6322 18.7315C18.5823 19.5784 19.0092 20.4173 19.7993 20.8541ZM19.6723 18.1626L21.9873 14.034C22.3733 13.3474 23.2471 13.0993 23.9338 13.482L24.2931 13.6816L29.507 7.84916C32.9632 4.21537 37.5307 2.8883 40.6274 4.61098C42.3476 5.57014 43.5099 7.18928 44.0006 9.29175L47.4983 19.761C47.8771 19.7981 48.2541 19.9073 48.6115 20.1036C49.9775 20.8645 50.4659 22.5952 49.6987 23.9614C48.9314 25.3275 47.1956 25.8211 45.8295 25.0602C44.5583 24.354 44.0491 22.8133 44.5985 21.501L42.4745 19.7868L41.4414 23.2206L42.2263 23.6561C42.9129 24.0388 43.1584 24.9101 42.7724 25.5968L40.4574 29.7253C40.0715 30.412 39.1976 30.6601 38.511 30.2773L20.2185 20.1033C19.5318 19.7205 19.2864 18.8493 19.6723 18.1626Z" fill="white"/>
<path d="M43.3086 15.3904C43.2937 15.4484 43.2788 15.5063 43.2639 15.5643C43.2612 15.5748 43.2598 15.5801 43.2571 15.5906C43.2747 15.5221 43.2923 15.4536 43.3086 15.3904Z" fill="#C40047"/>
<path d="M43.4098 14.9887C43.4126 14.9781 43.4153 14.9676 43.418 14.957C43.4119 14.9695 43.4126 14.9781 43.4098 14.9887Z" fill="#C40047"/>
<path d="M43.3422 15.2598C43.3503 15.2281 43.3571 15.2018 43.3652 15.1702C43.3571 15.2018 43.3503 15.2281 43.3422 15.2598Z" fill="#C40047"/>
<path d="M45.0794 20.7209C45.4751 20.2683 45.9979 19.9622 46.5636 19.8261L44.3662 13.2656C44.3179 15.2041 44.261 18.6221 44.218 20.0289L45.0794 20.7209Z" fill="#C40047"/>
<path d="M25.1068 14.1297L35.5288 19.9269C37.4852 16.7264 39.8391 11.4244 40.5122 5.59743C40.4062 5.53159 40.2982 5.46246 40.1876 5.40382C37.4469 3.8827 33.3311 5.13691 30.1777 8.46208L25.1068 14.1297Z" fill="#FE255F"/>
<path d="M43.0926 16.1364L43.2529 15.6104L43.0926 16.1364Z" fill="#FE255F"/>
<path d="M43.2646 15.5632C43.2606 15.579 43.2565 15.5949 43.2525 15.6107C43.2538 15.6054 43.2565 15.5949 43.2579 15.5896C43.2606 15.579 43.2633 15.5685 43.2646 15.5632Z" fill="#FE255F"/>
<path d="M35.5254 19.929L40.6264 22.7663L42.5302 16.4437C42.6026 16.2053 42.8557 16.0683 43.0977 16.1377L43.256 15.6085C43.26 15.5927 43.2641 15.577 43.2681 15.5613C43.2829 15.5036 43.2977 15.446 43.3126 15.3883C43.3233 15.3464 43.3321 15.3012 43.3462 15.2573C43.3543 15.2259 43.361 15.1997 43.3691 15.1682C43.3853 15.1053 43.3981 15.0444 43.411 14.9834C43.4137 14.973 43.4164 14.9625 43.4191 14.952C43.6919 13.7596 43.8212 12.6258 43.8087 11.5761L43.1589 9.62598C43.1583 9.61746 43.1491 9.60957 43.1485 9.60104C43.144 9.58595 43.1415 9.57414 43.137 9.55905L42.7708 8.46193C42.7578 8.42518 42.7601 8.38389 42.7557 8.34651C42.2763 7.17893 41.5163 6.24464 40.5154 5.59554C39.8357 11.4265 37.4818 16.7284 35.5254 19.929Z" fill="#C40047"/>
<path d="M48.1613 20.8938C47.2299 20.3767 46.0513 20.7124 45.5299 21.6439C45.0084 22.5754 45.3406 23.7505 46.2721 24.2676C47.2035 24.7847 48.382 24.449 48.9055 23.5208C49.4269 22.5893 49.0928 21.4109 48.1613 20.8938Z" fill="white"/>
<path d="M20.6634 19.3088L38.9506 29.4816C39.2027 29.6206 39.5192 29.5303 39.6593 29.2783L41.9744 25.1497C42.1145 24.8977 42.0252 24.5821 41.7732 24.4431L23.486 14.2704C23.2339 14.1314 22.9174 14.2216 22.7773 14.4737L20.4622 18.6022C20.3201 18.851 20.4114 19.1698 20.6634 19.3088Z" fill="white"/>
<path d="M43.4144 14.9593C43.4117 14.9697 43.409 14.9802 43.4063 14.9907C43.3935 15.0516 43.3773 15.1145 43.3644 15.1755C43.3597 15.205 43.3496 15.2331 43.3416 15.2646C43.3308 15.3065 43.322 15.3517 43.3079 15.3956C43.2904 15.4637 43.2742 15.5266 43.2567 15.5947C43.2554 15.6 43.2527 15.6105 43.2513 15.6157L43.093 16.145C43.3316 16.2164 43.468 16.4686 43.3975 16.7103L42.7522 18.8523L44.2168 20.0343C44.2617 18.6308 44.32 15.2075 44.365 13.2711L43.8027 11.5886C43.8165 12.633 43.6906 13.7649 43.4144 14.9593Z" fill="#A00404"/>
<path d="M20.2164 20.1027L38.5037 30.2754C39.1903 30.6581 40.0642 30.41 40.4501 29.7234L42.7651 25.5948C43.1511 24.9082 42.9056 24.0369 42.219 23.6541L41.4341 23.2187L42.4672 19.7849L44.5912 21.4991C44.0451 22.8094 44.5543 24.3501 45.8222 25.0583C47.1883 25.8191 48.9241 25.3256 49.6914 23.9594C50.4586 22.5933 49.9702 20.8625 48.6042 20.1017C48.2501 19.9034 47.8731 19.7942 47.491 19.7591L43.9933 9.28979C43.5112 7.18669 42.3489 5.56755 40.6254 4.61035C37.5286 2.88766 32.9611 4.21474 29.505 7.84853L24.2924 13.6758L23.9331 13.4762C23.2464 13.0934 22.3726 13.3415 21.9866 14.0282L19.6716 18.1567C19.2843 18.8486 19.5298 19.7199 20.2164 20.1027ZM23.486 14.2702L41.7752 24.4462C42.0272 24.5852 42.1133 24.9027 41.9764 25.1528L39.6614 29.2814C39.5212 29.5334 39.2027 29.6204 38.9527 29.4846L20.6635 19.3086C20.4114 19.1696 20.3254 18.8521 20.4623 18.602L22.7773 14.4735C22.9175 14.2215 23.2373 14.1292 23.486 14.2702ZM48.9026 23.5174C48.3812 24.4489 47.2007 24.7814 46.2692 24.2642C45.3378 23.7471 45.0089 22.5701 45.527 21.6406C46.0485 20.7091 47.229 20.3766 48.1585 20.8904C49.0919 21.4109 49.426 22.5892 48.9026 23.5174ZM40.1816 5.40241C40.2942 5.46434 40.4002 5.53018 40.5062 5.59603C41.5104 6.24317 42.2672 7.17941 42.7466 8.34699C42.7476 8.38633 42.7487 8.42566 42.7616 8.46241L43.1278 9.55953C43.1323 9.57462 43.1349 9.58643 43.1394 9.60152C43.14 9.61005 43.1491 9.61794 43.1497 9.62646L43.7996 11.5766L44.3618 13.259L46.5598 19.828C45.9941 19.9642 45.4745 20.2683 45.0756 20.7228L44.2175 20.0289L42.7529 18.8469L43.3983 16.7048C43.4707 16.4664 43.3324 16.211 43.0938 16.1395C42.8551 16.0681 42.602 16.2051 42.5263 16.4455L40.6258 22.7661L35.5247 19.9288L25.106 14.1297L30.177 8.462C33.3304 5.13683 37.4462 3.88262 40.1816 5.40241Z" fill="#443023"/>
</g>
<defs>
<linearGradient id="paint0_linear_13087_43289" x1="52.7053" y1="5.18605" x2="-17.1825" y2="85.835" gradientUnits="userSpaceOnUse">
<stop stop-color="#00A8A1"/>
<stop offset="1" stop-color="#41FF7A"/>
</linearGradient>
<linearGradient id="paint1_linear_13087_43289" x1="45.8579" y1="-0.747684" x2="-24.0299" y2="79.9013" gradientUnits="userSpaceOnUse">
<stop stop-color="#00A8A1"/>
<stop offset="1" stop-color="#41FF7A"/>
</linearGradient>
<linearGradient id="paint2_linear_13087_43289" x1="56.6251" y1="8.58286" x2="-13.2627" y2="89.2318" gradientUnits="userSpaceOnUse">
<stop stop-color="#00A8A1"/>
<stop offset="1" stop-color="#41FF7A"/>
</linearGradient>
<linearGradient id="paint3_linear_13087_43289" x1="52.4041" y1="4.92516" x2="-17.4837" y2="85.5742" gradientUnits="userSpaceOnUse">
<stop stop-color="#00A8A1"/>
<stop offset="1" stop-color="#41FF7A"/>
</linearGradient>
<linearGradient id="paint4_linear_13087_43289" x1="50.5927" y1="3.35547" x2="-19.2951" y2="84.0045" gradientUnits="userSpaceOnUse">
<stop stop-color="#00A8A1"/>
<stop offset="1" stop-color="#41FF7A"/>
</linearGradient>
<linearGradient id="paint5_linear_13087_43289" x1="51.2415" y1="3.91756" x2="-18.6464" y2="84.5665" gradientUnits="userSpaceOnUse">
<stop stop-color="#00A8A1"/>
<stop offset="1" stop-color="#41FF7A"/>
</linearGradient>
<linearGradient id="paint6_linear_13087_43289" x1="52.7339" y1="-8.04938" x2="-36.3011" y2="94.695" gradientUnits="userSpaceOnUse">
<stop stop-color="#00A8A1"/>
<stop offset="1" stop-color="#41FF7A"/>
</linearGradient>
<linearGradient id="paint7_linear_13087_43289" x1="45.8579" y1="-0.747744" x2="-24.03" y2="79.9013" gradientUnits="userSpaceOnUse">
<stop stop-color="#00A8A1"/>
<stop offset="1" stop-color="#41FF7A"/>
</linearGradient>
<linearGradient id="paint8_linear_13087_43289" x1="48.2251" y1="-17.0356" x2="-55.8649" y2="103.082" gradientUnits="userSpaceOnUse">
<stop stop-color="#00A8A1"/>
<stop offset="0.9999" stop-color="#40FE7A"/>
<stop offset="1" stop-color="#41FF7A"/>
</linearGradient>
<clipPath id="clip0_13087_43289">
<rect width="27.5548" height="29.0051" fill="white" transform="translate(39.9385) rotate(59.2929)"/>
</clipPath>
</defs>
</svg>
