<svg width="48" height="46" viewBox="0 0 48 46" fill="none" xmlns="http://www.w3.org/2000/svg">
<path d="M48 23C48 25.3522 45.2911 27.2695 44.5767 29.3998C43.8253 31.6012 44.8179 34.6724 43.4171 36.5009C42.007 38.3561 38.6486 38.4004 36.7097 39.7408C34.7986 41.0722 33.7225 44.1257 31.4124 44.8447C29.1952 45.537 26.4584 43.6907 23.9907 43.6907C21.5323 43.6907 18.7955 45.537 16.569 44.8447C14.2683 44.1257 13.1921 41.0722 11.2717 39.7408C9.33282 38.3916 5.97449 38.3472 4.56436 36.5009C3.17279 34.6724 4.15617 31.6012 3.40472 29.3998C2.70893 27.2695 0 25.3611 0 23C0 20.6389 2.70893 18.7305 3.42327 16.6002C4.17472 14.3988 3.18206 11.3276 4.58291 9.4991C5.99304 7.64395 9.35137 7.59957 11.2903 6.25924C13.2014 4.92779 14.2775 1.87433 16.5876 1.15535C18.8048 0.462994 21.5416 2.30927 24.0093 2.30927C26.4677 2.30927 29.2045 0.462994 31.431 1.15535C33.7317 1.87433 34.8079 4.92779 36.7283 6.25924C38.6672 7.60844 42.0255 7.65282 43.4356 9.4991C44.8272 11.3276 43.8438 14.3988 44.5953 16.6002C45.2911 18.7305 48 20.6478 48 23Z" fill="#E53E3E"/>
<path d="M16.8201 29H14.5801L9.50806 21.336V29H7.26806V17.816H9.50806L14.5801 25.496V17.816H16.8201V29ZM21.2737 19.64V22.44H25.0337V24.216H21.2737V27.176H25.5137V29H19.0337V17.816H25.5137V19.64H21.2737ZM42.4773 17.832L39.3573 29H36.7173L34.6213 21.048L32.4293 29L29.8053 29.016L26.7973 17.832H29.1973L31.1653 26.504L33.4373 17.832H35.9333L38.0773 26.456L40.0613 17.832H42.4773Z" fill="white"/>
</svg>
