<svg width="107" height="130" viewBox="0 0 107 130" fill="none" xmlns="http://www.w3.org/2000/svg">
<path fill-rule="evenodd" clip-rule="evenodd" d="M53.875 30C44.6256 30 35.755 33.6743 29.2147 40.2147C22.6743 46.755 19 55.6256 19 64.875C19 69.4548 19.9021 73.9899 21.6547 78.2211C23.4073 82.4523 25.9762 86.2969 29.2147 89.5354C32.4531 92.7738 36.2977 95.3427 40.5289 97.0953C44.7601 98.8479 49.2951 99.75 53.875 99.75C58.4549 99.75 62.9899 98.8479 67.2211 97.0953C71.4523 95.3427 75.2969 92.7738 78.5354 89.5354C81.7738 86.2969 84.3427 82.4523 86.0953 78.2211C87.8479 73.9899 88.75 69.4549 88.75 64.875C88.75 55.6256 85.0757 46.755 78.5354 40.2147C71.995 33.6743 63.1244 30 53.875 30ZM24.972 35.972C32.6376 28.3065 43.0343 24 53.875 24C64.7157 24 75.1124 28.3065 82.778 35.972C90.4435 43.6376 94.75 54.0343 94.75 64.875C94.75 70.2428 93.6927 75.558 91.6386 80.5172C89.5844 85.4764 86.5736 89.9824 82.778 93.778C78.9824 97.5736 74.4764 100.584 69.5172 102.639C64.558 104.693 59.2428 105.75 53.875 105.75C48.5072 105.75 43.192 104.693 38.2328 102.639C33.2736 100.584 28.7676 97.5736 24.972 93.778C21.1764 89.9824 18.1656 85.4764 16.1114 80.5172C14.0573 75.558 13 70.2428 13 64.875C13 54.0343 17.3065 43.6376 24.972 35.972ZM53.875 40.8333C55.5319 40.8333 56.875 42.1765 56.875 43.8333V45.2481C61.0105 45.8237 64.7347 47.5834 67.0782 50.2836C68.1642 51.5349 68.0301 53.4297 66.7788 54.5157C65.5275 55.6017 63.6328 55.4677 62.5468 54.2164C61.4649 52.9698 59.4701 51.8372 56.875 51.327V62.0805C59.7268 62.4763 62.3494 63.4321 64.4664 64.8433C67.2879 66.724 69.5 69.6517 69.5 73.2917C69.5 76.9316 67.2879 79.8593 64.4664 81.7401C62.3494 83.1512 59.7268 84.107 56.875 84.5029V85.9167C56.875 87.5735 55.5319 88.9167 53.875 88.9167C52.2181 88.9167 50.875 87.5735 50.875 85.9167V84.5019C46.7395 83.9263 43.0153 82.1666 40.6719 79.4664C39.5858 78.2151 39.7199 76.3203 40.9712 75.2343C42.2225 74.1483 44.1172 74.2823 45.2032 75.5336C46.2851 76.7802 48.2799 77.9128 50.875 78.423V67.6695C48.0232 67.2737 45.4006 66.3179 43.2836 64.9067C40.4621 63.026 38.25 60.0983 38.25 56.4583C38.25 52.8184 40.4621 49.8907 43.2836 48.0099C45.4006 46.5988 48.0232 45.643 50.875 45.2471V43.8333C50.875 42.1765 52.2181 40.8333 53.875 40.8333ZM50.875 51.3279C49.1823 51.6608 47.7242 52.2607 46.6115 53.0024C44.8638 54.1675 44.25 55.4481 44.25 56.4583C44.25 57.4686 44.8638 58.7492 46.6115 59.9143C47.7242 60.656 49.1823 61.2558 50.875 61.5887V51.3279ZM56.875 68.1613V78.4221C58.5677 78.0892 60.0258 77.4893 61.1385 76.7476C62.8862 75.5826 63.5 74.3019 63.5 73.2917C63.5 72.2814 62.8862 71.0008 61.1385 69.8357C60.0258 69.094 58.5677 68.4942 56.875 68.1613Z" fill="#1AC486"/>
<path fill-rule="evenodd" clip-rule="evenodd" d="M26.2536 90.2541C25.0821 89.0826 25.0821 87.1831 26.2536 86.0115L74.011 38.2541C75.1826 37.0826 77.0821 37.0826 78.2536 38.2541C79.4252 39.4257 79.4252 41.3252 78.2536 42.4968L30.4963 90.2541C29.3247 91.4257 27.4252 91.4257 26.2536 90.2541Z" fill="#1AC486"/>
</svg>
