<svg width="98" height="130" viewBox="0 0 98 130" fill="none" xmlns="http://www.w3.org/2000/svg">
<path d="M34.6668 72.0417V56.2083C34.6668 52.0091 36.335 47.9818 39.3043 45.0125C42.2736 42.0431 46.3009 40.375 50.5002 40.375C54.6994 40.375 58.7267 42.0431 61.696 45.0125C64.6653 47.9818 66.3335 52.0091 66.3335 56.2083M34.6668 72.0417H74.2502C76.3498 72.0417 78.3634 72.8757 79.8481 74.3604C81.3327 75.8451 82.1668 77.8587 82.1668 79.9583V103.708C82.1668 105.808 81.3327 107.822 79.8481 109.306C78.3634 110.791 76.3498 111.625 74.2502 111.625H26.7502C24.6505 111.625 22.6369 110.791 21.1522 109.306C19.6676 107.822 18.8335 105.808 18.8335 103.708V79.9583C18.8335 77.8587 19.6676 75.8451 21.1522 74.3604C22.6369 72.8757 24.6505 72.0417 26.7502 72.0417H34.6668ZM50.5002 87.875V95.7917" stroke="#1AC486" stroke-width="7" stroke-linecap="round" stroke-linejoin="round"/>
<line x1="12.4795" y1="29.5557" x2="4.0555" y2="21.1316" stroke="#1AC486" stroke-width="6" stroke-linecap="round"/>
<line x1="49.6113" y1="19.167" x2="49.6113" y2="3.00033" stroke="#1AC486" stroke-width="6" stroke-linecap="round"/>
<line x1="84.2778" y1="30.5904" x2="93.7574" y2="21.1108" stroke="#1AC486" stroke-width="6" stroke-linecap="round"/>
</svg>
