<svg width="101" height="130" viewBox="0 0 101 130" fill="none" xmlns="http://www.w3.org/2000/svg">
<g clip-path="url(#clip0)">
<path d="M65.2528 80.024C65.2528 83.1342 65.2528 86.0324 65.2528 88.9306C65.2528 90.0616 65.3237 91.1926 65.2528 92.3236C65.1819 93.3839 65.4656 93.7374 66.5295 93.7374C69.5084 93.6667 72.4164 93.7374 75.3954 93.6667C76.3884 93.6667 77.3104 93.8787 77.736 94.939C78.1615 95.9994 77.8069 96.9183 77.1685 97.8372C69.0119 108.087 60.8553 118.407 52.6278 128.657C51.2093 130.424 50.0035 130.424 48.585 128.657C40.4284 118.407 32.2718 108.158 24.1152 97.9079C23.4059 96.989 22.9803 96.07 23.4768 94.939C23.9733 93.808 24.8954 93.7374 25.9593 93.7374C29.2219 93.7374 32.4136 93.7374 35.889 93.7374C35.889 92.5357 35.889 91.4754 35.889 90.415C35.889 89.2134 35.8181 88.0824 35.889 86.8807C35.96 85.4669 36.8111 84.6894 38.0169 84.6894C39.2226 84.6894 40.0028 85.5376 40.0028 86.9514C40.0028 89.9202 40.0028 92.8891 40.0028 95.7873C40.0028 97.3424 39.2226 98.12 37.8041 98.12C35.6763 98.12 33.6194 98.12 31.4916 98.12C31.066 98.12 30.7114 98.1907 29.9312 98.1907C36.882 106.956 43.691 115.509 50.6419 124.204C57.5218 115.509 64.3308 106.956 71.4235 98.0493C69.7212 98.0493 68.4445 98.0493 67.1678 98.0493C60.7844 98.12 61.2809 98.4734 61.2809 91.7581C61.2809 87.3048 61.2809 82.8515 61.2809 78.3982C61.2809 76.0655 61.8483 75.5 63.9761 75.5C73.835 75.5 83.6938 75.5 93.5527 75.5C94.0492 75.5 94.5457 75.5 95.0421 75.4293C96.3188 75.2173 96.9572 74.4397 97.0281 73.0259C97.0281 71.9656 97.0281 70.9053 97.0281 69.9157C97.0281 56.1316 97.0281 42.3476 97.0281 28.6342C97.0281 26.0188 96.4607 25.4533 94.0492 25.4533C65.111 25.4533 36.1728 25.4533 7.23455 25.4533C4.96489 25.4533 4.39747 26.0895 4.39747 28.4929C4.39747 43.0545 4.39747 57.6868 4.39747 72.2484C4.39747 74.7931 5.03581 75.5 7.3764 75.5C14.1854 75.5 20.9944 75.5 27.8743 75.5C36.6692 75.5 45.4642 75.5 54.2591 75.5C54.5428 75.5 54.8265 75.5 55.1103 75.5C56.1742 75.6414 56.8125 76.3483 56.9544 77.4086C57.0962 78.6103 56.5288 79.4585 55.4649 79.7412C54.9684 79.8826 54.401 79.8826 53.8336 79.8826C37.6622 79.8826 21.5618 79.8826 5.39045 79.8826C1.56039 79.8826 0.141854 78.3275 0.141854 74.2276C0 58.323 0 42.2769 0 26.2309C0 22.6258 1.56039 21 4.89396 21C35.3216 21 65.7493 21 96.177 21C99.5105 21 101.071 22.6258 101.071 26.2309C101.071 42.4183 101.071 58.6764 101.071 74.8638C101.071 78.2568 99.4396 80.024 96.3188 80.024C86.6018 80.024 76.8848 80.024 67.0969 80.024C66.5295 80.024 66.033 80.024 65.2528 80.024Z" fill="#1AC486"/>
<path d="M50.0033 70.8345C40.4991 70.8345 30.9949 70.8345 21.4907 70.8345C19.5048 70.8345 18.9373 70.269 18.8664 68.0777C18.6536 64.614 15.8875 61.5038 12.5539 60.9383C12.1283 60.8676 11.6319 60.8676 11.2063 60.7969C9.78776 60.5848 9.14941 59.8779 9.14941 58.3228C9.14941 53.1626 9.14941 47.9318 9.14941 42.7716C9.14941 41.0044 9.71683 40.3682 11.3482 40.2268C15.1782 39.8027 17.9444 37.47 18.7246 33.9357C18.7955 33.7943 18.7955 33.5822 18.7955 33.3702C19.292 30.1185 19.3629 30.0479 22.3418 30.0479C41.0666 30.0479 59.7203 30.0479 78.4451 30.0479C80.6438 30.0479 81.0694 30.5427 81.3531 33.0167C81.7077 36.2683 83.41 38.389 86.1052 39.52C87.0272 39.9441 88.0911 40.0148 89.0841 40.1562C90.2899 40.3682 90.9991 41.0044 90.9991 42.3475C91.0701 47.7197 91.0701 53.1626 90.9991 58.5349C90.9991 59.8073 90.2899 60.5141 89.155 60.7262C88.233 60.8676 87.3819 60.9383 86.5307 61.221C83.4809 62.2106 81.4949 64.9674 81.2821 68.5018C81.1403 70.1276 80.5019 70.8345 78.8706 70.8345C69.2955 70.8345 59.6494 70.8345 50.0033 70.8345ZM50.1452 66.3812C58.8692 66.3812 67.5223 66.3812 76.2463 66.3812C76.8847 66.3812 77.523 66.5226 77.8067 65.5329C79.0834 60.8676 81.9205 58.0401 86.1052 56.7677C86.9563 56.5556 87.1691 56.1315 87.0982 55.2833C87.0272 52.1023 87.0272 48.9214 87.0982 45.7405C87.0982 44.8215 86.8854 44.3974 86.0342 44.1853C81.9205 42.9837 79.0125 40.1562 77.8067 35.4908C77.5939 34.6425 77.1684 34.5012 76.4591 34.5012C58.9401 34.5012 41.3503 34.5012 23.8313 34.5012C23.122 34.5012 22.7674 34.7132 22.5546 35.4908C21.2779 40.0855 18.4408 42.913 14.2562 44.1146C13.476 44.3267 13.1923 44.6801 13.1923 45.5991C13.2632 48.78 13.2632 51.961 13.1923 55.1419C13.1923 56.1315 13.476 56.4849 14.3271 56.7677C18.2281 57.8987 20.9942 60.5848 22.3418 64.8261C22.7674 66.0984 23.2639 66.3812 24.3278 66.3105C32.9099 66.3812 41.4921 66.3812 50.1452 66.3812Z" fill="#1AC486"/>
<path d="M55.536 44.2566C55.536 44.2566 52.9117 40.0861 47.734 42.2067C46.6701 42.6308 45.819 43.5497 45.6062 44.6101C45.1807 46.3066 46.2446 47.6496 52.0606 50.3357C52.628 50.5478 53.9047 51.4667 54.1884 51.6788C55.3941 52.6684 56.7417 55.92 53.4082 57.1924C47.3085 59.5251 45.4644 56.1321 45.4644 56.1321" stroke="#1AC486" stroke-width="4" stroke-miterlimit="10" stroke-linecap="round"/>
<path d="M50.0747 39.5908L50.3584 60.5143" stroke="#1AC486" stroke-width="4" stroke-miterlimit="10" stroke-linecap="round"/>
</g>
<defs>
<clipPath id="clip0">
<rect width="101" height="109" fill="white" transform="translate(0 21)"/>
</clipPath>
</defs>
</svg>
