<svg width="251" height="605" viewBox="0 0 251 605" fill="none" xmlns="http://www.w3.org/2000/svg">
<g clip-path="url(#clip0)">
<path d="M135.758 138.936C136.072 138.755 136.308 138.619 136.622 138.438C136.936 138.256 137.25 138.075 137.486 137.939C137.643 137.848 137.878 137.712 138.035 137.622C138.192 137.531 138.428 137.395 138.585 137.304C138.899 137.123 139.258 137.02 139.572 136.839C140.593 136.249 141.49 135.627 142.511 135.038L341.555 20.1196C360.399 9.23976 384.55 15.711 395.43 34.5554C406.31 53.3998 399.838 77.5507 380.994 88.4305L181.95 203.349C180.929 203.938 179.942 204.403 178.876 204.914C177.979 205.537 177.003 206.205 176.061 206.749C138.294 228.554 125.385 276.732 147.19 314.499C168.995 352.266 217.173 365.175 254.94 343.37L323.251 303.931L303.531 269.776L235.377 309.124L235.299 309.17L235.22 309.215C216.454 320.049 192.18 313.545 181.345 294.779C170.511 276.013 177.015 251.739 195.781 240.904L195.859 240.859L195.938 240.813L298.247 181.745L355.173 148.879C374.018 137.999 398.168 144.47 409.048 163.315C419.928 182.159 413.457 206.31 394.612 217.19L371.842 230.336L391.562 264.492L431.001 332.803L477.014 412.499C487.848 431.265 481.344 455.539 462.578 466.374C443.812 477.208 419.537 470.704 408.703 451.938L362.69 372.242L294.379 411.681C218.923 455.246 122.443 429.394 78.8787 353.938C35.4954 278.796 60.9667 182.745 135.758 138.936Z" fill="#27DC8A"/>
</g>
<defs>
<clipPath id="clip0">
<rect width="433.833" height="446.979" fill="white" transform="matrix(-0.866025 0.5 0.5 0.866025 375.71 0.399902)"/>
</clipPath>
</defs>
</svg>
