<svg width="32" height="32" viewBox="0 0 32 32" fill="none" xmlns="http://www.w3.org/2000/svg">
<path d="M27.3244 15.1879C27.306 15.1879 27.306 15.1879 27.2877 15.1879C27.306 15.0962 27.306 15.0045 27.306 14.9128C27.3244 14.9128 27.3244 14.9128 27.3427 14.9128C27.8015 14.9128 28.1869 14.5275 28.1869 14.0689C28.1869 13.6103 27.8015 13.2251 27.3427 13.2251C27.3244 13.2251 27.3244 13.2251 27.306 13.2251C27.306 13.1334 27.2877 13.0417 27.2877 12.95C27.306 12.95 27.306 12.95 27.3244 12.95C27.7832 12.8766 28.0951 12.4363 28.0034 11.9777C27.93 11.5191 27.4895 11.2073 27.0308 11.299C27.0124 11.299 27.0124 11.299 26.9941 11.299C26.9757 11.2073 26.939 11.1156 26.9207 11.0238C26.939 11.0238 26.939 11.0238 26.9574 11.0238C27.3978 10.8587 27.618 10.3818 27.4528 9.94155C27.2877 9.50129 26.8105 9.28116 26.3701 9.44626C26.3518 9.44626 26.3518 9.4646 26.3334 9.4646C26.2967 9.37288 26.26 9.29951 26.2233 9.20779C26.2233 9.20779 26.2417 9.20779 26.2417 9.18944C26.6454 8.95097 26.7738 8.43734 26.5536 8.03377C26.3151 7.63021 25.8012 7.5018 25.3975 7.72192C25.3792 7.72192 25.3792 7.74027 25.3792 7.74027C25.3241 7.66689 25.269 7.59352 25.214 7.52014L25.2323 7.5018C25.581 7.20829 25.6361 6.67632 25.3425 6.30944C25.0488 5.9609 24.5166 5.90587 24.1496 6.19937L24.1313 6.21772C24.0946 6.18103 24.0762 6.16269 24.0395 6.126L23.9478 6.03428L23.9294 6.01593L23.9478 5.99759C24.2414 5.64905 24.2047 5.11708 23.8377 4.80523C23.489 4.51173 22.9568 4.54842 22.6448 4.9153L22.6265 4.93364C22.5531 4.87861 22.4797 4.82358 22.4063 4.76854C22.4063 4.7502 22.4246 4.7502 22.4246 4.7502C22.6632 4.34663 22.5164 3.833 22.1126 3.59453C21.7089 3.35606 21.1951 3.50281 20.9565 3.90638C20.9565 3.90638 20.9565 3.92472 20.9382 3.92472C20.8464 3.88803 20.773 3.85134 20.6812 3.81466C20.6812 3.79631 20.6996 3.79631 20.6996 3.77797C20.8648 3.33771 20.6262 2.86077 20.2041 2.69567C19.7637 2.53058 19.2866 2.76905 19.1214 3.19096C19.1214 3.2093 19.1214 3.2093 19.1214 3.22765C19.0296 3.2093 18.9379 3.17262 18.8461 3.15427C18.8461 3.13593 18.8461 3.13593 18.8461 3.11758C18.9195 2.65899 18.6259 2.21873 18.1671 2.14535C17.7084 2.07198 17.2679 2.36548 17.1945 2.82408C17.1945 2.84243 17.1945 2.84243 17.1945 2.86077C17.1028 2.86077 17.011 2.84243 16.9192 2.84243C16.9192 2.82408 16.9192 2.82408 16.9192 2.80574C16.9192 2.34714 16.5339 1.96191 16.0751 1.96191C15.6163 1.96191 15.2309 2.34714 15.2309 2.80574C15.2309 2.82408 15.2309 2.82408 15.2309 2.84243C15.1392 2.84243 15.0474 2.86077 14.9557 2.86077C14.9557 2.84243 14.9557 2.84243 14.9557 2.82408C14.8823 2.36548 14.4418 2.05363 13.9831 2.14535C13.5243 2.21873 13.2123 2.65899 13.3041 3.11758C13.3041 3.13593 13.3041 3.13593 13.3041 3.15427C13.2123 3.17262 13.1205 3.2093 13.0288 3.22765C13.0288 3.2093 13.0288 3.2093 13.0288 3.19096C12.8636 2.75071 12.3865 2.53058 11.9461 2.69567C11.5056 2.86077 11.2854 3.33771 11.4506 3.77797C11.4506 3.79631 11.4689 3.79631 11.4689 3.81466C11.3772 3.85134 11.3038 3.88803 11.212 3.92472C11.212 3.92472 11.212 3.90638 11.1937 3.90638C10.9551 3.50281 10.4413 3.3744 10.0375 3.59453C9.63382 3.833 9.50536 4.34663 9.72558 4.7502L9.74393 4.76854C9.67052 4.82358 9.59712 4.87861 9.52371 4.93364L9.50536 4.9153C9.21174 4.56676 8.67956 4.51173 8.31253 4.80523C7.96386 5.09874 7.90881 5.63071 8.20243 5.99759C8.20243 6.01593 8.22078 6.01593 8.22078 6.01593C8.14737 6.08931 8.09232 6.14434 8.01891 6.21772L8.00056 6.19937C7.98221 6.18103 7.94551 6.16269 7.92716 6.14434C7.57849 5.90587 7.10135 5.97925 6.82609 6.30944C6.80773 6.32778 6.78938 6.36447 6.77103 6.38281C6.53247 6.73135 6.60587 7.20829 6.93619 7.48345L6.95454 7.5018C6.89949 7.57517 6.84444 7.64855 6.78938 7.72192L6.77103 7.70358C6.36731 7.46511 5.85347 7.61186 5.61491 8.01543C5.37634 8.419 5.52315 8.93263 5.92688 9.1711C5.92688 9.1711 5.94523 9.1711 5.94523 9.18944C5.90853 9.28116 5.87182 9.35454 5.83512 9.44626C5.81677 9.44626 5.81677 9.42792 5.79842 9.42792C5.35799 9.26282 4.88086 9.50129 4.7157 9.9232C4.55054 10.3451 4.7891 10.8404 5.21118 11.0055C5.22953 11.0055 5.22953 11.0055 5.24788 11.0055C5.22953 11.0972 5.19283 11.1889 5.17448 11.2807H5.15613C4.69735 11.2073 4.25692 11.5008 4.18351 11.9594C4.11011 12.418 4.40373 12.8582 4.86251 12.9316C4.88086 12.9316 4.88086 12.9316 4.89921 12.9316C4.88086 13.0233 4.88086 13.1151 4.88086 13.2068C4.86251 13.2068 4.86251 13.2068 4.84416 13.2068C4.38538 13.2068 4 13.592 4 14.0506C4 14.5092 4.38538 14.8944 4.84416 14.8944C4.86251 14.8944 4.86251 14.8944 4.88086 14.8944C4.88086 14.9861 4.89921 15.0779 4.89921 15.1696C4.88086 15.1696 4.88086 15.1696 4.86251 15.1696C4.40373 15.243 4.09176 15.6832 4.18351 16.1418C4.25692 16.6004 4.69735 16.9123 5.15613 16.8205C5.17448 16.8205 5.17448 16.8205 5.17448 16.8205C5.19283 16.9123 5.22953 17.004 5.24788 17.0957C5.22953 17.0957 5.22953 17.0957 5.21118 17.0957C4.77075 17.2608 4.55054 17.7377 4.7157 18.178C4.88086 18.6182 5.35799 18.8384 5.79842 18.6916C5.81677 18.6916 5.81677 18.6733 5.83512 18.6733C5.87182 18.765 5.90853 18.8384 5.94523 18.9301C5.94523 18.9301 5.92688 18.9301 5.92688 18.9484C5.52315 19.1869 5.39469 19.7005 5.61491 20.1041C5.85347 20.5077 6.36731 20.6361 6.77103 20.416L6.78938 20.3976C6.84444 20.471 6.89949 20.5444 6.95454 20.6177L6.93619 20.6361C6.58752 20.9296 6.53247 21.4616 6.82609 21.8284C7.11971 22.177 7.65189 22.232 8.01891 21.9385L8.03727 21.9202C8.09232 21.9752 8.16572 22.0486 8.22078 22.1036L8.23913 22.122L8.22078 22.1403C8.03727 22.3604 7.98221 22.6356 8.05562 22.8924C8.09232 23.0575 8.18407 23.2226 8.33088 23.3327C8.67956 23.6262 9.21174 23.5895 9.52371 23.2226C9.52371 23.2226 9.54206 23.2042 9.54206 23.1859C9.61547 23.2409 9.68887 23.296 9.76228 23.351L9.74393 23.3693C9.50536 23.7729 9.65217 24.2865 10.0559 24.525C10.4596 24.7635 10.9735 24.6167 11.212 24.2132C11.212 24.1948 11.212 24.1948 11.2304 24.1948C11.3221 24.2315 11.3955 24.2682 11.4873 24.3049C11.4873 24.3232 11.4689 24.3232 11.4689 24.3416C11.3038 24.7818 11.5423 25.2588 11.9644 25.4239C12.4049 25.589 12.882 25.3505 13.0471 24.9286C13.0471 24.9102 13.0471 24.9102 13.0471 24.8919C13.1389 24.9102 13.2307 24.9469 13.3224 24.9653C13.3224 24.9836 13.3224 24.9836 13.3224 25.002C13.249 25.4606 13.5426 25.9008 14.0014 25.9742C14.4602 26.0476 14.9006 25.7541 14.974 25.2955C14.974 25.2771 14.974 25.2771 14.974 25.2588C15.0658 25.2588 15.1575 25.2771 15.2493 25.2771C15.2493 25.2955 15.2493 25.2955 15.2493 25.3138C15.2493 25.7724 15.6347 26.1576 16.0934 26.1576C16.5522 26.1576 16.9376 25.7724 16.9376 25.3138C16.9376 25.2955 16.9376 25.2955 16.9376 25.2771C17.0294 25.2771 17.1211 25.2588 17.2129 25.2588C17.2129 25.2771 17.2129 25.2771 17.2129 25.2955C17.2863 25.7541 17.7267 26.0659 18.1855 25.9742C18.6443 25.9008 18.9562 25.4606 18.8645 25.002C18.8645 24.9836 18.8645 24.9836 18.8645 24.9653C18.9562 24.9469 19.048 24.9102 19.1397 24.8919C19.1397 24.9102 19.1397 24.9102 19.1397 24.9286C19.3049 25.3688 19.782 25.589 20.2225 25.4239C20.6629 25.2588 20.8831 24.7818 20.718 24.3416C20.718 24.3232 20.6996 24.3232 20.6996 24.3049C20.7914 24.2682 20.8648 24.2315 20.9565 24.1948C20.9565 24.1948 20.9565 24.2132 20.9749 24.2132C21.2134 24.6167 21.7273 24.7451 22.131 24.525C22.5347 24.2865 22.6632 23.7729 22.443 23.3693C22.443 23.351 22.4246 23.351 22.4246 23.351C22.498 23.296 22.5714 23.2409 22.6448 23.1859C22.6448 23.2042 22.6632 23.2042 22.6632 23.2226C22.9568 23.5711 23.489 23.6262 23.856 23.3327C24.2047 23.0392 24.2597 22.5072 23.9661 22.1403L23.9478 22.122C24.0212 22.0486 24.0762 21.9935 24.1496 21.9202L24.168 21.9385C24.3698 22.122 24.6451 22.177 24.902 22.122C25.0672 22.0853 25.2323 21.9935 25.3608 21.8468C25.3792 21.8284 25.3975 21.7918 25.4159 21.7734C25.6544 21.4249 25.581 20.9479 25.2507 20.6728L25.2323 20.6544C25.2874 20.5811 25.3425 20.5077 25.3975 20.4343L25.4159 20.4526C25.8196 20.6911 26.3334 20.5444 26.572 20.1408C26.8105 19.7372 26.6637 19.2236 26.26 18.9851C26.26 18.9851 26.2417 18.9851 26.2417 18.9668C26.2784 18.8751 26.3151 18.8017 26.3518 18.71C26.3701 18.71 26.3701 18.7283 26.3885 18.7283C26.8289 18.8934 27.306 18.6549 27.4712 18.2147C27.6364 17.7744 27.3978 17.2975 26.9757 17.1324C26.9574 17.1324 26.9574 17.1324 26.939 17.1324C26.9574 17.0407 26.9941 16.9489 27.0124 16.8572C27.0308 16.8572 27.0308 16.8572 27.0491 16.8572C27.5079 16.9306 27.9483 16.6371 28.0217 16.1785C28.0951 15.7016 27.7832 15.2613 27.3244 15.1879ZM11.0102 14.0139C11.4139 14.0506 11.7809 13.7938 11.891 13.4086C12.0195 12.9683 11.7626 12.4914 11.3038 12.363C11.3038 12.363 11.3038 12.363 11.2854 12.363C11.3038 12.3263 11.3038 12.2896 11.3221 12.2712C11.6892 12.4363 12.1296 12.3446 12.3681 11.9961C12.515 11.7943 12.5517 11.5558 12.515 11.354C12.4783 11.1522 12.3681 10.9688 12.1846 10.8221C12.1846 10.8221 12.1846 10.8221 12.1663 10.8221C12.1846 10.8037 12.2213 10.767 12.2397 10.7487C12.515 11.0238 12.9737 11.0789 13.3041 10.8587C13.6894 10.6019 13.7812 10.07 13.5243 9.68473C13.561 9.66639 13.5793 9.64804 13.616 9.6297C13.7812 9.99658 14.1849 10.1984 14.5886 10.0883C15.0474 9.97823 15.3043 9.51963 15.1942 9.06104C15.1942 9.06104 15.1942 9.06104 15.1942 9.04269C15.2309 9.04269 15.2676 9.02435 15.3043 9.02435C15.341 9.42791 15.653 9.75811 16.0567 9.79479C16.5155 9.84983 16.9376 9.50129 16.9743 9.04269C16.9743 9.04269 16.9743 9.04269 16.9743 9.02435C17.011 9.02435 17.0477 9.04269 17.0844 9.04269C16.9743 9.42792 17.1578 9.84983 17.5248 10.0149C17.69 10.0883 17.8552 10.1066 18.0203 10.0883C18.2772 10.0516 18.5342 9.88651 18.6443 9.61135C18.6443 9.61135 18.6443 9.61135 18.6443 9.59301C18.681 9.61135 18.6993 9.6297 18.736 9.64804C18.6626 9.75811 18.6076 9.88651 18.5892 10.0149C18.5525 10.2717 18.6259 10.5286 18.8278 10.712C19.1581 11.0422 19.6903 11.0422 20.0206 10.7303C20.039 10.7487 20.0757 10.7854 20.094 10.8037C19.7637 11.0238 19.6352 11.4641 19.8004 11.8493C19.9839 12.2712 20.4977 12.4547 20.9198 12.2712C20.9198 12.2712 20.9198 12.2712 20.9382 12.2712C20.9565 12.3079 20.9565 12.3446 20.9749 12.363C20.5711 12.4547 20.2959 12.8216 20.3326 13.2435C20.3693 13.7021 20.773 14.0506 21.2318 14.0139C21.2318 14.0139 21.2318 14.0139 21.2501 14.0139C21.2501 14.0323 21.2501 14.0506 21.2501 14.0689C21.2501 14.0873 21.2501 14.1056 21.2501 14.124C20.8464 14.0873 20.4794 14.3441 20.3693 14.7293C20.2408 15.1696 20.4977 15.6465 20.9565 15.7566C20.9565 15.7566 20.9565 15.7566 20.9749 15.7566C20.9565 15.7933 20.9565 15.83 20.9382 15.8483C20.5895 15.6832 20.1491 15.7749 19.9105 16.0868L19.8921 16.1051C19.6903 16.3803 19.6903 16.7472 19.8554 17.0407C19.9105 17.1324 19.9839 17.2241 20.094 17.2791C20.094 17.2791 20.094 17.2791 20.1124 17.2791C20.094 17.2975 20.0573 17.3342 20.039 17.3525C19.7637 17.059 19.3049 17.0223 18.9746 17.2425C18.5892 17.4993 18.4975 18.0312 18.7544 18.4165C18.7544 18.4165 18.7544 18.4165 18.7544 18.4348C18.7177 18.4532 18.6993 18.4715 18.6626 18.4898C18.4975 18.123 18.0937 17.9212 17.69 18.0312C17.2312 18.1413 16.9743 18.5999 17.0844 19.0585C17.0844 19.0585 17.0844 19.0585 17.0844 19.0768C17.0477 19.0768 17.011 19.0952 16.9743 19.0952C16.9376 18.6916 16.6256 18.3614 16.2219 18.3247C15.7631 18.2881 15.341 18.6182 15.3043 19.0768C15.3043 19.0768 15.3043 19.0768 15.3043 19.0952C15.2676 19.0952 15.2309 19.0768 15.1942 19.0768C15.3043 18.6916 15.1208 18.2697 14.7538 18.1046C14.7171 18.0863 14.6621 18.0679 14.6253 18.0496C14.2216 17.9579 13.7995 18.1413 13.616 18.5082C13.616 18.5082 13.616 18.5082 13.616 18.5265C13.5793 18.5082 13.561 18.4898 13.5243 18.4715C13.7445 18.1597 13.7261 17.7561 13.5059 17.4626C13.4876 17.4442 13.4692 17.4259 13.4509 17.3892C13.1205 17.059 12.5884 17.059 12.258 17.3709C12.2397 17.3525 12.203 17.3158 12.1846 17.2975C12.515 17.0774 12.6434 16.6371 12.4783 16.2519C12.2947 15.83 11.7809 15.6465 11.3588 15.83C11.3588 15.83 11.3588 15.83 11.3405 15.83C11.3221 15.7933 11.3221 15.7566 11.3038 15.7382C11.6892 15.6465 11.9644 15.2796 11.9277 14.8577C11.891 14.3991 11.4873 14.0506 11.0285 14.0873C11.0285 14.0873 11.0285 14.0873 11.0102 14.0873C11.0102 14.0689 11.0102 14.0506 11.0102 14.0323C11.0102 14.0506 11.0102 14.0323 11.0102 14.0139Z" fill="#389E61"/>
<path opacity="0.29" d="M23.7282 19.5174C23.7282 19.5174 21.5077 17.5546 19.8928 16.1055L19.8744 16.1238C19.6726 16.399 19.6726 16.7659 19.8377 17.0594C19.8928 17.1511 19.9662 17.2428 20.0763 17.2978C20.0763 17.2978 20.0763 17.2978 20.0947 17.2978C20.0763 17.3162 20.0396 17.3529 20.0213 17.3712C19.746 17.0777 19.2872 17.041 18.9569 17.2611C18.5715 17.518 18.4798 18.0499 18.7367 18.4352C18.7367 18.4352 18.7367 18.4352 18.7367 18.4535C18.7 18.4718 18.6816 18.4902 18.6449 18.5085C18.4798 18.1417 18.076 17.9399 17.6723 18.0499C17.2135 18.16 16.9566 18.6186 17.0667 19.0772C17.0667 19.0772 17.0667 19.0772 17.0667 19.0955C17.03 19.0955 16.9933 19.1139 16.9566 19.1139C16.9199 18.7103 16.6079 18.3801 16.2042 18.3434C15.7454 18.3067 15.3233 18.6369 15.2866 19.0955C15.2866 19.0955 15.2866 19.0955 15.2866 19.1139C15.2499 19.1139 15.2132 19.0955 15.1765 19.0955C15.2866 18.7103 15.1031 18.2884 14.7361 18.1233C14.6994 18.105 14.6444 18.0866 14.6077 18.0683C14.2223 17.9582 13.8002 18.1417 13.6167 18.5085C13.6167 18.5085 13.6167 18.5085 13.6167 18.5269C13.58 18.5085 13.5616 18.4902 13.5249 18.4718C13.7451 18.16 13.7268 17.7564 13.5066 17.4629L11.7265 21.0033L12.1669 21.3885C11.1576 21.5903 9.43261 22.269 8.11133 22.8744C8.14803 23.0395 8.23979 23.2046 8.3866 23.3147C8.73527 23.6082 9.26745 23.5715 9.57942 23.2046C9.57942 23.2046 9.59778 23.1862 9.59778 23.1679C9.67118 23.2229 9.74458 23.278 9.81799 23.333L9.79964 23.3513C9.56107 23.7549 9.70788 24.2685 10.1116 24.507C10.5153 24.7455 11.0292 24.5987 11.2677 24.1952C11.2677 24.1768 11.2677 24.1768 11.2861 24.1768C11.3778 24.2135 11.4512 24.2502 11.543 24.2869C11.543 24.3052 11.5247 24.3052 11.5247 24.3236C11.3595 24.7638 11.5981 25.2408 12.0201 25.4059C12.4606 25.571 12.9377 25.3325 13.1029 24.9106C13.1029 24.8922 13.1029 24.8922 13.1029 24.8739C13.1946 24.8922 13.2864 24.9289 13.3781 24.9473C13.3781 24.9656 13.3781 24.9656 13.3781 24.984C13.3047 25.4426 13.5983 25.8828 14.0571 25.9562C14.5159 26.0296 14.9563 25.7361 15.0297 25.2775C15.0297 25.2591 15.0297 25.2591 15.0297 25.2408C15.1215 25.2408 15.2132 25.2591 15.305 25.2591C15.305 25.2775 15.305 25.2775 15.305 25.2958C15.305 25.7544 15.6904 26.1396 16.1492 26.1396C16.6079 26.1396 16.9933 25.7544 16.9933 25.2958C16.9933 25.2775 16.9933 25.2775 16.9933 25.2591C17.0851 25.2591 17.1768 25.2408 17.2686 25.2408C17.2686 25.2591 17.2686 25.2591 17.2686 25.2775C17.342 25.7361 17.7824 26.0479 18.2412 25.9562C18.7 25.8828 19.0119 25.4426 18.9202 24.984C18.9202 24.9656 18.9202 24.9656 18.9202 24.9473C19.0119 24.9289 19.1037 24.8922 19.1955 24.8739C19.1955 24.8922 19.1955 24.8922 19.1955 24.9106C19.3606 25.3508 19.8377 25.571 20.2782 25.4059C20.7186 25.2408 20.9388 24.7638 20.7737 24.3236C20.7737 24.3052 20.7553 24.3052 20.7553 24.2869C20.8471 24.2502 20.9205 24.2135 21.0122 24.1768C21.0122 24.1768 21.0122 24.1952 21.0306 24.1952C21.2691 24.5987 21.783 24.7271 22.1867 24.507C22.5904 24.2685 22.7189 23.7549 22.4987 23.3513C22.4987 23.333 22.4803 23.333 22.4803 23.333C22.5537 23.278 22.6271 23.2229 22.7005 23.1679C22.7005 23.1862 22.7189 23.1862 22.7189 23.2046C23.0125 23.5531 23.5447 23.6082 23.9117 23.3147C24.2604 23.0211 24.3154 22.4892 24.0218 22.1223L24.0035 22.104C24.0769 22.0306 24.1319 21.9755 24.2053 21.9022L24.2237 21.9205C24.4255 22.104 24.7008 22.159 24.9577 22.104C24.2787 20.7098 23.7282 19.5174 23.7282 19.5174ZM20.4984 22.6359C20.2415 23.2963 19.1404 23.2229 18.9752 23.6448C18.7917 24.0668 17.8191 23.5531 16.9199 23.865C16.0207 24.1952 14.993 24.5254 14.2957 24.1218C13.5983 23.7182 11.8366 23.8466 12.0935 23.2963C12.2587 22.9478 12.7542 22.5075 12.9744 22.0856L12.9927 22.104C14.571 21.1134 14.6994 19.811 15.2866 19.9027C15.8922 19.976 16.4244 20.1228 17.1768 19.9027C17.9292 19.6825 18.2595 19.1506 18.7734 19.9027C19.2872 20.6731 20.737 21.9755 20.4984 22.6359Z" fill="#3F1104"/>
<path opacity="0.29" d="M13.6157 18.5082C13.6157 18.5082 13.6157 18.5265 13.6157 18.5082C13.579 18.5082 13.5423 18.4898 13.5239 18.4715C13.7625 18.1413 13.7258 17.7011 13.4322 17.3892C13.1018 17.059 12.5696 17.059 12.2393 17.3709C12.221 17.3525 12.1843 17.3158 12.1659 17.2975C12.4962 17.0774 12.6247 16.6371 12.4595 16.2519C12.276 15.83 11.7622 15.6465 11.3401 15.83C11.3401 15.83 11.3401 15.83 11.3218 15.83C11.3034 15.7933 11.3034 15.7566 11.2851 15.7382C11.6704 15.6465 11.9457 15.2796 11.909 14.8577C11.8723 14.3991 11.4686 14.0506 11.0098 14.0873C11.0098 14.0873 11.0098 14.0873 10.9914 14.0873C10.9914 14.0689 10.9914 14.0506 10.9914 14.0323C10.9914 14.0139 10.9914 13.9956 10.9914 13.9772C11.3952 14.0139 11.7622 13.7571 11.8723 13.3719C12.0008 12.9316 11.7438 12.4547 11.2851 12.3263C11.2851 12.3263 11.2851 12.3263 11.2667 12.3263C11.2851 12.2896 11.2851 12.2529 11.3034 12.2345C11.6704 12.3996 12.1109 12.3079 12.3494 11.9594C12.4962 11.7576 12.5329 11.5191 12.4962 11.3173L9.10127 11.1706C9.48664 10.767 9.74356 10.0149 9.70686 9.73976C9.67016 9.48295 7.77998 7.31836 6.82572 6.38281C6.58715 6.73135 6.66056 7.20829 6.99088 7.48345L7.00923 7.5018C6.95418 7.57517 6.89912 7.64855 6.84407 7.72192L6.82572 7.70358C6.42199 7.46511 5.90816 7.61186 5.66959 8.01543C5.43103 8.41899 5.57784 8.93263 5.98156 9.1711C5.98156 9.1711 5.99992 9.1711 5.99992 9.18944C5.96321 9.28116 5.92651 9.35454 5.88981 9.44626C5.87146 9.44626 5.87146 9.42791 5.85311 9.42791C5.41268 9.26282 4.93555 9.50129 4.77038 9.9232C4.60522 10.3451 4.84379 10.8404 5.26587 11.0055C5.28422 11.0055 5.28422 11.0055 5.30257 11.0055C5.28422 11.0972 5.24752 11.1889 5.22916 11.2807H5.21081C4.75203 11.2073 4.3116 11.5008 4.2382 11.9594C4.16479 12.418 4.45841 12.8582 4.91719 12.9316C4.93555 12.9316 4.93555 12.9316 4.9539 12.9316C4.93555 13.0233 4.93555 13.1151 4.93555 13.2068C4.91719 13.2068 4.91719 13.2068 4.89884 13.2068C4.44006 13.2068 4.05469 13.592 4.05469 14.0506C4.05469 14.5092 4.44006 14.8944 4.89884 14.8944C4.91719 14.8944 4.91719 14.8944 4.93555 14.8944C4.93555 14.9861 4.9539 15.0779 4.9539 15.1696C4.93555 15.1696 4.93555 15.1696 4.91719 15.1696C4.45841 15.243 4.14644 15.6832 4.2382 16.1418C4.3116 16.6004 4.75203 16.9123 5.21081 16.8205C5.22916 16.8205 5.22916 16.8205 5.22916 16.8205C5.24752 16.9123 5.28422 17.004 5.30257 17.0957C5.28422 17.0957 5.28422 17.0957 5.26587 17.0957C4.82544 17.2608 4.60522 17.7377 4.77038 18.178C4.93555 18.6182 5.41268 18.8384 5.85311 18.6916C5.87146 18.6916 5.87146 18.6733 5.88981 18.6733C5.92651 18.765 5.96321 18.8384 5.99992 18.9301C5.99992 18.9301 5.98156 18.9301 5.98156 18.9484C5.57784 19.1869 5.44938 19.7005 5.66959 20.1041C5.90816 20.5077 6.42199 20.6361 6.82572 20.416L6.84407 20.3976C6.89912 20.471 6.95418 20.5444 7.00923 20.6177L6.99088 20.6361C6.64221 20.9296 6.58715 21.4616 6.88077 21.8284C7.17439 22.177 7.70658 22.232 8.0736 21.9385L8.09195 21.9202C8.14701 21.9752 8.22041 22.0486 8.27546 22.1036C10.4042 21.6083 12.4228 21.0947 12.5146 21.0213C12.643 20.9112 13.8359 19.2053 14.6066 18.0863C14.2213 17.9579 13.7992 18.1413 13.6157 18.5082ZM8.88105 18.0863C8.53238 18.6549 8.0736 19.1686 7.54142 19.4254C7.00923 19.6822 7.00923 18.3614 6.44034 17.9028C5.85311 17.4259 6.36694 16.417 6.14672 16.0134C5.94486 15.6098 5.22916 14.4175 5.50443 13.8672C5.7797 13.3352 5.7063 12.2529 5.63289 12.0878C5.55949 11.9044 6.09167 10.9688 6.14672 10.6386C6.20178 10.3084 6.4954 9.55632 6.71561 9.79479C6.86242 9.95989 7.57812 10.8037 8.16536 11.2073C9.17467 12.2162 9.94542 12.8032 9.6151 14.2707C9.26643 15.7933 9.74356 16.3619 9.90872 16.8205C10.0739 17.2791 9.24808 17.5176 8.88105 18.0863Z" fill="#3F1104"/>
<path opacity="0.29" d="M27.3244 15.188C27.306 15.188 27.306 15.188 27.2877 15.188C27.306 15.0963 27.306 15.0046 27.306 14.9129C27.3244 14.9129 27.3244 14.9129 27.3427 14.9129C27.8015 14.9129 28.1869 14.5276 28.1869 14.069C28.1869 13.6104 27.8015 13.2252 27.3427 13.2252C27.3244 13.2252 27.3244 13.2252 27.306 13.2252C27.306 13.1335 27.2877 13.0418 27.2877 12.9501C27.306 12.9501 27.306 12.9501 27.3244 12.9501C27.7831 12.8767 28.0951 12.4364 28.0034 11.9778C27.93 11.5192 27.4895 11.2074 27.0307 11.2991C27.0124 11.2991 27.0124 11.2991 26.994 11.2991C26.9757 11.2074 26.939 11.1157 26.9206 11.0239C26.939 11.0239 26.939 11.0239 26.9573 11.0239C27.3978 10.8588 27.618 10.3819 27.4528 9.94164C27.2877 9.50138 26.8105 9.28125 26.3701 9.44635C26.3518 9.44635 26.3518 9.46469 26.3334 9.46469C26.2967 9.37297 26.26 9.2996 26.2233 9.20788C26.2233 9.20788 26.2416 9.20788 26.2416 9.18953C26.6454 8.95106 26.7738 8.43743 26.5536 8.03386C26.315 7.6303 25.8012 7.50189 25.3975 7.72202C25.3791 7.72202 25.3791 7.74036 25.3791 7.74036C25.3241 7.66698 25.269 7.59361 25.214 7.52023L25.2323 7.50189C25.581 7.20838 25.6361 6.67641 25.3424 6.30953C25.0488 5.96099 24.5166 5.90596 24.1496 6.19946L24.1313 6.21781C24.0946 6.18112 24.0762 6.16278 24.0395 6.12609C21.4336 7.63029 18.3506 9.37297 18.1855 9.39132C18.1304 9.39132 18.057 9.66648 18.002 10.0884C18.2589 10.0517 18.5158 9.88661 18.6259 9.61145C18.6259 9.61145 18.6259 9.61145 18.6259 9.5931C18.6626 9.61145 18.6809 9.62979 18.7177 9.64813C18.6442 9.7582 18.5892 9.88661 18.5708 10.015C18.5341 10.2718 18.6075 10.5286 18.8094 10.7121C19.1397 11.0423 19.6719 11.0423 20.0022 10.7304C20.0206 10.7488 20.0573 10.7855 20.0756 10.8038C19.7453 11.0239 19.6169 11.4642 19.782 11.8494C19.9655 12.2713 20.4794 12.4548 20.9014 12.2713C20.9014 12.2713 20.9014 12.2713 20.9198 12.2713C20.9381 12.308 20.9381 12.3447 20.9565 12.363C20.5711 12.4548 20.2959 12.8216 20.3326 13.2436C20.3693 13.7022 20.773 14.0507 21.2318 14.014C21.2318 14.014 21.2318 14.014 21.2501 14.014C21.2501 14.0323 21.2501 14.0507 21.2501 14.069C21.2501 14.0874 21.2501 14.1057 21.2501 14.1241C20.8464 14.0874 20.4794 14.3442 20.3693 14.7294C20.2408 15.1697 20.4977 15.6466 20.9565 15.7567C20.9565 15.7567 20.9565 15.7567 20.9748 15.7567C20.9565 15.7934 20.9565 15.8301 20.9381 15.8484C20.5711 15.6833 20.1307 15.775 19.8921 16.1236C19.6903 16.3987 19.6903 16.7656 19.8554 17.0591C21.1767 17.2242 22.6815 17.2242 23.0669 16.5638C23.0669 16.5638 23.0669 16.5455 23.0852 16.5455L24.2047 21.535L25.4525 21.7552C25.6911 21.4066 25.6177 20.9297 25.2874 20.6545L25.269 20.6362C25.3241 20.5628 25.3791 20.4894 25.4342 20.4161L25.4525 20.4344C25.8563 20.6729 26.3701 20.5261 26.6087 20.1226C26.8472 19.719 26.7004 19.2054 26.2967 18.9669C26.2967 18.9669 26.2783 18.9669 26.2783 18.9485C26.315 18.8568 26.3518 18.7834 26.3885 18.6917C26.4068 18.6917 26.4068 18.7101 26.4252 18.7101C26.8656 18.8752 27.3427 18.6367 27.5079 18.1964C27.673 17.7562 27.4345 17.2792 27.0124 17.1141C26.994 17.1141 26.994 17.1141 26.9757 17.1141C26.994 17.0224 27.0307 16.9307 27.0491 16.839C27.0674 16.839 27.0674 16.839 27.0858 16.839C27.5446 16.9124 27.985 16.6188 28.0584 16.1602C28.0951 15.7016 27.7831 15.2614 27.3244 15.188ZM25.948 14.069C25.5259 14.8028 25.7278 16.3437 25.1589 16.9857C24.59 17.6094 23.856 16.0869 22.9017 15.5549C22.3879 15.0596 21.4153 14.8211 21.764 14.546C22.3145 14.1241 21.764 13.6471 21.5804 13.1335C21.3969 12.6199 22.131 11.9411 21.2685 11.8311C20.406 11.7393 20.7179 11.1157 21.2685 10.5286C21.819 9.94164 23.9661 8.47412 24.4432 8.41909C24.9387 8.34571 25.5627 9.94164 25.214 10.8038C24.8653 11.666 26.3701 13.3353 25.948 14.069Z" fill="#3F1104"/>
<path d="M6.1477 14.1421C6.1477 14.3438 5.98254 14.5273 5.76233 14.5273C5.56047 14.5273 5.37695 14.3622 5.37695 14.1421C5.37695 13.9403 5.54211 13.7568 5.76233 13.7568C5.98254 13.7568 6.1477 13.9403 6.1477 14.1421Z" fill="#73FFC3"/>
<path d="M19.343 19.7563C19.343 19.9581 19.1779 20.1415 18.9576 20.1415C18.7558 20.1415 18.5723 19.9764 18.5723 19.7563C18.5723 19.5545 18.7374 19.3711 18.9576 19.3711C19.1779 19.3894 19.343 19.5545 19.343 19.7563Z" fill="#73FFC3"/>
<path d="M18.3516 7.72196C18.838 7.72196 19.2324 7.32774 19.2324 6.84145C19.2324 6.35516 18.838 5.96094 18.3516 5.96094C17.8651 5.96094 17.4707 6.35516 17.4707 6.84145C17.4707 7.32774 17.8651 7.72196 18.3516 7.72196Z" fill="#73FFC3"/>
<path d="M6.53284 19.499C6.74567 19.499 6.91821 19.3265 6.91821 19.1137C6.91821 18.901 6.74567 18.7285 6.53284 18.7285C6.32 18.7285 6.14746 18.901 6.14746 19.1137C6.14746 19.3265 6.32 19.499 6.53284 19.499Z" fill="#73FFC3"/>
<path d="M14.7185 5.74098C14.7185 5.88773 14.59 6.01614 14.4432 6.01614C14.2964 6.01614 14.168 5.88773 14.168 5.74098C14.168 5.59423 14.2964 5.46582 14.4432 5.46582C14.59 5.46582 14.7185 5.59423 14.7185 5.74098Z" fill="#73FFC3"/>
<path d="M20.9759 4.64018C20.9759 4.80528 20.8475 4.93369 20.6823 4.93369C20.5171 4.93369 20.3887 4.80528 20.3887 4.64018C20.3887 4.47509 20.5171 4.34668 20.6823 4.34668C20.8475 4.34668 20.9759 4.47509 20.9759 4.64018Z" fill="#73FFC3"/>
<path d="M24.426 12.9503C24.6591 12.9503 24.8481 12.7614 24.8481 12.5284C24.8481 12.2953 24.6591 12.1064 24.426 12.1064C24.1929 12.1064 24.0039 12.2953 24.0039 12.5284C24.0039 12.7614 24.1929 12.9503 24.426 12.9503Z" fill="#73FFC3"/>
<path d="M15.6723 20.8555C15.6723 21.094 15.4888 21.2774 15.2502 21.2774C15.0116 21.2774 14.8281 21.094 14.8281 20.8555C14.8281 20.617 15.0116 20.4336 15.2502 20.4336C15.4888 20.4336 15.6723 20.617 15.6723 20.8555Z" fill="#73FFC3"/>
<path d="M27.5637 12.3446C27.5637 12.6748 27.2885 12.95 26.9581 12.95C26.6278 12.95 26.3525 12.6748 26.3525 12.3446C26.3525 12.0144 26.6278 11.7393 26.9581 11.7393C27.2885 11.7393 27.5637 11.9961 27.5637 12.3446Z" fill="#73FFC3"/>
<path d="M26.7744 15.5551C26.7744 15.6652 26.6827 15.7752 26.5542 15.7752C26.4441 15.7752 26.334 15.6835 26.334 15.5551C26.334 15.4267 26.4257 15.335 26.5542 15.335C26.6827 15.335 26.7744 15.4267 26.7744 15.5551Z" fill="#73FFC3"/>
<path d="M21.1953 21.5356C21.1953 21.6456 21.1036 21.7557 20.9751 21.7557C20.865 21.7557 20.7549 21.664 20.7549 21.5356C20.7549 21.4255 20.8466 21.3154 20.9751 21.3154C21.0852 21.3154 21.1953 21.4071 21.1953 21.5356Z" fill="#73FFC3"/>
<path d="M18.4063 23.5717C18.4063 23.6818 18.3145 23.7918 18.186 23.7918C18.0759 23.7918 17.9658 23.7001 17.9658 23.5717C17.9658 23.4616 18.0576 23.3516 18.186 23.3516C18.2961 23.3516 18.4063 23.4433 18.4063 23.5717Z" fill="#73FFC3"/>
<path d="M26.6275 13.9594C26.6275 14.4547 26.2238 14.8583 25.7283 14.8583C25.2328 14.8583 24.8291 14.4547 24.8291 13.9594C24.8291 13.4641 25.2328 13.0605 25.7283 13.0605C26.2238 13.0605 26.6275 13.4458 26.6275 13.9594Z" fill="#73FFC3"/>
<path d="M5.63395 12.0879C5.63395 12.2346 5.52384 12.3447 5.37703 12.3447C5.23022 12.3447 5.12012 12.2346 5.12012 12.0879C5.12012 11.9411 5.23022 11.8311 5.37703 11.8311C5.52384 11.8311 5.63395 11.9411 5.63395 12.0879Z" fill="#73FFC3"/>
<path d="M8.6075 15.3347C8.6075 15.7749 8.25883 16.1235 7.8184 16.1235C7.37797 16.1235 7.0293 15.7749 7.0293 15.3347C7.0293 14.8944 7.37797 14.5459 7.8184 14.5459C8.25883 14.5459 8.6075 14.8944 8.6075 15.3347Z" fill="#73FFC3"/>
<path d="M12.8457 24.1401C13.2816 24.1401 13.6348 23.7869 13.6348 23.3513C13.6348 22.9157 13.2816 22.5625 12.8457 22.5625C12.4099 22.5625 12.0566 22.9157 12.0566 23.3513C12.0566 23.7869 12.4099 24.1401 12.8457 24.1401Z" fill="#73FFC3"/>
<path opacity="0.29" d="M23.8744 4.82281C23.5257 4.52931 22.9935 4.56599 22.6815 4.93287L22.6632 4.95122C22.5898 4.89619 22.5164 4.84115 22.443 4.78612C22.443 4.76778 22.4613 4.76778 22.4613 4.76778C22.6999 4.36421 22.5531 3.85058 22.1493 3.61211C21.7456 3.37364 21.2318 3.52039 20.9932 3.92395C20.9932 3.92395 20.9932 3.9423 20.9749 3.9423C20.8831 3.90561 20.8097 3.86892 20.7179 3.83223C20.7179 3.81389 20.7363 3.81389 20.7363 3.79555C20.9015 3.35529 20.6629 2.87835 20.2408 2.71325C19.8004 2.54816 19.3233 2.78663 19.1581 3.20854C19.1581 3.22688 19.1581 3.22688 19.1581 3.24523C19.0663 3.22688 18.9746 3.1902 18.8828 3.17185C18.8828 3.15351 18.8828 3.15351 18.8828 3.13516C18.9562 2.67656 18.6626 2.23631 18.2038 2.16293C17.7451 2.08956 17.3046 2.38306 17.2312 2.84166C17.2312 2.86 17.2312 2.86 17.2312 2.87835C17.1395 2.87835 17.0477 2.86 16.956 2.86C16.956 2.84166 16.956 2.84166 16.956 2.82332C16.956 2.36472 16.5706 1.97949 16.1118 1.97949C15.653 1.97949 15.2676 2.36472 15.2676 2.82332C15.2676 2.84166 15.2676 2.84166 15.2676 2.86C15.1759 2.86 15.0841 2.87835 14.9924 2.87835C14.9924 2.86 14.9924 2.86 14.9924 2.84166C14.919 2.38306 14.4785 2.07121 14.0198 2.16293C13.561 2.23631 13.249 2.67656 13.3408 3.13516C13.3408 3.15351 13.3408 3.15351 13.3408 3.17185C13.249 3.1902 13.1573 3.22688 13.0655 3.24523C13.0655 3.22688 13.0655 3.22688 13.0655 3.20854C12.9003 2.76828 12.4232 2.54816 11.9828 2.71325C11.5424 2.87835 11.3221 3.35529 11.4873 3.79555C11.4873 3.81389 11.5056 3.81389 11.5056 3.83223C11.4139 3.86892 11.3405 3.90561 11.2487 3.9423C11.2487 3.9423 11.2487 3.92395 11.2304 3.92395C10.9918 3.52039 10.478 3.39198 10.0743 3.61211C9.67053 3.85058 9.54207 4.36421 9.76228 4.76778L9.78064 4.78612C9.70723 4.84115 9.63383 4.89619 9.56042 4.95122L9.54207 4.93287C9.24845 4.58434 8.71627 4.52931 8.34924 4.82281C8.00057 5.11631 7.94552 5.64829 8.23914 6.01517C8.23914 6.03351 8.25749 6.03351 8.25749 6.03351C8.18408 6.10689 8.12903 6.16192 8.05562 6.2353L8.03727 6.21695C8.01892 6.19861 7.98222 6.18026 7.96387 6.16192C8.14738 7.2809 8.29419 8.17976 8.31254 8.23479C8.33089 8.30817 9.00989 8.27148 9.57877 7.97797C10.3312 8.96855 11.524 10.3077 12.4966 11.3716C12.4599 11.1698 12.3498 10.9864 12.1663 10.8396C12.1663 10.8396 12.1663 10.8396 12.1479 10.8396C12.1663 10.8213 12.203 10.7846 12.2213 10.7663C12.4966 11.0414 12.9554 11.0965 13.2857 10.8763C13.6711 10.6195 13.7628 10.0875 13.5059 9.70231C13.5426 9.68397 13.561 9.66562 13.5977 9.64728C13.7628 10.0142 14.1666 10.2159 14.5703 10.1059C15.0291 9.99581 15.286 9.53721 15.1759 9.07861C15.1759 9.07861 15.1759 9.07861 15.1759 9.06027C15.2126 9.06027 15.2493 9.04193 15.286 9.04193C15.3227 9.44549 15.6347 9.77568 16.0384 9.81237C16.4972 9.8674 16.9193 9.51887 16.956 9.06027C16.956 9.06027 16.956 9.06027 16.956 9.04193C16.9927 9.04193 17.0294 9.06027 17.0661 9.06027C16.956 9.44549 17.1395 9.8674 17.5065 10.0325C17.9286 10.2343 18.424 10.0508 18.6259 9.62893C18.6259 9.62893 18.6259 9.62893 18.6259 9.61059C18.6626 9.62893 18.681 9.64728 18.7177 9.66562C18.6443 9.77568 18.5892 9.90409 18.5709 10.0325C19.5618 9.29874 20.3326 8.69339 20.3876 8.63836C20.461 8.54664 22.3145 7.22587 23.9661 6.0702L23.9478 6.05186L23.9661 6.03351C24.2781 5.64829 24.2414 5.11631 23.8744 4.82281ZM16.6623 7.51938C15.4145 8.47326 15.598 7.66613 15.0658 7.72116C14.5336 7.79454 14.6804 8.38154 14.0198 8.71173C13.3591 9.04193 13.1573 8.6567 12.7719 9.00524C12.3865 9.37212 11.2854 8.16142 10.6798 6.89568C10.6248 6.78562 9.68888 4.54765 10.9918 4.62103C11.3588 4.63937 11.7809 4.71275 12.258 4.19911C12.7352 3.68548 13.194 4.16243 14.0198 3.72217C14.8272 3.28191 15.6897 3.44701 16.0751 3.11682C16.4788 2.78663 17.4698 3.79555 18.1671 3.4837C18.9012 3.1902 17.9102 6.54714 16.6623 7.51938Z" fill="#3F1104"/>
<path d="M20.0753 10.8028C20.0753 10.8028 19.0843 12.252 17.1758 9.72053C17.1758 9.72053 17.2492 9.26193 17.6713 8.54652V8.52817C18.2769 7.5376 19.5981 6.07008 22.4426 4.74931C22.4426 4.74931 23.7455 3.53861 25.5072 5.9967C27.2873 8.4548 23.195 6.71212 20.0753 10.8028Z" fill="#D1111E"/>
<path d="M11.7814 13.004C11.7814 13.004 10.7538 12.8572 9.43247 11.5915C8.60667 10.8027 7.68911 9.59201 6.80825 7.72092C6.80825 7.72092 5.70718 6.52856 7.76251 4.89595C7.85427 4.82257 7.94603 4.7492 8.05613 4.67582C10.5152 2.9148 8.77183 6.98716 12.8641 10.1056C12.8641 10.1056 14.3322 11.0962 11.7814 13.004Z" fill="#D1111E"/>
<path d="M15.0661 18.3973C15.0661 18.3973 14.6624 21.0938 9.78099 23.3685C9.78099 23.3685 8.47805 24.5792 6.71634 22.1211C6.51448 21.8459 6.40437 21.6258 6.33096 21.4607C5.83548 19.9932 9.37726 20.9654 12.1483 17.315C12.1483 17.315 12.2584 17.1682 12.4603 17.0398C12.9007 16.783 13.7816 16.6729 15.0661 18.3973Z" fill="#D1111E"/>
<path d="M24.1866 23.4598C23.0121 24.3036 22.8103 23.8083 22.4432 22.7077C22.0579 21.5153 21.5073 19.6442 19.3786 18.0116C19.3786 18.0116 18.5528 17.443 19.2318 16.3607C19.452 15.9938 19.8374 15.5902 20.4613 15.1133C20.4613 15.1133 23.1589 15.5168 25.4345 20.3964C25.4345 20.3964 26.6273 21.6988 24.1866 23.4598Z" fill="#D1111E"/>
<path opacity="0.24" d="M19.5067 16.8572C20.2591 16.5821 22.1493 18.0496 22.9384 20.4343C23.7275 22.8374 22.7732 22.1586 22.4796 21.2047C22.186 20.2509 21.3235 18.5632 20.5344 18.1413C19.7453 17.7194 19.1213 16.9856 19.5067 16.8572Z" fill="#F7EC66"/>
<path opacity="0.29" d="M15.0652 18.3982C15.0652 18.3982 14.6615 21.0948 9.7801 23.3695C9.7801 23.3695 8.47717 24.5802 6.71545 22.1221C6.51359 21.8469 6.40348 21.6268 6.33008 21.4617C6.6971 21.9203 7.57796 22.654 9.22957 21.8653C11.4317 20.8196 15.3038 18.2515 12.4594 17.0591C12.8998 16.784 13.7807 16.6739 15.0652 18.3982Z" fill="#3F1104"/>
<path d="M12.6438 7.85104L12.3318 7.52085L11.873 7.59422L12.0933 7.19066L11.8914 6.78709L12.3318 6.86046L12.6621 6.53027L12.7172 6.98887L13.1393 7.19066L12.7172 7.39244L12.6438 7.85104Z" fill="#D1111E"/>
<path d="M19.6541 5.19098L19.1402 5.20933L18.8833 5.63124L18.6998 5.15429L18.2227 5.02589L18.608 4.71404L18.5897 4.21875L19.0118 4.49391L19.4705 4.31047L19.3237 4.80576L19.6541 5.19098Z" fill="#D1111E"/>
<path d="M14.4424 4.62273L13.8918 4.07241L13.1211 4.20082L13.4881 3.50375L13.1211 2.80668L13.8918 2.93509L14.4424 2.38477L14.5525 3.15521L15.2498 3.50375L14.5525 3.85228L14.4424 4.62273Z" fill="#D1111E"/>
<path d="M26.4441 10.2174L26.1505 10.3641L26.0955 10.6943L25.8752 10.4559L25.5449 10.5109L25.7101 10.2174L25.5449 9.94223L25.8752 9.99726L26.0955 9.75879L26.1505 10.089L26.4441 10.2174Z" fill="#D1111E"/>
<path d="M25.9483 17.6104L25.5079 17.2986L24.9941 17.5004L25.1592 16.9867L24.8105 16.5648L25.3611 16.5465L25.6547 16.0879L25.8199 16.6015L26.352 16.7483L25.9116 17.0601L25.9483 17.6104Z" fill="#D1111E"/>
<path d="M22.3335 14.0702L22.1684 13.7033L21.7646 13.6482L22.0583 13.3547L21.9849 12.9512L22.3335 13.1346L22.7006 12.9512L22.6272 13.3547L22.9208 13.6482L22.517 13.7033L22.3335 14.0702Z" fill="#D1111E"/>
<path d="M7.5426 11.2814L7.10217 11.3364L6.91866 11.7217L6.7168 11.3364L6.27637 11.2631L6.60669 10.9696L6.53328 10.5293L6.91866 10.7311L7.30403 10.5293L7.23063 10.9696L7.5426 11.2814Z" fill="#D1111E"/>
<path d="M9.90967 17.6098L9.56099 16.9127L8.80859 16.8026L9.35913 16.2707L9.23067 15.5186L9.90967 15.8671L10.5887 15.5186L10.4602 16.2707L11.0107 16.8026L10.24 16.9127L9.90967 17.6098Z" fill="#D1111E"/>
<path d="M6.91866 16.0151L6.40482 16.2536L6.33142 16.8223L5.94604 16.4187L5.39551 16.5104L5.65242 16.0151L5.39551 15.5199L5.94604 15.6116L6.33142 15.208L6.40482 15.7583L6.91866 16.0151Z" fill="#D1111E"/>
<path d="M18.0582 3.13681L17.8747 3.02675L17.6728 3.11847L17.7279 2.89834L17.5811 2.75159L17.7829 2.73324L17.893 2.5498L17.9848 2.75159L18.1866 2.78828L18.0215 2.91668L18.0582 3.13681Z" fill="#D1111E"/>
<path d="M8.66239 19.9038L8.22196 19.5736L7.68978 19.7387L7.87329 19.2067L7.54297 18.7481L8.11186 18.7664L8.44218 18.3262L8.58899 18.8581L9.12117 19.0416L8.66239 19.3534V19.9038Z" fill="#D1111E"/>
<path d="M15.3968 23.4436L14.938 23.095L14.4058 23.2601L14.6077 22.7282L14.2773 22.2879L14.8279 22.3063L15.1766 21.8477L15.3234 22.3796L15.8555 22.5631L15.3968 22.8749V23.4436Z" fill="#D1111E"/>
<path d="M25.8388 8.71413L25.5819 8.43897L25.2148 8.494L25.3984 8.16381L25.2332 7.83362L25.6002 7.907L25.8571 7.63184L25.9122 8.01706L26.2425 8.18216L25.8938 8.34725L25.8388 8.71413Z" fill="#D1111E"/>
<path d="M17.287 20.8206L17.0301 20.5454L16.6631 20.5821L16.8466 20.2703L16.6814 19.9217L17.0485 19.9951L17.3237 19.7383L17.3604 20.1052L17.6907 20.2886L17.3604 20.4537L17.287 20.8206Z" fill="#D1111E"/>
<path d="M16.2598 6.78776L16.0029 6.73273L15.8011 6.89782L15.7827 6.64101L15.5625 6.5126L15.8011 6.42088L15.8378 6.16406L16.0213 6.3475L16.2782 6.32916L16.1497 6.54929L16.2598 6.78776Z" fill="#D1111E"/>
<path d="M19.9845 23.5907L19.7275 23.5357L19.544 23.7191L19.5257 23.4623L19.2871 23.3339L19.5257 23.2238L19.5807 22.9854L19.7459 23.1688L20.0028 23.1321L19.8743 23.3706L19.9845 23.5907Z" fill="#D1111E"/>
<path d="M8.88061 14.0508C9.18467 14.0508 9.43115 13.8044 9.43115 13.5005C9.43115 13.1966 9.18467 12.9502 8.88061 12.9502C8.57656 12.9502 8.33008 13.1966 8.33008 13.5005C8.33008 13.8044 8.57656 14.0508 8.88061 14.0508Z" fill="#FCFC00"/>
<path d="M16.0916 24.8731C16.3956 24.8731 16.6421 24.6267 16.6421 24.3228C16.6421 24.0188 16.3956 23.7725 16.0916 23.7725C15.7875 23.7725 15.541 24.0188 15.541 24.3228C15.541 24.6267 15.7875 24.8731 16.0916 24.8731Z" fill="#FCFC00"/>
<path d="M8.32967 18.1408C8.32967 18.2692 8.21956 18.3793 8.0911 18.3793C7.96265 18.3793 7.85254 18.2692 7.85254 18.1408C7.85254 18.0124 7.96265 17.9023 8.0911 17.9023C8.21956 17.9023 8.32967 18.0124 8.32967 18.1408Z" fill="#FCFC00"/>
<path d="M12.8429 5.39181C12.8429 5.90544 12.4392 6.30901 11.9254 6.30901C11.4115 6.30901 11.0078 5.90544 11.0078 5.39181C11.0078 4.87818 11.4115 4.47461 11.9254 4.47461C12.4209 4.47461 12.8429 4.87818 12.8429 5.39181Z" fill="#FCFC00"/>
<path d="M14.716 8.18016C14.716 8.45532 14.4958 8.6571 14.2388 8.6571C13.9636 8.6571 13.7617 8.43698 13.7617 8.18016C13.7617 7.905 13.9819 7.70322 14.2388 7.70322C14.5141 7.68487 14.716 7.905 14.716 8.18016Z" fill="#FCFC00"/>
<path d="M16.8446 5.46501C17.2399 5.46501 17.5603 5.14471 17.5603 4.7496C17.5603 4.35448 17.2399 4.03418 16.8446 4.03418C16.4493 4.03418 16.1289 4.35448 16.1289 4.7496C16.1289 5.14471 16.4493 5.46501 16.8446 5.46501Z" fill="#FCFC00"/>
<path d="M16.6604 7.84984C16.8428 7.84984 16.9907 7.702 16.9907 7.51964C16.9907 7.33729 16.8428 7.18945 16.6604 7.18945C16.478 7.18945 16.3301 7.33729 16.3301 7.51964C16.3301 7.702 16.478 7.84984 16.6604 7.84984Z" fill="#FCFC00"/>
<path d="M22.8263 11.3171C22.8263 11.7574 22.4776 12.1059 22.0371 12.1059C21.5967 12.1059 21.248 11.7574 21.248 11.3171C21.248 10.8769 21.5967 10.5283 22.0371 10.5283C22.4776 10.5283 22.8263 10.8769 22.8263 11.3171Z" fill="#FCFC00"/>
<path d="M19.1388 21.9197C19.1388 22.3599 18.7901 22.7084 18.3496 22.7084C17.9092 22.7084 17.5605 22.3599 17.5605 21.9197C17.5605 21.4794 17.9092 21.1309 18.3496 21.1309C18.7901 21.1309 19.1388 21.4794 19.1388 21.9197Z" fill="#FCFC00"/>
<path d="M24.0018 9.39099C24.2045 9.39099 24.3688 9.22673 24.3688 9.02411C24.3688 8.82148 24.2045 8.65723 24.0018 8.65723C23.7991 8.65723 23.6348 8.82148 23.6348 9.02411C23.6348 9.22673 23.7991 9.39099 24.0018 9.39099Z" fill="#FCFC00"/>
<path d="M24.5151 15.334C24.5151 15.5725 24.3315 15.7559 24.093 15.7559C23.8544 15.7559 23.6709 15.5725 23.6709 15.334C23.6709 15.0955 23.8544 14.9121 24.093 14.9121C24.3132 14.9121 24.5151 15.0955 24.5151 15.334Z" fill="#FCFC00"/>
<path d="M6.91658 13.0047C7.1801 13.0047 7.39372 12.7911 7.39372 12.5277C7.39372 12.2643 7.1801 12.0508 6.91658 12.0508C6.65307 12.0508 6.43945 12.2643 6.43945 12.5277C6.43945 12.7911 6.65307 13.0047 6.91658 13.0047Z" fill="#FCFC00"/>
<path d="M24.3319 10.5277C24.3319 10.7111 24.1851 10.8395 24.02 10.8395C23.8365 10.8395 23.708 10.6928 23.708 10.5277C23.708 10.3442 23.8548 10.2158 24.02 10.2158C24.1851 10.2158 24.3319 10.3442 24.3319 10.5277Z" fill="#FCFC00"/>
<path d="M21.5605 23.1126C21.5605 23.2961 21.4137 23.4245 21.2485 23.4245C21.065 23.4245 20.9365 23.2777 20.9365 23.1126C20.9365 22.9292 21.0833 22.8008 21.2485 22.8008C21.4137 22.8008 21.5605 22.9475 21.5605 23.1126Z" fill="#FCFC00"/>
<path opacity="0.29" d="M20.0753 10.804C20.0753 10.804 19.0843 12.2532 17.1758 9.72172C17.1758 9.72172 17.2492 9.26312 17.6713 8.54771C17.6162 8.65777 17.4143 9.18975 18.3319 9.94185C19.3596 10.7673 20.6442 8.05242 22.3325 7.37369C24.0208 6.69496 23.9474 4.89725 22.4609 4.76884C22.4609 4.76884 23.7639 3.55814 25.5256 6.01624C27.2873 8.45599 23.195 6.71331 20.0753 10.804Z" fill="#3F1104"/>
<path opacity="0.29" d="M11.7799 13.005C11.7799 13.005 10.7522 12.8582 9.4309 11.5925C11.1743 12.3629 11.6147 11.0605 10.6788 9.99655C9.72452 8.9326 9.54101 7.75859 8.80696 5.97922C8.45829 5.1354 8.07292 4.91527 7.7793 4.89693C7.87105 4.82355 7.96281 4.75017 8.07292 4.6768C10.5136 2.91578 8.77026 6.98814 12.8626 10.1066C12.8626 10.1066 14.3307 11.0972 11.7799 13.005Z" fill="#3F1104"/>
<path opacity="0.29" d="M24.1863 23.4608C23.0118 24.3046 22.8099 23.8093 22.4429 22.7087C24.59 23.0205 24.7919 20.9476 22.553 17.9025C20.3142 14.8574 19.2314 16.3616 19.2314 16.3616C19.4517 15.9948 19.837 15.5912 20.461 15.1143C20.461 15.1143 23.1586 15.5178 25.4342 20.3973C25.4342 20.3973 26.627 21.6997 24.1863 23.4608Z" fill="#3F1104"/>
<path d="M18.9563 29.9908C18.2406 30.0092 17.7451 30.0459 17.4148 29.3304C17.3414 29.1653 17.2864 28.9819 17.2313 28.7434C17.0478 27.973 17.0845 26.5422 17.1395 25.4782C17.1762 24.9279 17.2129 24.4876 17.2313 24.2858C17.2313 24.2125 17.2497 24.1758 17.2497 24.1758L17.268 24.1941L17.5983 24.5793C17.5983 24.5793 18.5893 26.799 20.3877 28.5233C22.1311 30.266 19.8372 29.9725 18.9563 29.9908Z" fill="#AF0818"/>
<path opacity="0.29" d="M17.2123 24.3046C17.2306 24.2863 17.2306 24.2496 17.249 24.2129L17.5793 24.5981C17.5793 24.5981 18.5703 26.8177 20.3687 28.5421C22.1488 30.2664 19.8549 29.9729 18.974 29.9912C18.2583 30.0096 17.7628 30.0463 17.4325 29.3309C17.9096 29.6977 18.607 29.6244 19.3777 29.4593C20.3503 29.2391 19.7447 28.4687 18.6437 27.5331C17.5426 26.5976 17.6711 25.3319 17.304 25.4603C17.249 25.4786 17.1939 25.497 17.1572 25.497L17.2123 24.3046Z" fill="#3F1104"/>
<path d="M16.5878 28.6519C16.2758 29.9727 15.7436 29.9177 14.8628 29.8993C14.1654 29.881 12.6056 30.0644 12.8258 29.294C12.8808 29.0922 13.0827 28.817 13.4681 28.4501C14.6793 27.2945 15.5234 25.9003 15.9455 25.1299C16.1474 24.7447 16.2575 24.5245 16.2575 24.5245L16.6061 24.1026C16.5878 24.0843 16.8998 27.3312 16.5878 28.6519Z" fill="#AF0818"/>
<path opacity="0.29" d="M16.5878 28.6519C16.2758 29.9727 15.7436 29.9177 14.8628 29.8993C14.1654 29.881 12.6056 30.0644 12.8258 29.294C13.3763 29.7526 14.716 29.4224 15.1564 29.2206C15.7069 28.9638 16.5694 25.6252 16.3125 25.4601C16.1657 25.3684 16.0189 25.2216 15.9455 25.1299C16.1474 24.7447 16.2575 24.5245 16.2575 24.5245L16.6061 24.1026C16.5878 24.0843 16.8998 27.3312 16.5878 28.6519Z" fill="#3F1104"/>
<path d="M16.2217 22.1758L16.2034 24.6156C11.7073 27.5689 10.4778 27.3488 10.2392 24.9824C10.2209 24.8724 10.2209 24.7623 10.2209 24.6339C10.0557 21.9557 10.4961 20.5799 11.7073 20.1213C12.368 19.8645 13.7076 20.5248 14.7536 21.1669C15.5794 21.6805 16.2217 22.1758 16.2217 22.1758Z" fill="#AF0818"/>
<path opacity="0.29" d="M16.2218 22.1761L16.2034 24.6159C11.7074 27.5693 10.4778 27.3491 10.2393 24.9828C11.377 27.1107 15.1207 24.7993 14.9555 24.3224C14.7904 23.8454 15.084 23.0016 15.1574 22.3229C15.1941 21.9377 14.9739 21.4974 14.7537 21.1855C15.5795 21.6808 16.2218 22.1761 16.2218 22.1761Z" fill="#3F1104"/>
<path d="M22.4245 25.5883C20.8096 26.8541 17.7266 24.6344 17.7266 24.6344L17.7083 24.5794L16.9375 21.9195C16.9375 21.9195 18.167 20.5437 19.3966 19.5715C20.2591 18.8928 21.1032 18.4342 21.5253 18.7827C22.5713 19.6265 24.0394 24.3042 22.4245 25.5883Z" fill="#AF0818"/>
<path d="M16.0568 23.4967C16.0568 23.4784 14.6071 24.2488 13.0839 23.8453C11.5608 23.4417 12.1297 21.6623 16.2404 23.2399L16.0568 23.4967Z" fill="#7C0415"/>
<path d="M17.7265 23.4967C17.7265 23.4784 19.1762 24.2488 20.6994 23.8453C22.2225 23.4417 21.6536 21.6623 17.543 23.2399L17.7265 23.4967Z" fill="#7C0415"/>
<path d="M17.2308 25.0752C16.7537 25.277 16.3683 24.9651 16.1481 24.4515C15.8361 23.7911 15.7811 22.8189 16.093 22.2869C16.2215 22.0668 16.405 21.92 16.6619 21.9017C17.763 21.7916 18.5888 24.5065 17.2308 25.0752Z" fill="#AF0818"/>
<path opacity="0.29" d="M17.2315 25.0752C16.7544 25.277 16.369 24.9651 16.1488 24.4515C16.9012 24.9835 17.3783 24.0296 17.1214 22.984C16.9012 22.0484 16.2589 22.2135 16.0938 22.2869C16.2222 22.0668 16.4057 21.92 16.6626 21.9017C17.7637 21.7916 18.5895 24.5065 17.2315 25.0752Z" fill="#3F1104"/>
<path opacity="0.29" d="M22.4243 25.5876C20.8094 26.8533 17.7264 24.6337 17.7264 24.6337L17.708 24.5786C17.9833 24.5603 18.5705 24.7621 18.754 24.8171C19.4697 25.0189 20.2588 25.2023 20.8828 25.0923C21.5067 24.9639 22.1673 22.3957 21.4149 20.598C20.6809 18.8553 19.4697 19.534 19.3963 19.5891C20.2588 18.9103 21.103 18.4517 21.5251 18.8003C22.5711 19.6258 24.0392 24.3035 22.4243 25.5876Z" fill="#3F1104"/>
<path opacity="0.24" d="M10.7527 24.3961C10.4774 24.1943 10.5508 22.2315 10.9913 21.5161C11.4133 20.8007 11.8171 21.4244 11.395 22.3599C10.9729 23.2955 11.4317 24.8914 10.7527 24.3961Z" fill="#F7EC66"/>
<path opacity="0.24" d="M12.0013 20.7824C12.0013 20.9475 11.8728 21.0759 11.7077 21.0759C11.5425 21.0759 11.4141 20.9475 11.4141 20.7824C11.4141 20.6173 11.5425 20.4889 11.7077 20.4889C11.8728 20.4705 12.0013 20.6173 12.0013 20.7824Z" fill="#F7EC66"/>
<path opacity="0.24" d="M13.6346 29.2207C13.2859 29.184 13.708 28.5053 14.2768 28.1201C14.8457 27.7349 15.4513 26.3224 15.6715 26.304C15.8918 26.2674 14.3686 29.3125 13.6346 29.2207Z" fill="#F7EC66"/>
<path opacity="0.24" d="M17.8 22.3044C17.3412 22.286 17.5798 21.9191 17.9835 21.3871C18.3872 20.8552 19.5433 19.8279 19.7819 20.048C20.0205 20.3049 18.167 22.3227 17.8 22.3044Z" fill="#F7EC66"/>
<path opacity="0.24" d="M17.763 29.0923C17.2308 29.0739 17.3042 26.7809 17.4143 26.6158C17.5245 26.4507 17.6529 26.7626 17.763 27.6064C17.8731 28.4502 18.4604 29.1106 17.763 29.0923Z" fill="#F7EC66"/>
<path opacity="0.24" d="M16.1662 23.8822C15.9277 23.6254 16.0745 22.7265 16.2763 22.7082C16.4782 22.6898 16.5516 24.2674 16.1662 23.8822Z" fill="#F7EC66"/>
<path opacity="0.24" d="M18.4063 9.02473C17.5254 9.1348 19.4523 6.91518 20.4432 6.29148C21.4342 5.66779 22.0948 5.35594 22.3518 5.74116C22.6087 6.12639 20.7919 6.73174 20.0579 7.52053C19.3055 8.32766 18.7733 8.9697 18.4063 9.02473Z" fill="#F7EC66"/>
<path opacity="0.24" d="M9.90894 10.8399C9.26665 11.4085 7.02781 7.17107 7.37648 6.65744C7.7435 6.14381 7.96372 6.89591 8.33074 7.62967C8.69777 8.36343 10.2026 10.5831 9.90894 10.8399Z" fill="#F7EC66"/>
<path opacity="0.24" d="M7.00952 21.5347C7.11963 21.1312 7.98214 21.0028 9.6154 20.159C11.2303 19.3151 11.8359 17.9393 12.313 18.1044C12.7902 18.2695 11.8175 19.5903 9.6521 20.856C7.50501 22.1218 6.95447 21.7549 7.00952 21.5347Z" fill="#F7EC66"/>
</svg>
