<svg width="81" height="130" viewBox="0 0 81 130" fill="none" xmlns="http://www.w3.org/2000/svg">
<g clip-path="url(#clip0)">
<path d="M40.4515 110C39.9633 110 39.475 109.919 38.9868 109.676C-4.76107 89.7909 1.29331 40.7237 1.29331 40.2387C1.39097 39.1878 2.26983 38.3794 3.44165 38.0561C31.7606 31.0234 37.6196 22.374 37.7173 22.2932C38.3032 21.4848 39.475 20.9189 40.4515 20.9189C41.6233 20.9189 42.6975 21.4848 43.1858 22.2932C43.1858 22.374 49.1425 30.9426 77.3638 37.9753C78.5356 38.2986 79.4144 39.107 79.5121 40.1578C79.6097 40.6428 85.5665 89.7101 41.8186 109.515C41.5257 109.838 41.0374 110 40.4515 110ZM7.3477 42.5021C6.76179 50.7473 6.27354 87.9317 40.5492 104.503C74.9225 87.9317 74.3366 50.7473 73.7507 42.5021C53.7321 37.3286 44.5529 31.3467 40.5492 27.79C36.4478 31.2659 27.2686 37.2477 7.3477 42.5021Z" fill="#1AC486"/>
<path d="M27.7822 56.9224V72.2801C27.7822 75.6742 33.2756 78.4232 40.0512 78.4232C46.8267 78.4232 52.3201 75.6742 52.3201 72.2801V56.9224M27.7822 56.9224C27.7822 60.3165 33.2756 63.0655 40.0512 63.0655C46.8267 63.0655 52.3201 60.3165 52.3201 56.9224M27.7822 56.9224C27.7822 53.5283 33.2756 50.7793 40.0512 50.7793C46.8267 50.7793 52.3201 53.5283 52.3201 56.9224M52.3201 64.6013C52.3201 67.9953 46.8267 70.7444 40.0512 70.7444C33.2756 70.7444 27.7822 67.9953 27.7822 64.6013" stroke="#1AC486" stroke-width="3" stroke-linecap="round" stroke-linejoin="round"/>
</g>
<defs>
<clipPath id="clip0">
<rect width="79" height="89" fill="white" transform="translate(1 21)"/>
</clipPath>
</defs>
</svg>
