<svg width="97" height="48" viewBox="0 0 97 48" fill="none" xmlns="http://www.w3.org/2000/svg">
<path d="M10.098 11.216C10.098 11.852 9.948 12.452 9.648 13.016C9.348 13.58 8.868 14.042 8.208 14.402C7.548 14.75 6.702 14.924 5.67 14.924H3.402V20H1.35V7.49H5.67C6.63 7.49 7.44 7.658 8.1 7.994C8.772 8.318 9.27 8.762 9.594 9.326C9.93 9.89 10.098 10.52 10.098 11.216ZM5.67 13.25C6.45 13.25 7.032 13.076 7.416 12.728C7.8 12.368 7.992 11.864 7.992 11.216C7.992 9.848 7.218 9.164 5.67 9.164H3.402V13.25H5.67ZM16.3571 20.162C15.4211 20.162 14.5751 19.952 13.8191 19.532C13.0631 19.1 12.4691 18.5 12.0371 17.732C11.6051 16.952 11.3891 16.052 11.3891 15.032C11.3891 14.024 11.6111 13.13 12.0551 12.35C12.4991 11.57 13.1051 10.97 13.8731 10.55C14.6411 10.13 15.4991 9.92 16.4471 9.92C17.3951 9.92 18.2531 10.13 19.0211 10.55C19.7891 10.97 20.3951 11.57 20.8391 12.35C21.2831 13.13 21.5051 14.024 21.5051 15.032C21.5051 16.04 21.2771 16.934 20.8211 17.714C20.3651 18.494 19.7411 19.1 18.9491 19.532C18.1691 19.952 17.3051 20.162 16.3571 20.162ZM16.3571 18.38C16.8851 18.38 17.3771 18.254 17.8331 18.002C18.3011 17.75 18.6791 17.372 18.9671 16.868C19.2551 16.364 19.3991 15.752 19.3991 15.032C19.3991 14.312 19.2611 13.706 18.9851 13.214C18.7091 12.71 18.3431 12.332 17.8871 12.08C17.4311 11.828 16.9391 11.702 16.4111 11.702C15.8831 11.702 15.3911 11.828 14.9351 12.08C14.4911 12.332 14.1371 12.71 13.8731 13.214C13.6091 13.706 13.4771 14.312 13.4771 15.032C13.4771 16.1 13.7471 16.928 14.2871 17.516C14.8391 18.092 15.5291 18.38 16.3571 18.38ZM27.1336 20.162C26.3536 20.162 25.6516 20.024 25.0276 19.748C24.4156 19.46 23.9296 19.076 23.5696 18.596C23.2096 18.104 23.0176 17.558 22.9936 16.958H25.1176C25.1536 17.378 25.3516 17.732 25.7116 18.02C26.0836 18.296 26.5456 18.434 27.0976 18.434C27.6736 18.434 28.1176 18.326 28.4296 18.11C28.7536 17.882 28.9156 17.594 28.9156 17.246C28.9156 16.874 28.7356 16.598 28.3756 16.418C28.0276 16.238 27.4696 16.04 26.7016 15.824C25.9576 15.62 25.3516 15.422 24.8836 15.23C24.4156 15.038 24.0076 14.744 23.6596 14.348C23.3236 13.952 23.1556 13.43 23.1556 12.782C23.1556 12.254 23.3116 11.774 23.6236 11.342C23.9356 10.898 24.3796 10.55 24.9556 10.298C25.5436 10.046 26.2156 9.92 26.9716 9.92C28.0996 9.92 29.0056 10.208 29.6896 10.784C30.3856 11.348 30.7576 12.122 30.8056 13.106H28.7536C28.7176 12.662 28.5376 12.308 28.2136 12.044C27.8896 11.78 27.4516 11.648 26.8996 11.648C26.3596 11.648 25.9456 11.75 25.6576 11.954C25.3696 12.158 25.2256 12.428 25.2256 12.764C25.2256 13.028 25.3216 13.25 25.5136 13.43C25.7056 13.61 25.9396 13.754 26.2156 13.862C26.4916 13.958 26.8996 14.084 27.4396 14.24C28.1596 14.432 28.7476 14.63 29.2036 14.834C29.6716 15.026 30.0736 15.314 30.4096 15.698C30.7456 16.082 30.9196 16.592 30.9316 17.228C30.9316 17.792 30.7756 18.296 30.4636 18.74C30.1516 19.184 29.7076 19.532 29.1316 19.784C28.5676 20.036 27.9016 20.162 27.1336 20.162ZM34.1928 8.768C33.8208 8.768 33.5088 8.642 33.2568 8.39C33.0048 8.138 32.8788 7.826 32.8788 7.454C32.8788 7.082 33.0048 6.77 33.2568 6.518C33.5088 6.266 33.8208 6.14 34.1928 6.14C34.5528 6.14 34.8588 6.266 35.1108 6.518C35.3628 6.77 35.4888 7.082 35.4888 7.454C35.4888 7.826 35.3628 8.138 35.1108 8.39C34.8588 8.642 34.5528 8.768 34.1928 8.768ZM35.2008 10.082V20H33.1488V10.082H35.2008ZM40.2889 11.756V17.246C40.2889 17.618 40.3729 17.888 40.5409 18.056C40.7209 18.212 41.0209 18.29 41.4409 18.29H42.7009V20H41.0809C40.1569 20 39.4489 19.784 38.9569 19.352C38.4649 18.92 38.2189 18.218 38.2189 17.246V11.756H37.0489V10.082H38.2189V7.616H40.2889V10.082H42.7009V11.756H40.2889ZM45.6362 8.768C45.2642 8.768 44.9522 8.642 44.7002 8.39C44.4482 8.138 44.3222 7.826 44.3222 7.454C44.3222 7.082 44.4482 6.77 44.7002 6.518C44.9522 6.266 45.2642 6.14 45.6362 6.14C45.9962 6.14 46.3022 6.266 46.5542 6.518C46.8062 6.77 46.9322 7.082 46.9322 7.454C46.9322 7.826 46.8062 8.138 46.5542 8.39C46.3022 8.642 45.9962 8.768 45.6362 8.768ZM46.6442 10.082V20H44.5922V10.082H46.6442ZM53.6403 20.162C52.7043 20.162 51.8583 19.952 51.1023 19.532C50.3463 19.1 49.7523 18.5 49.3203 17.732C48.8883 16.952 48.6723 16.052 48.6723 15.032C48.6723 14.024 48.8943 13.13 49.3383 12.35C49.7823 11.57 50.3883 10.97 51.1563 10.55C51.9243 10.13 52.7823 9.92 53.7303 9.92C54.6783 9.92 55.5363 10.13 56.3043 10.55C57.0723 10.97 57.6783 11.57 58.1223 12.35C58.5663 13.13 58.7883 14.024 58.7883 15.032C58.7883 16.04 58.5603 16.934 58.1043 17.714C57.6483 18.494 57.0243 19.1 56.2323 19.532C55.4523 19.952 54.5883 20.162 53.6403 20.162ZM53.6403 18.38C54.1683 18.38 54.6603 18.254 55.1163 18.002C55.5843 17.75 55.9623 17.372 56.2503 16.868C56.5383 16.364 56.6823 15.752 56.6823 15.032C56.6823 14.312 56.5443 13.706 56.2683 13.214C55.9923 12.71 55.6263 12.332 55.1703 12.08C54.7143 11.828 54.2223 11.702 53.6943 11.702C53.1663 11.702 52.6743 11.828 52.2183 12.08C51.7743 12.332 51.4203 12.71 51.1563 13.214C50.8923 13.706 50.7603 14.312 50.7603 15.032C50.7603 16.1 51.0303 16.928 51.5703 17.516C52.1223 18.092 52.8123 18.38 53.6403 18.38ZM65.8208 9.92C66.6008 9.92 67.2968 10.082 67.9088 10.406C68.5328 10.73 69.0188 11.21 69.3668 11.846C69.7148 12.482 69.8888 13.25 69.8888 14.15V20H67.8548V14.456C67.8548 13.568 67.6328 12.89 67.1888 12.422C66.7448 11.942 66.1388 11.702 65.3708 11.702C64.6028 11.702 63.9908 11.942 63.5348 12.422C63.0908 12.89 62.8688 13.568 62.8688 14.456V20H60.8168V10.082H62.8688V11.216C63.2048 10.808 63.6308 10.49 64.1468 10.262C64.6748 10.034 65.2328 9.92 65.8208 9.92Z" fill="#27DC8A"/>
<path d="M4.194 32.83V35.386H8.316V37.762H4.194V40.534H8.856V43H1.116V30.364H8.856V32.83H4.194ZM16.7943 43L14.8683 40.21L13.2483 43H9.91828L13.2303 37.87L9.82828 32.956H13.2843L15.2103 35.728L16.8303 32.956H20.1603L16.7943 38.014L20.2503 43H16.7943ZM20.8243 37.978C20.8243 36.934 21.0343 36.022 21.4543 35.242C21.8863 34.462 22.4803 33.862 23.2363 33.442C24.0043 33.022 24.8803 32.812 25.8643 32.812C27.1243 32.812 28.1743 33.142 29.0143 33.802C29.8663 34.462 30.4243 35.392 30.6883 36.592H27.4123C27.1363 35.824 26.6023 35.44 25.8103 35.44C25.2463 35.44 24.7963 35.662 24.4603 36.106C24.1243 36.538 23.9563 37.162 23.9563 37.978C23.9563 38.794 24.1243 39.424 24.4603 39.868C24.7963 40.3 25.2463 40.516 25.8103 40.516C26.6023 40.516 27.1363 40.132 27.4123 39.364H30.6883C30.4243 40.54 29.8663 41.464 29.0143 42.136C28.1623 42.808 27.1123 43.144 25.8643 43.144C24.8803 43.144 24.0043 42.934 23.2363 42.514C22.4803 42.094 21.8863 41.494 21.4543 40.714C21.0343 39.934 20.8243 39.022 20.8243 37.978ZM38.5088 32.848C39.6608 32.848 40.5848 33.232 41.2808 34C41.9768 34.756 42.3248 35.8 42.3248 37.132V43H39.2648V37.546C39.2648 36.874 39.0908 36.352 38.7428 35.98C38.3948 35.608 37.9268 35.422 37.3388 35.422C36.7508 35.422 36.2828 35.608 35.9348 35.98C35.5868 36.352 35.4128 36.874 35.4128 37.546V43H32.3348V29.68H35.4128V34.306C35.7248 33.862 36.1508 33.508 36.6908 33.244C37.2308 32.98 37.8368 32.848 38.5088 32.848ZM43.8517 37.96C43.8517 36.928 44.0437 36.022 44.4277 35.242C44.8237 34.462 45.3577 33.862 46.0297 33.442C46.7017 33.022 47.4517 32.812 48.2797 32.812C48.9877 32.812 49.6057 32.956 50.1337 33.244C50.6737 33.532 51.0877 33.91 51.3757 34.378V32.956H54.4537V43H51.3757V41.578C51.0757 42.046 50.6557 42.424 50.1157 42.712C49.5877 43 48.9697 43.144 48.2617 43.144C47.4457 43.144 46.7017 42.934 46.0297 42.514C45.3577 42.082 44.8237 41.476 44.4277 40.696C44.0437 39.904 43.8517 38.992 43.8517 37.96ZM51.3757 37.978C51.3757 37.21 51.1597 36.604 50.7277 36.16C50.3077 35.716 49.7917 35.494 49.1797 35.494C48.5677 35.494 48.0457 35.716 47.6137 36.16C47.1937 36.592 46.9837 37.192 46.9837 37.96C46.9837 38.728 47.1937 39.34 47.6137 39.796C48.0457 40.24 48.5677 40.462 49.1797 40.462C49.7917 40.462 50.3077 40.24 50.7277 39.796C51.1597 39.352 51.3757 38.746 51.3757 37.978ZM62.8005 32.848C63.9765 32.848 64.9125 33.232 65.6085 34C66.3165 34.756 66.6705 35.8 66.6705 37.132V43H63.6105V37.546C63.6105 36.874 63.4365 36.352 63.0885 35.98C62.7405 35.608 62.2725 35.422 61.6845 35.422C61.0965 35.422 60.6285 35.608 60.2805 35.98C59.9325 36.352 59.7585 36.874 59.7585 37.546V43H56.6805V32.956H59.7585V34.288C60.0705 33.844 60.4905 33.496 61.0185 33.244C61.5465 32.98 62.1405 32.848 62.8005 32.848ZM72.6254 32.812C73.3334 32.812 73.9514 32.956 74.4794 33.244C75.0194 33.532 75.4334 33.91 75.7214 34.378V32.956H78.7994V42.982C78.7994 43.906 78.6134 44.74 78.2414 45.484C77.8814 46.24 77.3234 46.84 76.5674 47.284C75.8234 47.728 74.8934 47.95 73.7774 47.95C72.2894 47.95 71.0834 47.596 70.1594 46.888C69.2354 46.192 68.7074 45.244 68.5754 44.044H71.6174C71.7134 44.428 71.9414 44.728 72.3014 44.944C72.6614 45.172 73.1054 45.286 73.6334 45.286C74.2694 45.286 74.7734 45.1 75.1454 44.728C75.5294 44.368 75.7214 43.786 75.7214 42.982V41.56C75.4214 42.028 75.0074 42.412 74.4794 42.712C73.9514 43 73.3334 43.144 72.6254 43.144C71.7974 43.144 71.0474 42.934 70.3754 42.514C69.7034 42.082 69.1694 41.476 68.7734 40.696C68.3894 39.904 68.1974 38.992 68.1974 37.96C68.1974 36.928 68.3894 36.022 68.7734 35.242C69.1694 34.462 69.7034 33.862 70.3754 33.442C71.0474 33.022 71.7974 32.812 72.6254 32.812ZM75.7214 37.978C75.7214 37.21 75.5054 36.604 75.0734 36.16C74.6534 35.716 74.1374 35.494 73.5254 35.494C72.9134 35.494 72.3914 35.716 71.9594 36.16C71.5394 36.592 71.3294 37.192 71.3294 37.96C71.3294 38.728 71.5394 39.34 71.9594 39.796C72.3914 40.24 72.9134 40.462 73.5254 40.462C74.1374 40.462 74.6534 40.24 75.0734 39.796C75.5054 39.352 75.7214 38.746 75.7214 37.978ZM90.4942 37.816C90.4942 38.104 90.4762 38.404 90.4402 38.716H83.4742C83.5222 39.34 83.7202 39.82 84.0682 40.156C84.4282 40.48 84.8662 40.642 85.3822 40.642C86.1502 40.642 86.6842 40.318 86.9842 39.67H90.2602C90.0922 40.33 89.7862 40.924 89.3422 41.452C88.9102 41.98 88.3642 42.394 87.7042 42.694C87.0442 42.994 86.3062 43.144 85.4902 43.144C84.5062 43.144 83.6302 42.934 82.8622 42.514C82.0942 42.094 81.4942 41.494 81.0622 40.714C80.6302 39.934 80.4142 39.022 80.4142 37.978C80.4142 36.934 80.6242 36.022 81.0442 35.242C81.4762 34.462 82.0762 33.862 82.8442 33.442C83.6122 33.022 84.4942 32.812 85.4902 32.812C86.4622 32.812 87.3262 33.016 88.0822 33.424C88.8382 33.832 89.4262 34.414 89.8462 35.17C90.2782 35.926 90.4942 36.808 90.4942 37.816ZM87.3442 37.006C87.3442 36.478 87.1642 36.058 86.8042 35.746C86.4442 35.434 85.9942 35.278 85.4542 35.278C84.9382 35.278 84.5002 35.428 84.1402 35.728C83.7922 36.028 83.5762 36.454 83.4922 37.006H87.3442Z" fill="white"/>
</svg>
