<svg width="124" height="124" viewBox="0 0 124 124" fill="none" xmlns="http://www.w3.org/2000/svg">
<path fill-rule="evenodd" clip-rule="evenodd" d="M61.9998 25.8333C59.2593 25.8333 56.6309 26.922 54.6931 28.8599C52.7552 30.7978 51.6665 33.4261 51.6665 36.1667C51.6665 38.9072 52.7552 41.5356 54.6931 43.4734C56.6309 45.4113 59.2593 46.5 61.9998 46.5C64.7404 46.5 67.3687 45.4113 69.3066 43.4734C71.2445 41.5356 72.3332 38.9072 72.3332 36.1667C72.3332 33.4261 71.2445 30.7978 69.3066 28.8599C67.3687 26.922 64.7404 25.8333 61.9998 25.8333ZM47.3863 21.5531C51.262 17.6774 56.5187 15.5 61.9998 15.5C67.481 15.5 72.7376 17.6774 76.6134 21.5531C80.4891 25.4289 82.6665 30.6855 82.6665 36.1667C82.6665 41.6478 80.4891 46.9045 76.6134 50.7802C72.7376 54.656 67.481 56.8333 61.9998 56.8333C56.5187 56.8333 51.262 54.656 47.3863 50.7802C43.5105 46.9045 41.3332 41.6478 41.3332 36.1667C41.3332 30.6855 43.5105 25.4289 47.3863 21.5531ZM25.8332 46.5C24.4629 46.5 23.1487 47.0443 22.1798 48.0133C21.2108 48.9822 20.6665 50.2964 20.6665 51.6667C20.6665 53.0369 21.2108 54.3511 22.1798 55.32C23.1487 56.289 24.4629 56.8333 25.8332 56.8333C27.2035 56.8333 28.5176 56.289 29.4866 55.32C30.4555 54.3511 30.9998 53.037 30.9998 51.6667C30.9998 50.2964 30.4555 48.9822 29.4866 48.0133C28.5176 47.0443 27.2035 46.5 25.8332 46.5ZM14.873 40.7065C17.7798 37.7997 21.7223 36.1667 25.8332 36.1667C29.944 36.1667 33.8865 37.7997 36.7933 40.7065C39.7001 43.6133 41.3332 47.5558 41.3332 51.6667C41.3332 55.7775 39.7001 59.72 36.7933 62.6268C33.8865 65.5336 29.944 67.1667 25.8332 67.1667C21.7223 67.1667 17.7798 65.5336 14.873 62.6268C11.9662 59.72 10.3332 55.7775 10.3332 51.6667C10.3332 47.5558 11.9662 43.6133 14.873 40.7065ZM98.1665 46.5C96.7962 46.5 95.4821 47.0443 94.5131 48.0133C93.5442 48.9822 92.9998 50.2964 92.9998 51.6667C92.9998 53.0369 93.5442 54.3511 94.5131 55.3201C95.4821 56.289 96.7962 56.8333 98.1665 56.8333C99.5368 56.8333 100.851 56.289 101.82 55.3201C102.789 54.3511 103.333 53.0369 103.333 51.6667C103.333 50.2964 102.789 48.9822 101.82 48.0133C100.851 47.0443 99.5368 46.5 98.1665 46.5ZM87.2063 40.7065C90.1132 37.7997 94.0556 36.1667 98.1665 36.1667C102.277 36.1667 106.22 37.7997 109.127 40.7065C112.033 43.6133 113.667 47.5558 113.667 51.6667C113.667 55.7775 112.033 59.72 109.127 62.6268C106.22 65.5336 102.277 67.1667 98.1665 67.1667C94.0556 67.1667 90.1132 65.5336 87.2063 62.6268C84.2995 59.72 82.6665 55.7775 82.6665 51.6667C82.6665 47.5558 84.2995 43.6133 87.2063 40.7065ZM61.9998 72.3297C57.8678 72.3297 53.8306 73.5677 50.4088 75.884C46.9871 78.2003 44.3378 81.4887 42.8027 85.325C41.8564 87.6868 41.3332 90.2767 41.3332 93V98.1667H82.6665V93C82.6665 90.2768 82.1442 87.689 81.1979 85.3272C79.6628 81.4909 77.0126 78.2003 73.5909 75.884C70.1691 73.5677 66.1319 72.3297 61.9998 72.3297ZM92.9998 98.1667H108.5V93.0004C108.5 93.0003 108.5 93.0005 108.5 93.0004C108.5 90.853 107.83 88.7587 106.585 87.0092C105.34 85.2596 103.581 83.9415 101.552 83.238C99.5225 82.5345 97.3248 82.4806 95.2637 83.0839C94.0405 83.4419 92.9014 84.0209 91.8996 84.7851C92.6184 87.4071 92.9998 90.1634 92.9998 93V98.1667ZM87.4703 75.3178C85.3014 72.1948 82.5651 69.4807 79.3835 67.3269C74.2517 63.8531 68.1968 61.9964 61.9998 61.9964C55.8028 61.9964 49.748 63.8531 44.6162 67.3269C41.4346 69.4807 38.6983 72.1948 36.5294 75.3178C35.0079 74.3974 33.3653 73.672 31.6387 73.1666C27.5167 71.9601 23.1211 72.0678 19.0631 73.4748C15.0051 74.8818 11.4863 77.5181 8.99577 81.0173C6.50526 84.5164 5.16682 88.7046 5.1665 92.9996V103.333C5.1665 106.187 7.4797 108.5 10.3332 108.5H113.667C116.52 108.5 118.833 106.187 118.833 103.333V93C118.833 88.705 117.494 84.5164 115.004 81.0173C112.513 77.5181 108.995 74.8818 104.937 73.4748C100.879 72.0678 96.483 71.9601 92.361 73.1666C90.6344 73.672 88.9918 74.3974 87.4703 75.3178ZM32.1001 84.7851C31.0982 84.0209 29.9592 83.4419 28.7359 83.0839C26.6749 82.4806 24.4771 82.5345 22.4481 83.238C20.4191 83.9415 18.6597 85.2596 17.4145 87.0092C16.1693 88.7587 15.5001 90.8526 15.4998 93C15.4998 93.0001 15.4998 92.9999 15.4998 93V98.1667H30.9998V93C30.9998 90.1634 31.3813 87.4071 32.1001 84.7851Z" fill="#1AC486"/>
</svg>
